<svg width="660" height="565" viewBox="0 0 660 565" fill="none" xmlns="http://www.w3.org/2000/svg">
<path d="M215.203 484.237C113.461 410.169 22.2309 245.051 118.351 152.111C207.47 65.9413 253.847 161.396 357.017 106.481C460.187 51.5663 409.279 -107.31 527.017 -146.1C595.355 -168.614 678.734 -132.358 722.834 -49.4746C766.933 33.4091 771.754 162.921 682.975 326.917C599.113 481.831 496.946 531.918 408.357 537.899C319.768 543.879 244.757 505.752 215.203 484.237Z" stroke="#F5F5F5" stroke-width="2.10293" stroke-miterlimit="10"/>
<path d="M670.798 326.829C594.089 469.028 500.45 515.65 418.914 521.61C337.909 527.4 269.065 493.013 241.196 473.19C146.553 405.42 61.4844 253.209 147.559 165.519C227.035 84.55 270.026 168.176 364.617 116.94C367.305 115.472 369.884 113.931 372.361 112.322C439.471 68.7684 430.812 -25.5796 475.903 -80.1118C488.144 -94.9149 504.283 -106.861 526.869 -114.002C591.839 -134.543 668.814 -100.341 709.107 -23.4516C749.513 53.8635 752.802 174.495 670.798 326.829Z" stroke="#F5F5F5" stroke-width="2.10293" stroke-miterlimit="10"/>
<path d="M658.627 326.74C589.071 456.225 503.959 499.381 429.476 505.321C356.055 510.92 293.32 480.36 267.194 462.143C179.447 400.961 100.739 261.394 176.773 178.926C246.606 103.183 286.377 175.253 372.224 127.397C374.698 126.018 377.066 124.558 379.351 123.047C441.082 82.3011 436.161 -2.87066 479.042 -51.5957C490.751 -64.9002 505.898 -75.6314 526.729 -81.9046C588.342 -100.459 658.901 -68.3244 695.387 2.57152C732.098 74.3176 733.856 186.068 658.627 326.74Z" stroke="#F5F5F5" stroke-width="2.10293" stroke-miterlimit="10"/>
<path d="M646.451 326.652C584.047 443.423 507.48 483.301 440.033 489.032C374.212 494.625 317.605 467.66 293.187 451.097C212.462 396.337 139.986 269.613 205.982 192.333C266.174 121.849 302.634 182.157 379.825 137.855C382.082 136.559 384.244 135.185 386.335 133.772C442.687 95.8336 441.523 19.8411 482.176 -23.0793C493.358 -34.8846 507.514 -44.3915 526.583 -49.8076C584.853 -66.3573 648.982 -36.3083 681.663 28.5937C714.678 94.7718 714.906 197.642 646.451 326.652Z" stroke="#F5F5F5" stroke-width="2.10293" stroke-miterlimit="10"/>
<path d="M634.278 326.563C579.244 430.735 510.994 467.087 450.593 472.743C392.363 478.196 341.898 454.956 319.183 440.05C245.497 391.693 179.237 277.879 235.193 205.74C285.752 140.56 318.884 189.04 387.429 148.313C389.47 147.1 391.424 145.812 393.322 144.497C444.295 109.367 446.912 42.5583 485.312 5.43741C495.973 -4.86825 509.137 -13.1372 526.438 -17.7098C581.383 -32.2312 639.217 -4.36501 667.939 54.6172C697.418 115.151 696.203 209.345 634.278 326.563Z" stroke="#F5F5F5" stroke-width="2.10293" stroke-miterlimit="10"/>
<path d="M620.102 326.505C572.257 417.98 512.507 450.896 459.151 456.485C408.511 461.789 364.194 442.276 343.177 429.033C276.553 387.053 216.498 286.24 262.403 219.178C303.347 159.361 333.123 195.923 393.031 158.801C394.855 157.67 396.602 156.468 398.308 155.252C443.902 122.929 450.329 65.3164 486.447 33.9839C496.595 25.1801 508.768 18.1635 524.293 14.4178C575.932 1.95969 627.324 27.6725 652.215 80.67C678.026 135.626 675.3 220.972 620.102 326.505Z" stroke="#F5F5F5" stroke-width="2.10293" stroke-miterlimit="10"/>
<path d="M609.924 326.386C569.253 405.156 518.018 434.634 471.706 440.165C428.657 445.308 390.496 429.526 371.168 417.955C311.636 382.317 257.792 294.629 293.61 232.555C324.983 178.184 351.343 202.707 402.631 169.229C404.238 168.18 405.778 167.066 407.29 165.947C447.505 136.433 457.782 88.0367 491.579 62.4701C501.224 55.1732 512.402 49.4249 526.146 46.4851C574.499 36.1409 619.418 59.6562 640.487 106.663C662.622 156.045 658.382 232.532 609.924 326.386Z" stroke="#F5F5F5" stroke-width="2.10293" stroke-miterlimit="10"/>
<path d="M597.749 326.297C564.232 392.352 521.533 418.383 482.264 423.876C446.807 428.837 414.811 416.792 397.162 406.908C344.758 377.561 294.126 301.695 322.82 245.961C347.31 198.391 367.539 209.468 410.233 179.686C411.622 178.717 412.955 177.692 414.277 176.671C449.113 149.964 463.285 110.824 494.714 90.9854C503.87 85.2058 514.049 80.7422 526.001 78.5816C571.095 70.4286 609.503 91.6769 626.764 132.685C645.207 176.503 639.45 244.111 597.749 326.297Z" stroke="#F5F5F5" stroke-width="2.10293" stroke-miterlimit="10"/>
<path d="M585.574 326.21C559.183 379.533 525.048 402.101 492.823 407.589C464.955 412.334 439.142 404.037 423.157 395.863C377.926 372.734 336.751 311.824 352.031 259.369C364.603 216.209 383.691 216.157 417.836 190.145C419.006 189.254 420.134 188.319 421.263 187.397C450.72 163.498 468.838 133.682 497.85 119.503C506.53 115.26 515.702 112.096 525.857 110.68C567.716 104.843 599.565 123.71 613.041 158.709C627.772 196.972 620.485 255.674 585.574 326.21Z" stroke="#F5F5F5" stroke-width="2.10293" stroke-miterlimit="10"/>
<path d="M573.403 326.12C554.087 366.687 528.556 385.752 503.385 391.299C483.098 395.77 463.495 391.238 449.155 384.815C411.148 367.792 376.707 320.542 381.245 272.775C384.803 235.323 399.764 222.74 425.443 200.602C426.391 199.785 427.317 198.945 428.253 198.121C452.33 177.03 474.428 156.65 500.988 148.018C509.205 145.348 517.361 143.492 525.716 142.776C564.357 139.465 589.596 155.752 599.321 184.731C610.301 217.454 601.458 267.203 573.403 326.12Z" stroke="#F5F5F5" stroke-width="2.10293" stroke-miterlimit="10"/>
<path d="M410.451 286.184C405.187 252.917 416.536 227.129 435.234 208.847C453.933 190.564 479.983 179.786 504.12 176.536C553.645 169.868 578.439 183.557 585.593 210.755C592.746 237.953 582.26 278.661 561.225 326.033C540.19 373.404 505.886 384.863 475.146 373.769C444.406 362.675 417.23 329.027 410.451 286.184Z" stroke="#F5F5F5" stroke-width="2.10293" stroke-miterlimit="10"/>
</svg>
