<svg width="675" height="616" viewBox="0 0 675 616" fill="none" xmlns="http://www.w3.org/2000/svg">
<path d="M215.203 511.237C113.461 437.169 22.2309 272.051 118.351 179.111C207.47 92.9413 253.847 188.396 357.017 133.481C460.187 78.5663 409.279 -80.3102 527.017 -119.1C595.355 -141.614 678.734 -105.358 722.834 -22.4746C766.933 60.4091 771.754 189.921 682.975 353.917C599.113 508.831 496.946 558.918 408.357 564.899C319.768 570.879 244.757 532.752 215.203 511.237Z" stroke="#F5F5F5" stroke-width="2.10293" stroke-miterlimit="10"/>
<path d="M670.798 353.828C594.089 496.028 500.45 542.649 418.914 548.609C337.909 554.399 269.065 520.012 241.196 500.19C146.553 432.42 61.4844 280.209 147.559 192.518C227.035 111.55 270.026 195.175 364.617 143.939C367.305 142.471 369.884 140.931 372.361 139.322C439.471 95.7679 430.812 1.41996 475.903 -53.1122C488.144 -67.9154 504.283 -79.8612 526.869 -87.0023C591.839 -107.543 668.814 -73.3415 709.107 3.54789C749.513 80.863 752.802 201.494 670.798 353.828Z" stroke="#F5F5F5" stroke-width="2.10293" stroke-miterlimit="10"/>
<path d="M658.627 353.74C589.071 483.226 503.959 526.381 429.476 532.321C356.055 537.921 293.32 507.361 267.194 489.144C179.447 427.962 100.739 288.394 176.773 205.926C246.606 130.183 286.377 202.253 372.224 154.398C374.698 153.018 377.066 151.559 379.351 150.047C441.082 109.302 436.161 24.1298 479.042 -24.5952C490.751 -37.8997 505.898 -48.631 526.729 -54.9041C588.342 -73.4586 658.901 -41.3239 695.387 29.572C732.098 101.318 733.856 213.069 658.627 353.74Z" stroke="#F5F5F5" stroke-width="2.10293" stroke-miterlimit="10"/>
<path d="M646.451 353.652C584.047 470.423 507.48 510.301 440.033 516.032C374.212 521.625 317.605 494.66 293.187 478.097C212.462 423.337 139.986 296.613 205.982 219.333C266.174 148.849 302.634 209.157 379.825 164.855C382.082 163.559 384.244 162.185 386.335 160.772C442.687 122.834 441.523 46.8411 482.176 3.92074C493.358 -7.8846 507.514 -17.3915 526.583 -22.8076C584.853 -39.3573 648.982 -9.3083 681.663 55.5937C714.678 121.772 714.906 224.642 646.451 353.652Z" stroke="#F5F5F5" stroke-width="2.10293" stroke-miterlimit="10"/>
<path d="M634.278 353.564C579.244 457.735 510.994 494.087 450.593 499.744C392.363 505.197 341.898 481.956 319.183 467.05C245.497 418.693 179.237 304.88 235.193 232.741C285.752 167.561 318.884 216.04 387.429 175.314C389.47 174.101 391.424 172.812 393.322 171.497C444.295 136.367 446.912 69.5587 485.312 32.4379C495.973 22.1322 509.137 13.8633 526.438 9.2907C581.383 -5.23074 639.217 22.6355 667.939 81.6177C697.418 142.151 696.203 236.346 634.278 353.564Z" stroke="#F5F5F5" stroke-width="2.10293" stroke-miterlimit="10"/>
<path d="M622.102 353.475C574.257 444.949 514.507 477.866 461.151 483.455C410.511 488.759 366.194 469.246 345.177 456.003C278.553 414.022 218.498 313.21 264.403 246.147C305.347 186.331 335.123 222.893 395.031 185.771C396.855 184.64 398.602 183.438 400.308 182.221C445.902 149.899 452.329 92.2861 488.447 60.9536C498.595 52.1498 510.768 45.1332 526.293 41.3875C577.932 28.9294 629.324 54.6422 654.215 107.64C680.026 162.595 677.3 247.942 622.102 353.475Z" stroke="#F5F5F5" stroke-width="2.10293" stroke-miterlimit="10"/>
<path d="M609.924 353.386C569.253 432.156 518.018 461.634 471.706 467.165C428.657 472.308 390.496 456.526 371.168 444.955C311.636 409.317 257.792 321.629 293.61 259.555C324.983 205.184 351.343 229.707 402.631 196.229C404.238 195.18 405.778 194.066 407.29 192.947C447.505 163.433 457.782 115.037 491.579 89.4701C501.224 82.1732 512.402 76.4249 526.146 73.4851C574.499 63.1409 619.418 86.6562 640.487 133.663C662.622 183.045 658.382 259.532 609.924 353.386Z" stroke="#F5F5F5" stroke-width="2.10293" stroke-miterlimit="10"/>
<path d="M597.749 353.297C564.232 419.352 521.533 445.383 482.264 450.876C446.807 455.837 414.811 443.792 397.162 433.908C344.758 404.561 294.126 328.695 322.82 272.961C347.31 225.391 367.539 236.468 410.233 206.686C411.622 205.717 412.955 204.692 414.277 203.671C449.113 176.964 463.285 137.824 494.714 117.985C503.87 112.206 514.049 107.742 526.001 105.582C571.095 97.4286 609.503 118.677 626.764 159.685C645.207 203.503 639.45 271.111 597.749 353.297Z" stroke="#F5F5F5" stroke-width="2.10293" stroke-miterlimit="10"/>
<path d="M585.574 353.21C559.183 406.533 525.048 429.101 492.823 434.589C464.955 439.334 439.142 431.037 423.157 422.863C377.926 399.734 336.751 338.824 352.031 286.369C364.603 243.209 383.691 243.157 417.836 217.145C419.006 216.254 420.134 215.319 421.263 214.397C450.72 190.498 468.838 160.682 497.85 146.503C506.53 142.26 515.702 139.096 525.857 137.68C567.716 131.843 599.565 150.71 613.041 185.709C627.772 223.972 620.485 282.674 585.574 353.21Z" stroke="#F5F5F5" stroke-width="2.10293" stroke-miterlimit="10"/>
<path d="M573.403 353.12C554.087 393.687 528.556 412.752 503.385 418.299C483.098 422.77 463.495 418.238 449.155 411.815C411.148 394.792 376.707 347.542 381.245 299.775C384.803 262.323 399.764 249.74 425.443 227.602C426.391 226.785 427.317 225.945 428.253 225.121C452.33 204.03 474.428 183.65 500.988 175.018C509.205 172.348 517.361 170.492 525.716 169.776C564.357 166.465 589.596 182.752 599.321 211.731C610.301 244.454 601.458 294.203 573.403 353.12Z" stroke="#F5F5F5" stroke-width="2.10293" stroke-miterlimit="10"/>
<path d="M410.451 313.183C405.187 279.916 416.536 254.129 435.234 235.846C453.933 217.563 479.983 206.785 504.12 203.535C553.645 196.867 578.439 210.556 585.593 237.754C592.746 264.952 582.26 305.661 561.225 353.032C540.19 400.404 505.886 411.863 475.146 400.768C444.406 389.674 417.23 356.026 410.451 313.183Z" stroke="#F5F5F5" stroke-width="2.10293" stroke-miterlimit="10"/>
</svg>
