<svg width="533" height="493" viewBox="0 0 533 493" fill="none" xmlns="http://www.w3.org/2000/svg">
<circle cx="293.5" cy="230.5" r="227.5" fill="#A88D0A"/>
<g clip-path="url(#clip0_815_3465)">
<g clip-path="url(#clip1_815_3465)">
<rect x="69" width="396" height="346" rx="8" fill="#F2F2F2"/>
<path d="M69 8C69 3.58172 72.5817 0 77 0H457C461.418 0 465 3.58172 465 8V27H69V8Z" fill="#C5CFD6"/>
<path fill-rule="evenodd" clip-rule="evenodd" d="M82 18C84.2091 18 86 16.2091 86 14C86 11.7909 84.2091 10 82 10C79.7909 10 78 11.7909 78 14C78 16.2091 79.7909 18 82 18Z" fill="#F2F2F2"/>
<path fill-rule="evenodd" clip-rule="evenodd" d="M94 18C96.2091 18 98 16.2091 98 14C98 11.7909 96.2091 10 94 10C91.7909 10 90 11.7909 90 14C90 16.2091 91.7909 18 94 18Z" fill="#F2F2F2"/>
<path fill-rule="evenodd" clip-rule="evenodd" d="M106 18C108.209 18 110 16.2091 110 14C110 11.7909 108.209 10 106 10C103.791 10 102 11.7909 102 14C102 16.2091 103.791 18 106 18Z" fill="#F2F2F2"/>
<g clip-path="url(#clip2_815_3465)">
<g clip-path="url(#clip3_815_3465)">
<rect x="379" y="132" width="70" height="194" rx="8" fill="white"/>
<g clip-path="url(#clip4_815_3465)">
<rect x="397" y="150" width="34" height="26" rx="4" fill="#DDE3E9"/>
<rect x="397" y="184" width="34" height="25" rx="4" fill="#AFB9C5"/>
<rect x="397" y="217" width="34" height="25" rx="4" fill="#DDE3E9"/>
<rect x="397" y="283" width="34" height="25" rx="4" fill="#DDE3E9"/>
<rect x="397" y="250" width="34" height="25" rx="4" fill="#C5CFD6"/>
</g>
</g>
<rect x="379" y="43" width="70" height="81" rx="8" fill="white"/>
<g clip-path="url(#clip5_815_3465)">
<path fill-rule="evenodd" clip-rule="evenodd" d="M414 90C422.837 90 430 82.8366 430 74C430 65.1634 422.837 58 414 58C405.163 58 398 65.1634 398 74C398 82.8366 405.163 90 414 90Z" fill="#DDE3E9"/>
<rect x="389" y="94" width="50" height="6" rx="3" fill="#DDE3E9"/>
<rect x="397" y="104" width="34" height="6" rx="3" fill="#DDE3E9"/>
</g>
<g clip-path="url(#clip6_815_3465)">
<g clip-path="url(#clip7_815_3465)">
<rect x="85" y="43" width="286" height="47" rx="4" fill="white"/>
<g clip-path="url(#clip8_815_3465)">
<rect x="94" y="57.1001" width="228" height="7.05" rx="3" fill="#DDE3E9"/>
<rect x="94" y="68.8501" width="153.041" height="7.05" rx="3" fill="#DDE3E9"/>
</g>
<path fill-rule="evenodd" clip-rule="evenodd" d="M340.436 73.5C344.302 73.5 347.436 70.366 347.436 66.5C347.436 62.634 344.302 59.5 340.436 59.5C336.57 59.5 333.436 62.634 333.436 66.5C333.436 70.366 336.57 73.5 340.436 73.5Z" fill="#DDE3E9"/>
<path fill-rule="evenodd" clip-rule="evenodd" d="M340.436 69.5C342.092 69.5 343.436 68.1569 343.436 66.5C343.436 64.8431 342.092 63.5 340.436 63.5C338.779 63.5 337.436 64.8431 337.436 66.5C337.436 68.1569 338.779 69.5 340.436 69.5Z" fill="#F2F2F2"/>
</g>
<g clip-path="url(#clip9_815_3465)">
<rect x="85" y="98" width="286" height="39" rx="4" fill="white"/>
<g clip-path="url(#clip10_815_3465)">
<rect x="94" y="109.7" width="228" height="5.85" rx="2.925" fill="#DDE3E9"/>
<rect x="94" y="119.45" width="153.041" height="5.85" rx="2.925" fill="#DDE3E9"/>
</g>
<path fill-rule="evenodd" clip-rule="evenodd" d="M340.436 124.5C344.302 124.5 347.436 121.366 347.436 117.5C347.436 113.634 344.302 110.5 340.436 110.5C336.57 110.5 333.436 113.634 333.436 117.5C333.436 121.366 336.57 124.5 340.436 124.5Z" fill="#DDE3E9"/>
<path fill-rule="evenodd" clip-rule="evenodd" d="M340.436 120.5C342.092 120.5 343.436 119.157 343.436 117.5C343.436 115.843 342.092 114.5 340.436 114.5C338.779 114.5 337.436 115.843 337.436 117.5C337.436 119.157 338.779 120.5 340.436 120.5Z" fill="#F2F2F2"/>
</g>
<g clip-path="url(#clip11_815_3465)">
<rect x="85" y="145" width="286" height="39" rx="4" fill="white"/>
<g clip-path="url(#clip12_815_3465)">
<rect x="94" y="156.7" width="228" height="5.85" rx="2.925" fill="#DDE3E9"/>
<rect x="94" y="166.45" width="153.041" height="5.85" rx="2.925" fill="#DDE3E9"/>
</g>
<path fill-rule="evenodd" clip-rule="evenodd" d="M340.436 171.5C344.302 171.5 347.436 168.366 347.436 164.5C347.436 160.634 344.302 157.5 340.436 157.5C336.57 157.5 333.436 160.634 333.436 164.5C333.436 168.366 336.57 171.5 340.436 171.5Z" fill="#DDE3E9"/>
<path fill-rule="evenodd" clip-rule="evenodd" d="M340.436 167.5C342.092 167.5 343.436 166.157 343.436 164.5C343.436 162.843 342.092 161.5 340.436 161.5C338.779 161.5 337.436 162.843 337.436 164.5C337.436 166.157 338.779 167.5 340.436 167.5Z" fill="#AFB9C5"/>
</g>
<g clip-path="url(#clip13_815_3465)">
<rect x="85" y="286" width="286" height="39" rx="4" fill="white"/>
<g clip-path="url(#clip14_815_3465)">
<rect x="94" y="297.7" width="228" height="5.85" rx="2.925" fill="#DDE3E9"/>
<rect x="94" y="307.45" width="153.041" height="5.85" rx="2.925" fill="#DDE3E9"/>
</g>
<path fill-rule="evenodd" clip-rule="evenodd" d="M340.436 312.5C344.302 312.5 347.436 309.366 347.436 305.5C347.436 301.634 344.302 298.5 340.436 298.5C336.57 298.5 333.436 301.634 333.436 305.5C333.436 309.366 336.57 312.5 340.436 312.5Z" fill="#DDE3E9"/>
<path fill-rule="evenodd" clip-rule="evenodd" d="M340.436 308.5C342.092 308.5 343.436 307.157 343.436 305.5C343.436 303.843 342.092 302.5 340.436 302.5C338.779 302.5 337.436 303.843 337.436 305.5C337.436 307.157 338.779 308.5 340.436 308.5Z" fill="#F2F2F2"/>
</g>
<g clip-path="url(#clip15_815_3465)">
<rect x="85" y="239" width="286" height="39" rx="4" fill="white"/>
<g clip-path="url(#clip16_815_3465)">
<rect x="94" y="250.7" width="228" height="5.85" rx="2.925" fill="#DDE3E9"/>
<rect x="94" y="260.45" width="153.041" height="5.85" rx="2.925" fill="#DDE3E9"/>
</g>
<path fill-rule="evenodd" clip-rule="evenodd" d="M340.436 265.5C344.302 265.5 347.436 262.366 347.436 258.5C347.436 254.634 344.302 251.5 340.436 251.5C336.57 251.5 333.436 254.634 333.436 258.5C333.436 262.366 336.57 265.5 340.436 265.5Z" fill="#DDE3E9"/>
<path fill-rule="evenodd" clip-rule="evenodd" d="M340.436 261.5C342.092 261.5 343.436 260.157 343.436 258.5C343.436 256.843 342.092 255.5 340.436 255.5C338.779 255.5 337.436 256.843 337.436 258.5C337.436 260.157 338.779 261.5 340.436 261.5Z" fill="#F2F2F2"/>
</g>
<g clip-path="url(#clip17_815_3465)">
<rect x="85" y="192" width="286" height="39" rx="4" fill="white"/>
<g clip-path="url(#clip18_815_3465)">
<rect x="94" y="203.7" width="228" height="5.85" rx="2.925" fill="#DDE3E9"/>
<rect x="94" y="213.45" width="153.041" height="5.85" rx="2.925" fill="#DDE3E9"/>
</g>
<path fill-rule="evenodd" clip-rule="evenodd" d="M340.436 218.5C344.302 218.5 347.436 215.366 347.436 211.5C347.436 207.634 344.302 204.5 340.436 204.5C336.57 204.5 333.436 207.634 333.436 211.5C333.436 215.366 336.57 218.5 340.436 218.5Z" fill="#DDE3E9"/>
<path fill-rule="evenodd" clip-rule="evenodd" d="M340.436 214.5C342.092 214.5 343.436 213.157 343.436 211.5C343.436 209.843 342.092 208.5 340.436 208.5C338.779 208.5 337.436 209.843 337.436 211.5C337.436 213.157 338.779 214.5 340.436 214.5Z" fill="#F2F2F2"/>
</g>
</g>
</g>
</g>
<path fill-rule="evenodd" clip-rule="evenodd" d="M122.146 182.31C128.335 184.937 134.176 185.806 136.713 184.76C143.075 182.136 140.299 157.976 133.857 149.203C127.416 140.43 100.58 139.983 101.899 158.974C102.357 165.565 105.924 171.003 110.653 175.185L108.127 210.046L129.279 207.073L122.146 182.31Z" fill="#B28B67"/>
<path fill-rule="evenodd" clip-rule="evenodd" d="M124.05 140.04C121.036 139.568 116.798 139.859 115.062 140.309C115.729 137.77 115.752 135.042 115.061 132.486C114.39 130.002 112.955 128.009 111.59 125.9C110.961 124.929 110.268 123.972 109.34 123.291C108.395 122.598 107.267 122.211 106.128 122.111C104.962 122.008 103.784 122.196 102.686 122.592C102.201 122.767 101.784 123.058 101.311 123.254C100.827 123.455 100.539 123.175 100.13 122.911C99.1442 122.276 97.8029 122.082 96.672 122.104C95.4032 122.129 94.135 122.498 93.0025 123.075C91.9003 123.635 90.8785 124.438 90.1735 125.498C89.8596 125.969 89.5882 126.494 89.4423 127.052C89.3824 127.28 89.3855 127.411 89.1803 127.52C88.9905 127.622 88.7567 127.657 88.56 127.755C86.6578 128.71 85.1666 130.489 84.5145 132.595C84.1341 133.823 84.1623 135.888 84.5523 138.152C84.9422 140.416 87.8355 146.06 90.0659 147.954C92.0567 149.644 94.7631 150.563 97.2805 150.778C95.9209 152.851 95.1672 155.308 94.6998 157.764C94.1922 160.433 94.0284 163.154 94.2095 165.878C94.3816 168.466 94.745 171.178 95.6997 173.6C96.5927 175.865 98.068 177.619 100.251 178.557C101.251 178.986 102.302 179.267 103.353 179.51C104.389 179.75 105.426 179.98 106.486 180.047C108.49 180.175 110.726 179.79 112.009 178.033C112.472 177.4 112.968 176.616 113.267 175.879C113.374 175.615 113.437 175.443 113.231 175.227C112.985 174.97 112.62 174.797 112.323 174.61C110.63 173.544 109.454 171.969 108.933 169.973C108.404 167.949 108.585 165.214 110.466 164.034C112.788 162.577 115.695 163.466 118.064 164.343C118.537 160.919 120.042 157.683 122.842 155.749C125.941 153.61 129.738 152.877 132.961 150.962C133.801 150.463 134.651 149.911 135.201 149.057C135.431 148.7 135.695 148.242 135.746 147.806C135.812 147.233 135.389 146.82 135.052 146.428C133.267 144.348 127.064 140.513 124.05 140.04Z" fill="#191847"/>
<path fill-rule="evenodd" clip-rule="evenodd" d="M115.7 279.929L181.833 390.159L231.413 483.348H242.093L159.02 279.929L115.7 279.929Z" fill="#997659"/>
<path fill-rule="evenodd" clip-rule="evenodd" d="M227.566 478.149C226.492 477.686 225.221 478.161 224.826 479.261C224.189 481.036 223.39 483.551 223.39 484.995C223.39 487.395 224.192 492 224.192 492C226.984 492 274.389 492 274.389 492C274.389 492 276.346 485.551 272.13 485.036C267.915 484.522 265.126 484.108 265.126 484.108L241.897 473.783C241.383 473.555 240.781 473.795 240.566 474.315L239.11 477.837C239.11 477.837 235.207 479.653 232.767 479.653C231.348 479.653 229.153 478.834 227.566 478.149Z" fill="#E4E4E4"/>
<path fill-rule="evenodd" clip-rule="evenodd" d="M217.643 468.426L238.238 462.215C238.238 462.215 224.703 421.875 205.061 373.43C185.418 324.986 162.87 279.929 162.87 279.929H104.703C104.703 279.929 129.772 336.923 157.856 383.502C185.939 430.081 217.643 468.426 217.643 468.426Z" fill="#DB2721"/>
<path fill-rule="evenodd" clip-rule="evenodd" d="M111.354 279.929C105.112 318.665 93.0733 368.154 91.9372 369.681C91.1798 370.699 63.913 379.808 10.1367 397.009L12.4436 406.398C76.5716 397.173 110.362 390.016 113.814 384.927C118.992 377.293 144.846 316.987 154.86 279.929H111.354Z" fill="#B28B67"/>
<path fill-rule="evenodd" clip-rule="evenodd" d="M29.04 388.893L33.1033 404.014C81.0673 408.208 110.456 405.178 121.269 394.923C132.082 384.668 144.406 346.337 158.241 279.929H102.775C94.0101 334.308 89.1098 362.639 88.0743 364.921C87.0389 367.204 67.3608 375.195 29.04 388.893Z" fill="#FF4133"/>
<path fill-rule="evenodd" clip-rule="evenodd" d="M14.1198 395.589C14.3918 394.449 13.6999 393.274 12.5435 393.078C10.6798 392.761 8.06006 392.413 6.63523 392.664C4.26441 393.081 -0.144701 394.668 -0.144701 394.668C0.340252 397.41 8.57202 443.954 8.57202 443.954C8.57202 443.954 15.2823 444.755 15.0582 440.527C14.8341 436.298 14.7592 433.489 14.7592 433.489L20.9224 408.894C21.0595 408.347 20.7169 407.795 20.1656 407.674L16.4356 406.856C16.4356 406.856 13.9646 403.339 13.541 400.944C13.2951 399.553 13.7199 397.265 14.1198 395.589Z" fill="#E4E4E4"/>
<path fill-rule="evenodd" clip-rule="evenodd" d="M178.268 201.702L150.024 222.706L163.02 233.206L182.397 209.791C193.654 204.928 198.678 201.822 197.469 200.473C196.45 199.335 195.096 199.569 193.85 199.786C192.879 199.954 191.972 200.111 191.339 199.6C189.893 198.431 191.63 193.391 193.484 188.678C195.338 183.965 192.753 184.716 191.332 185.556C186.863 189.582 182.509 194.964 178.268 201.702ZM212.32 220.818L199.917 230.066L202.571 243.403C202.571 243.403 210.394 235.917 217.589 232.783C226.763 228.788 230.34 226.218 234.173 219.636C236.223 216.115 237.446 209.443 234.778 207.7C233.755 207.032 230.623 209.391 227.428 211.797C224.993 213.631 222.521 215.493 220.917 216.064C218.758 216.833 218.615 213.923 218.5 211.598C218.418 209.93 218.35 208.562 217.564 209.071C213.64 209.691 212.32 220.818 212.32 220.818Z" fill="#997659"/>
<path fill-rule="evenodd" clip-rule="evenodd" d="M134.603 221.078C145.302 219.459 159.273 215.195 173.163 203.404L181.022 215.875C171.968 227.758 158.382 238.385 145.402 239.84C135.173 240.987 128.239 229.431 134.603 221.078Z" fill="#2026A2"/>
<path fill-rule="evenodd" clip-rule="evenodd" d="M118.522 316.341C108.15 316.449 98.6189 316.548 93.2251 318.416C84.1695 299.14 87.5543 285.726 90.6788 273.343C92.562 265.88 94.3507 258.791 93.2643 251.02C90.1009 228.387 103.431 190.992 106.113 190.616L106.882 190.507L128.134 187.521L130.567 187.179C133.628 201.029 140.426 215.536 147.266 230.135C148.864 233.545 150.464 236.96 152.019 240.372C170.357 241.896 207.852 222.35 207.852 222.35C207.852 222.35 220.702 241.498 221.18 250.354C199.892 265.545 180.954 273.645 164.784 276.277C166.648 285.799 166.76 295.094 163.997 303.989C160.295 315.908 137.935 316.14 118.522 316.341Z" fill="#1F28CF"/>
<path fill-rule="evenodd" clip-rule="evenodd" d="M383.415 182.073C378.117 186.213 372.701 188.564 369.979 188.21C363.154 187.322 359.583 163.267 363.534 153.126C367.485 142.985 393.292 135.607 396.933 154.292C398.196 160.777 396.158 166.953 392.672 172.216L404.135 205.236L382.934 207.839L383.415 182.073Z" fill="#B28B67"/>
<path fill-rule="evenodd" clip-rule="evenodd" d="M374.272 140.678C377.01 139.878 384.495 138.641 385.883 138.47C386.769 138.362 387.755 138.446 388.181 137.569C388.529 136.852 388.233 135.747 388.267 134.96C388.306 134.046 388.409 133.135 388.515 132.227C388.816 129.641 389.444 127.14 390.458 124.739C392.36 120.235 395.499 116.504 399.737 114.038C404.418 111.314 409.948 110.142 415.315 109.919C421.058 109.681 426.435 110.92 432.021 112.022C437.343 113.072 442.783 113.075 448.034 111.598C453.324 110.111 457.04 106.697 461.248 103.374C465.556 99.971 470.649 97.4663 476.205 97.2161C481.391 96.9828 486.386 98.5163 490.981 100.82C495.28 102.975 498.95 105.753 501.351 110.001C503.934 114.571 504.581 119.857 501.828 124.514C497.838 131.265 489.22 133.942 481.867 134.684C477.615 135.113 473.354 134.853 469.177 133.94C463.607 132.723 458.602 130.116 453.29 128.154C450.797 127.233 448.251 126.538 445.623 126.135C443.073 125.744 440.606 125.723 438.556 127.482C436.388 129.343 434.461 131.145 431.881 132.46C429.406 133.722 426.726 134.586 423.962 134.904C418.586 135.522 413.086 134.504 407.732 134.027C403.366 133.638 398.702 133.288 394.472 134.697C392.708 135.285 390.157 136.364 389.733 138.32C400.979 138.957 406.966 151.991 405.087 162.331C404.073 167.911 394.782 175.43 390.522 173.084C387.824 171.598 389.04 169.064 389.824 167.393C391.324 164.193 391.493 160.298 387.788 158.653C384.593 157.235 381.983 161.856 381.923 161.858C381.097 161.894 373.538 158.776 367.954 153.558C363.184 154.432 362.067 151.363 362.897 148.638C363.727 145.914 370.489 141.784 374.272 140.678Z" fill="#191847"/>
<path fill-rule="evenodd" clip-rule="evenodd" d="M429.187 279.93C427.582 301.766 324.2 366.057 323.597 367.86C323.195 369.063 355.776 443.888 355.776 443.888L346.739 447.389C346.739 447.389 296.765 368.144 299.332 359.7C303.007 347.611 379.544 280.162 379.544 280.162L429.187 279.93Z" fill="#B28B67"/>
<path fill-rule="evenodd" clip-rule="evenodd" d="M353.398 432.622L338.643 437.977C307.531 402.979 295.336 374.102 297.56 359.389C299.783 344.676 377.496 279.983 377.496 279.983L430.245 279.983C428.445 330.554 332.623 368.053 331.342 370.208C330.06 372.363 342.673 393.469 353.398 432.622Z" fill="#2F3676"/>
<path fill-rule="evenodd" clip-rule="evenodd" d="M356.271 442.24C357.121 441.438 358.48 441.451 359.229 442.35C360.436 443.801 362.05 445.891 362.545 447.248C363.368 449.503 364.194 454.104 364.194 454.104C361.57 455.056 317.024 471.221 317.024 471.221C317.024 471.221 312.973 465.828 316.758 463.907C320.543 461.986 323.021 460.646 323.021 460.646L341.307 443.023C341.712 442.633 342.36 442.654 342.74 443.069L345.317 445.882C345.317 445.882 349.607 446.257 351.9 445.425C353.234 444.941 355.014 443.424 356.271 442.24Z" fill="#E4E4E4"/>
<path fill-rule="evenodd" clip-rule="evenodd" d="M417.3 279.93L463.354 390.159L508.618 483.349H497.939L381.101 279.93H417.3Z" fill="#997659"/>
<path fill-rule="evenodd" clip-rule="evenodd" d="M506.574 478.149C507.647 477.686 508.919 478.161 509.314 479.262C509.951 481.037 510.75 483.552 510.75 484.996C510.75 487.396 509.948 492 509.948 492C507.155 492 459.75 492 459.75 492C459.75 492 457.794 485.551 462.009 485.037C466.225 484.523 469.013 484.108 469.013 484.108L492.243 473.784C492.757 473.555 493.358 473.795 493.573 474.315L495.03 477.838C495.03 477.838 498.932 479.653 501.372 479.653C502.792 479.653 504.987 478.834 506.574 478.149Z" fill="#E4E4E4"/>
<path fill-rule="evenodd" clip-rule="evenodd" d="M504.53 463.99L480.801 468.426C462.454 441.533 385.669 331.263 377.25 279.93H430.077C458.191 317.038 487.041 436.652 504.53 463.99Z" fill="#5C63AB"/>
<path fill-rule="evenodd" clip-rule="evenodd" d="M302.217 253.245L335.946 263.33L327.329 277.639L301.106 262.258C288.863 261.535 283.079 260.333 283.753 258.652C284.322 257.234 285.674 256.992 286.919 256.769C287.89 256.596 288.795 256.434 289.215 255.737C290.174 254.144 286.816 250.002 283.461 246.207C280.106 242.412 282.792 242.234 284.414 242.538C289.992 244.794 295.926 248.363 302.217 253.245ZM448.164 257.104L465.826 251.301C482.064 282.053 491.553 298.833 494.295 301.639C496.305 303.697 507.703 308.235 515.315 310.471C518.37 311.368 518.047 313.889 517.292 314.776C512.53 320.368 507.328 319.251 501.665 318.036C500.026 317.684 498.348 317.324 496.63 317.116C492.186 316.578 491.145 318.951 490.161 321.193C489.29 323.178 488.463 325.061 485.36 324.731C485.424 324.124 485.512 323.442 485.606 322.705C486.216 317.946 487.115 310.926 484.056 307.288C482.485 305.421 470.522 288.693 448.164 257.104Z" fill="#B28B67"/>
<path fill-rule="evenodd" clip-rule="evenodd" d="M390.235 192.042L382.436 191.674C367.775 209.807 365.732 249.298 355.272 255.777C345.383 261.902 329.948 259.045 311.508 254.892L307.578 267.606C325.753 282.947 361.74 293.374 374.574 283.323C395.093 267.254 394.354 218.947 390.235 192.042Z" fill="#DB2721"/>
<path fill-rule="evenodd" clip-rule="evenodd" d="M435.285 283.658C435.285 283.658 389.343 289.299 367.697 291.957C364.609 292.336 364.645 287.819 364.816 285.52C366.789 258.994 383.475 228.613 378.95 191.755L398.071 186.313C417.371 210.189 426.856 241.339 435.285 283.658Z" fill="#DDE3E9"/>
<path fill-rule="evenodd" clip-rule="evenodd" d="M399.106 186.186L399.329 186.159C446.356 207.655 477.896 246.056 493.95 301.361L480.122 305.867C469.4 296.119 455.628 279.702 438.807 256.615C444.867 271.022 449.833 285.952 452.573 300.309L391.734 307.78C376.312 279.551 391.61 187.107 391.61 187.107L395.81 186.591L399.106 186.186Z" fill="#FF4133"/>
<path fill-rule="evenodd" clip-rule="evenodd" d="M233.164 188.709C233.164 188.714 233.163 188.719 233.162 188.726C233.163 188.72 233.162 188.7 233.164 188.709" fill="#C5CFD6"/>
<path fill-rule="evenodd" clip-rule="evenodd" d="M233.162 188.717C233.162 188.718 233.162 188.72 233.162 188.722C233.161 188.717 233.166 188.701 233.162 188.717" fill="#C5CFD6"/>
<path fill-rule="evenodd" clip-rule="evenodd" d="M233.175 188.627C233.173 188.648 233.169 188.668 233.166 188.69C233.167 188.679 233.169 188.67 233.171 188.66C233.133 188.937 233.156 188.757 233.175 188.627" fill="#C5CFD6"/>
<path fill-rule="evenodd" clip-rule="evenodd" d="M233.168 188.691C233.166 188.7 233.165 188.711 233.163 188.721C233.148 188.782 233.168 188.691 233.168 188.691" fill="#C5CFD6"/>
<path fill-rule="evenodd" clip-rule="evenodd" d="M233.163 188.717C233.162 188.716 233.162 188.716 233.163 188.715C233.162 188.716 233.162 188.716 233.163 188.717" fill="#C5CFD6"/>
<path fill-rule="evenodd" clip-rule="evenodd" d="M233.16 188.725C233.157 188.739 233.176 188.674 233.16 188.725Z" fill="#C5CFD6"/>
<path fill-rule="evenodd" clip-rule="evenodd" d="M233.162 188.717L233.163 188.715C233.163 188.716 233.163 188.717 233.162 188.717" fill="#C5CFD6"/>
<rect x="171.392" y="148.676" width="100" height="66" rx="4" transform="rotate(-14 171.392 148.676)" fill="#2B44FF"/>
<path fill-rule="evenodd" clip-rule="evenodd" d="M212.727 158.234L196.113 210.815L252.081 196.861L212.727 158.234Z" fill="black" fill-opacity="0.2"/>
<path fill-rule="evenodd" clip-rule="evenodd" d="M244.625 163.255L228.21 202.812L277.689 190.476L244.625 163.255Z" fill="black" fill-opacity="0.2"/>
<path fill-rule="evenodd" clip-rule="evenodd" d="M255.323 161.063C260.414 159.793 263.512 154.637 262.243 149.547C260.973 144.456 255.817 141.358 250.727 142.627C245.636 143.896 242.538 149.052 243.807 154.143C245.076 159.234 250.232 162.332 255.323 161.063Z" fill="white"/>
</g>
<defs>
<clipPath id="clip0_815_3465">
<rect width="533" height="493" fill="white"/>
</clipPath>
<clipPath id="clip1_815_3465">
<rect width="396" height="346" fill="white" transform="translate(69)"/>
</clipPath>
<clipPath id="clip2_815_3465">
<rect width="364" height="283" fill="white" transform="translate(85 43)"/>
</clipPath>
<clipPath id="clip3_815_3465">
<rect width="70" height="194" fill="white" transform="translate(379 132)"/>
</clipPath>
<clipPath id="clip4_815_3465">
<rect width="34" height="158" fill="white" transform="translate(397 150)"/>
</clipPath>
<clipPath id="clip5_815_3465">
<rect width="50" height="52" fill="white" transform="translate(389 58)"/>
</clipPath>
<clipPath id="clip6_815_3465">
<rect width="286" height="282" fill="white" transform="translate(85 43)"/>
</clipPath>
<clipPath id="clip7_815_3465">
<rect width="286" height="47" fill="white" transform="translate(85 43)"/>
</clipPath>
<clipPath id="clip8_815_3465">
<rect width="228" height="19" fill="white" transform="translate(94 57.1001)"/>
</clipPath>
<clipPath id="clip9_815_3465">
<rect width="286" height="39" fill="white" transform="translate(85 98)"/>
</clipPath>
<clipPath id="clip10_815_3465">
<rect width="228" height="16" fill="white" transform="translate(94 109.7)"/>
</clipPath>
<clipPath id="clip11_815_3465">
<rect width="286" height="39" fill="white" transform="translate(85 145)"/>
</clipPath>
<clipPath id="clip12_815_3465">
<rect width="228" height="16" fill="white" transform="translate(94 156.7)"/>
</clipPath>
<clipPath id="clip13_815_3465">
<rect width="286" height="39" fill="white" transform="translate(85 286)"/>
</clipPath>
<clipPath id="clip14_815_3465">
<rect width="228" height="16" fill="white" transform="translate(94 297.7)"/>
</clipPath>
<clipPath id="clip15_815_3465">
<rect width="286" height="39" fill="white" transform="translate(85 239)"/>
</clipPath>
<clipPath id="clip16_815_3465">
<rect width="228" height="16" fill="white" transform="translate(94 250.7)"/>
</clipPath>
<clipPath id="clip17_815_3465">
<rect width="286" height="39" fill="white" transform="translate(85 192)"/>
</clipPath>
<clipPath id="clip18_815_3465">
<rect width="228" height="16" fill="white" transform="translate(94 203.7)"/>
</clipPath>
</defs>
</svg>
