<svg width="1310" height="674" viewBox="0 0 1310 674" fill="none" xmlns="http://www.w3.org/2000/svg">
<rect width="1310" height="598" fill="#F7F8F9"/>
<path d="M1310 616.648H991.668C758.105 616.648 527.848 674 327.5 674C127.152 674 0 616.648 0 616.648V571H1310V616.648Z" fill="#F7F8F9"/>
<path d="M962.115 518.476C851.591 414.016 767.79 202.128 897.464 105.688C1017.69 16.2716 1058.51 137.778 1190.74 87.9726C1322.97 38.1667 1286.56 -160.004 1433.76 -188.242C1519.2 -204.631 1613.57 -148.302 1653.6 -42.204C1693.63 63.894 1679.34 219.761 1547.45 402.445C1422.86 575.012 1292.58 619.19 1185.42 612.643C1078.26 606.095 994.219 548.819 962.115 518.476Z" stroke="#13DAD4" stroke-opacity="0.3" stroke-width="2.10293" stroke-miterlimit="10"/>
<path d="M1532.86 400.455C1418.83 558.9 1299.31 600.248 1200.61 594.767C1102.57 589.165 1025.35 537.324 995 509.269C892.014 413.45 813.6 217.976 930.414 126.268C1038.27 41.5886 1076.86 148.404 1198.24 101.676C1201.69 100.334 1205.02 98.8884 1208.24 97.3443C1295.47 55.5648 1299.71 -58.7792 1362.24 -117.116C1379.21 -132.951 1400.42 -144.762 1428.61 -149.819C1509.71 -164.366 1596.71 -111.489 1633.11 -13.1592C1669.58 85.6973 1654.82 230.691 1532.86 400.455Z" stroke="#13DAD4" stroke-opacity="0.3" stroke-width="2.10293" stroke-miterlimit="10"/>
<path d="M1518.28 398.464C1414.79 542.789 1306.04 581.305 1215.8 576.892C1126.88 572.235 1056.39 525.923 1027.88 500.06C932.147 413.2 859.4 233.853 963.364 146.846C1058.85 66.934 1095.37 159.41 1205.73 115.378C1208.91 114.109 1211.98 112.727 1214.95 111.271C1295.3 72.0221 1302.6 -30.7527 1361.58 -82.4757C1377.68 -96.5989 1397.51 -107.108 1423.46 -111.398C1500.22 -124.085 1579.86 -74.676 1612.62 15.8856C1645.52 107.5 1630.3 241.62 1518.28 398.464Z" stroke="#13DAD4" stroke-opacity="0.3" stroke-width="2.10293" stroke-miterlimit="10"/>
<path d="M1503.69 396.474C1410.75 526.677 1312.75 562.59 1230.98 559.016C1151.18 555.528 1087.48 514.47 1060.77 490.852C972.454 412.771 905.19 249.772 996.313 167.425C1079.42 92.3196 1113.79 170.196 1213.23 129.08C1216.14 127.878 1218.94 126.566 1221.67 125.197C1295.13 88.4789 1305.51 -2.72019 1360.92 -47.8357C1376.16 -60.2448 1394.61 -69.4406 1418.31 -72.9764C1490.75 -83.7801 1563 -37.8643 1592.12 44.9291C1621.46 129.303 1605.78 252.55 1503.69 396.474Z" stroke="#13DAD4" stroke-opacity="0.3" stroke-width="2.10293" stroke-miterlimit="10"/>
<path d="M1489.1 394.484C1406.96 510.737 1319.48 543.713 1246.17 541.141C1175.49 538.659 1118.58 503.013 1093.65 481.644C1012.79 412.321 950.975 265.748 1029.26 188.005C1100 117.761 1132.21 180.954 1220.72 142.783C1223.36 141.646 1225.9 140.405 1228.38 139.124C1294.95 104.937 1308.45 25.3228 1360.25 -13.1951C1374.64 -23.8885 1391.7 -31.7551 1413.16 -34.5542C1481.3 -43.4433 1546.33 -1.11607 1571.63 73.9743C1597.6 151.04 1581.54 263.672 1489.1 394.484Z" stroke="#13DAD4" stroke-opacity="0.3" stroke-width="2.10293" stroke-miterlimit="10"/>
<path d="M1474.52 392.493C1402.96 494.651 1326.2 524.828 1261.35 523.264C1199.81 521.78 1149.69 491.55 1126.54 472.435C1053.15 411.843 996.766 281.802 1062.21 208.583C1120.58 143.276 1150.62 191.675 1228.22 156.485C1230.58 155.413 1232.86 154.243 1235.1 153.05C1294.78 121.393 1311.42 53.3826 1359.59 21.4445C1373.13 12.4705 1388.81 5.95043 1408.01 3.86702C1471.87 -3.06256 1529.51 35.6885 1551.14 103.018C1573.57 172.835 1557.07 274.636 1474.52 392.493Z" stroke="#13DAD4" stroke-opacity="0.3" stroke-width="2.10293" stroke-miterlimit="10"/>
<path d="M1459.93 390.502C1398.95 478.554 1332.94 505.93 1276.54 505.388C1224.12 504.885 1180.81 480.077 1159.42 463.226C1093.56 411.327 1042.59 297.967 1095.16 229.162C1141.21 168.895 1169.02 202.348 1235.71 170.188C1237.8 169.179 1239.82 168.083 1241.81 166.978C1294.61 137.851 1314.44 81.476 1358.93 56.0847C1371.63 48.8378 1385.93 43.6829 1402.86 42.2888C1462.45 37.3828 1512.67 72.4999 1530.65 132.062C1549.53 194.635 1532.59 285.59 1459.93 390.502Z" stroke="#13DAD4" stroke-opacity="0.3" stroke-width="2.10293" stroke-miterlimit="10"/>
<path d="M1445.34 388.513C1394.91 462.441 1339.67 487.011 1291.73 487.513C1248.44 487.967 1211.94 468.589 1192.31 454.019C1134.02 410.758 1085.06 312.055 1128.11 249.741C1164.85 196.555 1187.39 212.953 1243.21 183.89C1245.03 182.944 1246.78 181.923 1248.53 180.904C1294.44 154.308 1317.51 109.622 1358.27 90.7251C1370.15 85.2198 1383.04 81.4489 1397.71 80.7109C1453.05 77.9249 1495.81 109.319 1510.16 161.107C1525.48 216.444 1508.09 296.53 1445.34 388.513Z" stroke="#13DAD4" stroke-opacity="0.3" stroke-width="2.10293" stroke-miterlimit="10"/>
<path d="M1430.76 386.523C1390.84 446.305 1346.41 468.053 1306.91 469.638C1272.76 471.008 1243.09 457.076 1225.19 444.811C1174.54 410.108 1134.6 330.781 1161.06 270.32C1182.83 220.571 1205.73 223.463 1250.7 197.592C1252.25 196.706 1253.74 195.761 1255.24 194.831C1294.27 170.766 1320.62 137.858 1357.61 125.365C1368.68 121.627 1380.16 119.257 1392.56 119.133C1443.66 118.62 1478.93 146.146 1489.66 190.152C1501.4 238.261 1483.56 307.442 1430.76 386.523Z" stroke="#13DAD4" stroke-opacity="0.3" stroke-width="2.10293" stroke-miterlimit="10"/>
<path d="M1416.17 384.532C1386.72 430.13 1353.15 449.014 1322.1 451.762C1297.08 453.977 1274.28 445.515 1258.08 435.602C1215.14 409.331 1181.16 347.408 1194.01 290.899C1204.08 246.591 1223.98 233.836 1258.2 211.294C1259.46 210.462 1260.71 209.6 1261.95 208.757C1294.1 187.223 1323.76 166.233 1356.95 160.005C1367.21 158.078 1377.28 157.118 1387.41 157.553C1434.26 159.568 1462 182.982 1469.17 219.196C1477.27 260.089 1458.95 318.306 1416.17 384.532Z" stroke="#13DAD4" stroke-opacity="0.3" stroke-width="2.10293" stroke-miterlimit="10"/>
<path d="M1226.96 311.478C1225.8 270.818 1243.41 241.689 1268.67 222.685C1293.93 203.681 1326.84 194.803 1356.28 194.646C1416.71 194.325 1444.32 214.557 1448.68 248.241C1453.04 281.924 1434.16 329.059 1401.59 382.542C1369.02 436.025 1326.1 444.44 1290.96 426.395C1255.82 408.349 1228.45 363.842 1226.96 311.478Z" stroke="#13DAD4" stroke-opacity="0.3" stroke-width="2.10293" stroke-miterlimit="10"/>
</svg>
