<svg width="8" height="8" viewBox="0 0 8 8" fill="none" xmlns="http://www.w3.org/2000/svg">
<path d="M3.99935 0.666016C2.15935 0.666016 0.666016 2.15935 0.666016 3.99935C0.666016 5.83935 2.15935 7.33268 3.99935 7.33268C5.83935 7.33268 7.33268 5.83935 7.33268 3.99935C7.33268 2.15935 5.83935 0.666016 3.99935 0.666016ZM3.09602 5.42935L1.89935 4.23268C1.76935 4.10268 1.76935 3.89268 1.89935 3.76268C2.02935 3.63268 2.23935 3.63268 2.36935 3.76268L3.33268 4.72268L5.62602 2.42935C5.75602 2.29935 5.96602 2.29935 6.09602 2.42935C6.22602 2.55935 6.22602 2.76935 6.09602 2.89935L3.56602 5.42935C3.43935 5.55935 3.22602 5.55935 3.09602 5.42935Z" fill="#065F46"/>
</svg>
