<svg width="29" height="29" viewBox="0 0 29 29" fill="none" xmlns="http://www.w3.org/2000/svg">
<path d="M13.0508 2.90039C12.25 2.90039 11.6008 3.54958 11.6008 4.35039C11.6008 5.1512 12.25 5.80039 13.0508 5.80039H15.9508C16.7516 5.80039 17.4008 5.1512 17.4008 4.35039C17.4008 3.54958 16.7516 2.90039 15.9508 2.90039H13.0508Z" fill="#BC955A"/>
<path fill-rule="evenodd" clip-rule="evenodd" d="M5.80078 7.25039C5.80078 5.64877 7.09916 4.35039 8.70078 4.35039C8.70078 6.75283 10.6483 8.70039 13.0508 8.70039H15.9508C18.3532 8.70039 20.3008 6.75283 20.3008 4.35039C21.9024 4.35039 23.2008 5.64877 23.2008 7.25039V23.2004C23.2008 24.802 21.9024 26.1004 20.3008 26.1004H8.70078C7.09916 26.1004 5.80078 24.802 5.80078 23.2004V7.25039ZM19.8761 15.5257C20.4423 14.9594 20.4423 14.0413 19.8761 13.4751C19.3098 12.9088 18.3917 12.9088 17.8255 13.4751L13.0508 18.2498L11.1761 16.3751C10.6098 15.8088 9.69174 15.8088 9.12548 16.3751C8.55922 16.9413 8.55922 17.8594 9.12548 18.4257L12.0255 21.3257C12.5917 21.892 13.5098 21.892 14.0761 21.3257L19.8761 15.5257Z" fill="#BC955A"/>
</svg>
