<svg width="25" height="25" viewBox="0 0 25 25" fill="none" xmlns="http://www.w3.org/2000/svg">
<g clip-path="url(#clip0_245_8417)">
<path d="M12.5 25.0001C19.4035 25.0001 24.9999 19.4037 24.9999 12.5002C24.9999 5.59666 19.4035 0.000244141 12.5 0.000244141C5.59642 0.000244141 0 5.59666 0 12.5002C0 19.4037 5.59642 25.0001 12.5 25.0001Z" fill="#F0F0F0"/>
<path d="M12.4996 0C8.41011 0 4.77954 1.96401 2.49902 5H22.5C20.2196 1.96396 16.589 0 12.4996 0Z" fill="#0052B4"/>
<path d="M12.4996 24.9998C16.589 24.9998 20.2196 23.0357 22.5001 19.9998H2.49902C4.77949 23.0358 8.41011 24.9998 12.4996 24.9998Z" fill="#0052B4"/>
<path d="M0 12.5C0 13.3562 0.0863281 14.1922 0.250342 15H24.7497C24.9137 14.1922 25 13.3562 25 12.5C25 11.6438 24.9137 10.8078 24.7497 10H0.250342C0.0863281 10.8078 0 11.6438 0 12.5Z" fill="#0052B4"/>
<path d="M3.66112 3.66113C-1.22037 8.54263 -1.22037 16.4572 3.66112 21.3388C5.67836 19.3216 7.6184 17.3815 12.4999 12.5L3.66112 3.66113Z" fill="#D80027"/>
<path d="M5.05952 9.23926L5.8688 11.7302H8.48823L6.36924 13.2699L7.17852 15.7609L5.05952 14.2213L2.94043 15.7609L3.7499 13.2699L1.63086 11.7302H4.2501L5.05952 9.23926Z" fill="#F0F0F0"/>
</g>
<defs>
<clipPath id="clip0_245_8417">
<rect width="25" height="25" fill="white"/>
</clipPath>
</defs>
</svg>
