<svg width="1191" height="355" viewBox="0 0 1191 355" fill="none" xmlns="http://www.w3.org/2000/svg">
<path d="M1 83.2835L130.945 35H1190V263.542L958.098 334H1V83.2835Z" fill="#042F2D" stroke="#042F2D"/>
<g opacity="0.1">
<mask id="mask0_736_4432" style="mask-type:alpha" maskUnits="userSpaceOnUse" x="867" y="41" width="289" height="289">
<circle cx="1011.5" cy="185.5" r="142.507" fill="#C4C4C4" stroke="#F8BB54" stroke-width="3.98621"/>
</mask>
<g mask="url(#mask0_736_4432)">
<path d="M799.295 89.858C799.295 89.858 853.544 79.8088 867.541 44.637C880.927 10.9209 936.069 1.85815 936.069 1.85815" stroke="white" stroke-width="4.48062" stroke-miterlimit="10"/>
<path d="M799.295 106.763C799.295 106.763 865.85 95.1642 882.994 52.7138C899.339 12.1888 966.928 1.85815 966.928 1.85815" stroke="white" stroke-width="4.48062" stroke-miterlimit="10"/>
<path d="M799.295 123.715C799.295 123.715 878.109 110.52 898.4 60.8846C917.751 13.4099 997.787 1.85815 997.787 1.85815" stroke="white" stroke-width="4.48062" stroke-miterlimit="10"/>
<path d="M799.295 140.62C799.295 140.62 890.415 125.875 913.853 68.9615C936.163 14.6778 1028.65 1.85815 1028.65 1.85815" stroke="white" stroke-width="4.48062" stroke-miterlimit="10"/>
<path d="M799.295 157.525C799.295 157.525 902.721 141.23 929.306 77.0852C954.575 15.9457 1059.46 1.85815 1059.46 1.85815" stroke="white" stroke-width="4.48062" stroke-miterlimit="10"/>
<path d="M799.295 174.477C799.295 174.477 914.98 156.633 944.711 85.2088C973.034 17.1664 1090.32 1.85815 1090.32 1.85815" stroke="white" stroke-width="4.48062" stroke-miterlimit="10"/>
<path d="M799.295 191.382C799.295 191.382 927.286 171.941 960.164 93.3328C991.446 18.4343 1121.17 1.85815 1121.17 1.85815" stroke="white" stroke-width="4.48062" stroke-miterlimit="10"/>
<path d="M799.295 208.287C799.295 208.287 939.592 187.296 975.57 101.41C1009.86 19.7022 1152.03 1.85815 1152.03 1.85815" stroke="white" stroke-width="4.48062" stroke-miterlimit="10"/>
<path d="M799.295 225.239C799.295 225.239 951.851 202.699 991.023 109.58C1028.27 20.923 1182.85 1.85815 1182.85 1.85815" stroke="white" stroke-width="4.48062" stroke-miterlimit="10"/>
<path d="M799.295 242.142C799.295 242.142 964.157 218.054 1006.43 117.704C1046.68 22.1909 1213.7 1.85815 1213.7 1.85815" stroke="white" stroke-width="4.48062" stroke-miterlimit="10"/>
<path d="M799.295 259.094C799.295 259.094 976.463 233.409 1021.88 125.828C1065.09 23.4588 1244.56 1.85815 1244.56 1.85815" stroke="white" stroke-width="4.48062" stroke-miterlimit="10"/>
<path d="M799.295 276.001C799.295 276.001 988.722 248.765 1037.29 133.952C1083.51 24.6799 1275.42 1.85815 1275.42 1.85815" stroke="white" stroke-width="4.48062" stroke-miterlimit="10"/>
<path d="M799.295 292.904C799.295 292.904 1001.03 264.12 1052.74 142.028C1101.92 25.9478 1306.28 1.85815 1306.28 1.85815" stroke="white" stroke-width="4.48062" stroke-miterlimit="10"/>
<path d="M799.295 309.856C799.295 309.856 1013.33 279.476 1068.19 150.199C1120.33 27.2157 1337.09 1.85815 1337.09 1.85815" stroke="white" stroke-width="4.48062" stroke-miterlimit="10"/>
<path d="M799.295 326.762C799.295 326.762 1025.59 294.831 1083.6 158.276C1138.74 28.4364 1367.95 1.85815 1367.95 1.85815" stroke="white" stroke-width="4.48062" stroke-miterlimit="10"/>
<path d="M799.295 343.669C799.295 343.669 1037.9 310.186 1099.05 166.4C1157.15 29.7043 1398.81 1.85815 1398.81 1.85815" stroke="white" stroke-width="4.48062" stroke-miterlimit="10"/>
<path d="M799.295 360.621C799.295 360.621 1050.2 325.588 1114.46 174.524C1175.56 30.9722 1429.67 1.85815 1429.67 1.85815" stroke="white" stroke-width="4.48062" stroke-miterlimit="10"/>
<path d="M799.295 377.524C799.295 377.524 1062.46 340.897 1129.91 182.647C1193.98 32.193 1460.48 1.85815 1460.48 1.85815" stroke="white" stroke-width="4.48062" stroke-miterlimit="10"/>
</g>
</g>
<g clip-path="url(#clip0_736_4432)">
<path opacity="0.95" d="M731.466 65.3823H846.571C855.659 65.3823 863.038 72.7726 863.038 81.8748V197.162C863.038 206.264 855.659 213.654 846.571 213.654H731.466C722.379 213.654 715 206.264 715 197.162V81.8748C715 72.7726 722.379 65.3823 731.466 65.3823Z" fill="url(#paint0_linear_736_4432)"/>
<path d="M823.29 179.899H754.75V183.289H823.29V179.899Z" fill="#96BFE6"/>
<path d="M813.583 190.584H764.459V193.974H813.583V190.584Z" fill="#96BFE6"/>
<path opacity="0.95" d="M1070.6 116.808H906.792C896.078 116.808 887.393 125.507 887.393 136.238V335.57C887.393 346.301 896.078 355 906.792 355H1070.6C1081.31 355 1090 346.301 1090 335.57V136.238C1090 125.507 1081.31 116.808 1070.6 116.808Z" fill="url(#paint1_linear_736_4432)"/>
<path d="M995.327 257.327H979.256V260.307H995.327V257.327Z" fill="#4598E6"/>
<path d="M1011.76 284.639H918.25V290.41H1011.76V284.639Z" fill="#96BFE6"/>
<path d="M993.863 312.348H918.25V318.119H993.863V312.348Z" fill="#96BFE6"/>
<path d="M962.578 298.495H918.25V304.266H962.578V298.495Z" fill="#96BFE6"/>
<path d="M1036.22 140.561V143.476H1053.35V159.584H1056.26V140.561H1036.22ZM919.857 159.584H922.768V143.476H939.902V140.561H919.857V159.584ZM1053.35 242.695V258.808H1036.22V261.723H1056.26V242.695H1053.35ZM922.768 242.695H919.857V261.723H939.902V258.808H922.768V242.695Z" fill="#4598E6"/>
<path d="M1047.19 318.543C1037.74 318.543 1030.05 310.844 1030.05 301.379C1030.05 291.914 1037.74 284.215 1047.19 284.215C1056.64 284.215 1064.33 291.914 1064.33 301.379C1064.33 310.844 1056.64 318.543 1047.19 318.543ZM1047.19 287.538C1039.57 287.538 1033.37 293.747 1033.37 301.379C1033.37 309.011 1039.57 315.221 1047.19 315.221C1054.81 315.221 1061.01 309.011 1061.01 301.379C1061.01 293.747 1054.81 287.538 1047.19 287.538Z" fill="#4598E6"/>
<path d="M1046.1 308.134L1038.31 300.336L1040.66 297.989L1046.1 303.437L1053.72 295.799L1056.07 298.147L1046.1 308.134Z" fill="#4598E6"/>
<path opacity="0.95" d="M838.912 70.9258H739.129V156.674H838.912V70.9258Z" fill="url(#paint2_linear_736_4432)"/>
<path d="M827.133 123.127C823.847 114.421 815.952 110.421 812.224 109.176C810.897 108.735 808.528 107.959 806.03 107.149C801.528 105.693 796.611 104.108 796.611 104.108H781.082C781.082 104.108 775.705 105.912 769.991 107.919C769.991 107.925 769.985 107.925 769.985 107.925C764.72 109.775 759.177 111.79 757.305 112.732C753.401 114.683 746.833 128.64 745.506 130.239C744.821 131.063 741.773 136.499 738.775 142.571H755.506C757.274 139.53 758.635 137.171 758.635 137.171C758.635 137.171 759.693 139.496 760.976 142.571H814.574C815.421 139.001 815.949 134.501 815.949 134.501C815.949 134.501 818.82 138.411 821.952 142.571H837.4C833.645 136.258 828.98 128.041 827.13 123.127H827.133Z" fill="#385369"/>
<path d="M790.698 61.3654C790.698 61.3654 802.843 63.2825 800.993 82.3106C799.144 101.339 788.428 99.7813 787.709 99.7616C786.994 99.7419 776.952 100.107 776.169 76.874C776.169 76.874 775.826 59.6928 790.698 61.3654Z" fill="#EEA886"/>
<path d="M801.18 76.936C801.18 76.936 802.51 75.5137 802.999 76.9529C803.487 78.3922 801.185 84.8154 801.101 85.1162C801.101 85.1162 800.857 85.6756 800.54 85.3664C800.22 85.06 801.18 76.9332 801.18 76.9332V76.936Z" fill="#EEA886"/>
<path d="M776.494 76.697C776.494 76.697 775.192 75.2493 774.675 76.6802C774.159 78.111 776.317 84.5764 776.416 84.88C776.416 84.88 776.648 85.4422 776.971 85.1414C777.297 84.8407 776.494 76.697 776.494 76.697Z" fill="#EEA886"/>
<path d="M801.174 79.8566L799.437 82.1842C799.437 82.1842 799.485 77.0793 799.207 76.281C798.929 75.4798 798.502 73.037 798.267 72.4607C798.034 71.8845 787.84 69.0228 778.834 73.2956C778.834 73.2956 779.229 76.964 778.368 77.2929C777.506 77.619 777.927 83.2692 777.927 83.2692L776.499 81.6529C776.499 81.6529 774.312 67.0129 774.851 65.4865C775.39 63.9601 777.113 54.7876 795.586 60.2326C795.586 60.2326 801.345 59.0098 802.502 62.9931C803.658 66.9764 801.174 79.8566 801.174 79.8566Z" fill="#434343"/>
<path d="M798.119 103.768C798.113 103.751 796.561 103 796.561 103C795.803 101.305 796.367 94.1566 796.367 94.1566C796.367 94.1566 780.9 90.2126 781.344 93.2289C781.784 96.2424 780.01 103.248 780.01 103.248L772.076 107.194C772.076 107.194 780.53 129.93 790.246 126.995C799.963 124.063 803.631 106.373 803.631 106.373L798.122 103.765L798.119 103.768Z" fill="#EEA886"/>
<path d="M781.564 96.5796C781.564 96.5796 784.057 99.8011 788.382 99.8011C791.228 99.8011 793.268 99.0028 796.103 96.2339C796.103 96.2339 794.873 101.491 788.401 101.98C788.401 101.98 783.706 102.578 781.564 96.5796Z" fill="#A77860"/>
<path opacity="0.95" d="M891.118 10.4741H972.808C980.279 10.4741 986.344 16.5488 986.344 24.0319V95.0251C986.344 102.508 980.279 108.583 972.808 108.583H891.118C883.647 108.583 877.582 102.508 877.582 95.0251V24.0347C877.582 16.5516 883.647 10.4769 891.118 10.4769V10.4741Z" fill="url(#paint3_linear_736_4432)"/>
<path d="M935.864 90.0298H927.236V91.6293H935.864V90.0298Z" fill="#4598E6"/>
<path d="M939.349 1.88329C939.349 1.88329 946.298 5.70633 944.092 15.1065C941.886 24.5067 941.047 25.7464 942.841 29.5441C944.634 33.3418 946.208 49.258 944.297 52.1703C942.386 55.0825 922.998 37.9688 920.845 24.2762C918.69 10.5835 923.539 4.77024 925.26 2.60011C926.98 0.429971 933.219 -1.60523 939.349 1.8861V1.88329Z" fill="#344052"/>
<path d="M952.401 79.5669H944.961C944.601 75.8901 944.267 73.332 944.338 72.9525C944.447 72.3285 936.934 52.5864 936.232 50.9532C935.525 49.3256 932.772 44.946 932.412 40.8221C932.047 36.6983 937.416 35.0342 937.416 35.0342C944.663 36.3329 947.116 46.374 947.116 46.374C947.116 46.374 950.159 66.7317 951.697 72.4606C952.092 73.928 952.306 76.5254 952.401 79.5669Z" fill="#EEA886"/>
<path d="M948.657 51.2792L937.577 55.9596C937.577 55.9596 927.392 30.6432 935.929 33.4712C944.442 36.2878 948.27 41.5867 948.657 51.282V51.2792Z" fill="#EB4747"/>
<path d="M946.19 63.1981C945.867 65.7112 944.542 74.6138 944.837 77.0201C944.887 77.4164 945.05 78.33 945.297 79.5697H918.578C919.288 77.0285 919.936 74.7797 920.327 73.4725C921.623 69.1632 920.383 68.0078 919.726 64.5587C919.471 63.2093 918.572 60.6457 917.596 57.7475C917.267 56.7805 916.931 55.7713 916.608 54.7593C915.432 51.1106 914.887 47.3803 914.551 45.2073C912.94 34.9132 920.843 33.9238 920.843 33.9238C923.782 33.3812 928.912 31.793 928.912 31.793L936.95 33.4684C936.95 33.4684 937.716 33.7551 938.831 34.5815C938.831 34.5815 938.836 34.5815 938.836 34.5872C939.372 34.9835 939.993 35.5036 940.644 36.1754C941.522 37.0778 943.271 39.6639 945.016 42.5059C945.55 43.3773 946.086 44.2713 946.591 45.1511C948.224 47.9847 949.386 50.2672 949.35 52.845C949.319 55.3806 946.512 60.685 946.19 63.1981Z" fill="#EB4747"/>
<path d="M936.95 33.4713C936.95 33.4713 941.985 42.09 940.113 42.7337C938.241 43.3774 928.37 41.2017 924.514 33.058C924.514 33.058 930.991 30.1092 936.95 33.4713Z" fill="#EEA886"/>
<path d="M936.229 37.4066C936.229 37.4066 931.755 39.3012 927.705 33.0607C927.705 33.0607 928.794 25.974 926.493 21.8755C924.191 17.777 936.552 26.7892 936.552 26.7892C936.552 26.7892 936.352 27.6353 936.145 28.8806C936.038 29.5188 935.929 30.2609 935.847 31.0508C935.777 31.7086 935.724 32.3973 935.701 33.0832C935.651 34.677 935.763 36.2597 936.232 37.4038L936.229 37.4066Z" fill="#EEA886"/>
<path d="M925.121 47.0625C924.2 51.8076 917.593 57.7501 917.593 57.7501C917.268 56.7803 916.931 55.774 916.605 54.7648C921.163 51.8525 925.121 47.0653 925.121 47.0653V47.0625Z" fill="#393D63"/>
<path d="M923.464 50.8378C923.046 52.5666 921.118 70.0767 921.328 70.6754C921.452 71.0184 922.384 75.0691 923.318 79.5696H914.694C913.81 76.6686 913.288 74.2595 913.414 72.8962C913.964 66.9901 911.966 48.1617 911.966 48.1617C911.966 48.1617 910.175 36.7713 919.611 35.3489C919.611 35.3489 925.185 36.0826 925.522 40.2064C925.858 44.333 923.882 49.1146 923.464 50.8378Z" fill="#EEA886"/>
<path d="M911.27 53.2555L922.979 55.9962C922.979 55.9962 932.269 37.9324 923.902 34.6322C915.084 31.1549 909.154 43.4027 911.27 53.2555Z" fill="#EB4747"/>
<path d="M938.27 2.8841C938.27 2.8841 948.447 6.62562 941.997 24.2144C935.547 41.806 922.379 21.2122 924.369 10.4037C926.358 -0.404838 938.273 2.8841 938.273 2.8841H938.27Z" fill="#EEA987"/>
<path d="M943.556 13.5772C943.556 13.5772 938.184 18.3785 929.565 18.6033C929.565 18.6033 927.55 23.5227 927.225 25.0322C927.225 25.0322 918.709 10.3866 928.499 2.98791C938.291 -4.41079 947.171 10.5075 943.556 13.5772Z" fill="#344052"/>
<path d="M930.728 19.6577C930.722 18.3561 930.063 15.3595 928.095 16.096C926.128 16.8325 927.89 22.9522 929.187 22.643C929.187 22.643 930.742 22.7414 930.728 19.6577Z" fill="#EEA987"/>
<path d="M935.71 32.7852C930.927 31.4612 929.078 26.8933 929.021 26.7415C932.911 31.7761 935.844 31.0508 935.844 31.0508C935.774 31.7086 935.769 32.1162 935.71 32.7824V32.7852Z" fill="#A77860"/>
<path d="M957.814 28.2285V29.7943H967.012V38.4411H968.575V28.2285H957.814ZM895.35 38.4411H896.914V29.7943H906.111V28.2285H895.35V38.4411ZM967.012 83.0582V91.7078H957.814V93.2736H968.575V83.0582H967.012ZM896.911 83.0582H895.348V93.2736H906.108V91.7078H896.911V83.0582Z" fill="#4598E6"/>
<path d="M794.781 163.331H783.26V165.467H794.781V163.331Z" fill="#4598E6"/>
<path d="M823.549 80.7842V82.8728H835.837V94.4234H837.922V80.7842H823.549ZM740.117 94.4234H742.205V82.8728H754.493V80.7842H740.12V94.4234H740.117ZM835.837 154.018V165.571H823.549V167.66H837.922V154.015H835.837V154.018ZM742.205 154.018H740.117V167.663H754.49V165.574H742.203V154.021L742.205 154.018Z" fill="#4598E6"/>
<path d="M1046.4 241.357H1036.65C1036.48 240.967 1036.33 240.626 1036.21 240.354C1033.32 233.514 1018.42 217.832 1018.42 217.832V217.865C1018.42 217.865 1018.41 217.874 1018.41 217.882V217.899C1018.4 217.924 1018.39 217.941 1018.38 217.967C1018.37 218 1018.37 218.042 1018.35 218.096C1018.34 218.121 1018.33 218.155 1018.33 218.18C1018.32 218.205 1018.32 218.222 1018.31 218.248C1017.7 220.533 1014.7 231.918 1013.19 241.355H947.244C947.092 240.48 946.913 239.645 946.711 238.875C946.107 236.531 945.7 234.212 945.439 232.044C945.431 231.935 945.414 231.831 945.406 231.721C945.355 231.322 945.313 230.923 945.279 230.532C944.712 224.603 945.136 220.058 945.17 219.597C944.985 219.996 943.651 224.89 941.906 230.931C940.946 234.245 939.863 237.905 938.785 241.355H923.211L942.753 184.883C943.186 184.543 948.257 182.089 951.956 180.321C955.731 178.519 960.286 175.877 964.401 173.616C966.506 172.461 968.49 171.415 970.21 170.625L970.474 170.507V170.499C973.315 169.2 975.206 168.34 975.206 168.34H975.215C975.282 168.332 975.731 168.29 976.444 168.222C980.413 167.84 992.731 166.684 996.851 166.445C997.19 166.42 997.48 166.412 997.698 166.403C997.884 166.395 998.03 166.395 998.114 166.403C998.63 166.437 1001.18 167.32 1004.51 168.596C1004.64 168.638 1004.77 168.689 1004.89 168.739C1005.05 168.798 1005.21 168.857 1005.37 168.916C1005.66 169.026 1005.95 169.138 1006.25 169.257C1006.84 169.495 1007.46 169.732 1008.08 169.979C1008.29 170.063 1008.51 170.148 1008.73 170.235C1015.41 172.886 1023.06 176.172 1024.87 177.482C1026.08 178.339 1029.82 185.4 1034.15 194.134C1038.82 209.103 1044.53 230.701 1046.4 241.352L1046.4 241.357Z" fill="#DECBC4"/>
<path d="M998.004 164.492C997.827 173.372 980.665 178.229 980.665 178.229C980.665 178.229 973.485 169.214 975.2 168.351C975.874 168.011 976.146 166.668 976.23 165.158C976.309 163.722 976.216 162.136 976.132 161.13C976.081 160.503 976.034 160.098 976.034 160.098C976.034 160.098 978.487 157.506 981.605 154.42C987.058 149.02 994.552 142.105 994.563 144.857C994.563 145.003 994.543 145.177 994.498 145.379C993.182 151.572 998.001 164.497 998.001 164.497L998.004 164.492Z" fill="#EEA886"/>
<path d="M991.393 151.479C991.359 151.533 990.632 152.624 989.389 154.189C986.754 157.509 981.8 162.963 976.232 165.152C976.31 163.716 976.218 162.131 976.133 161.124C975.564 161.11 974.994 161.043 974.43 160.919C975.956 158.249 978.162 155.446 978.162 155.446L981.609 154.414L991.398 151.479H991.393Z" fill="#A77860"/>
<path d="M994.687 144.972C993.202 148.207 991.793 150.552 991.392 151.482C991.131 152.089 990.424 153.076 989.388 154.192C986.559 157.245 981.302 161.27 976.133 161.13C975.563 161.116 974.993 161.048 974.429 160.924C972.341 160.469 969.877 159.496 968.521 156.837C957.814 135.839 965.566 118.666 965.566 118.666C965.566 118.666 994.847 110.373 999.427 119.2C1002.64 125.393 998.178 137.371 994.69 144.972H994.687Z" fill="#EEA886"/>
<path d="M965.565 118.663C965.565 118.663 962.846 118.511 962.175 113.347C961.51 108.245 962.854 106.831 962.854 106.831C962.854 106.831 974.942 101.763 979.284 101.105C983.626 100.448 994.3 99.8122 996.8 102.679C996.8 102.679 1002.88 101.266 1004.54 111.371C1007.16 127.406 995.582 142.976 995.582 142.976C995.582 142.976 995.68 132.499 993.373 131.113C991.066 129.725 989.076 133.025 989.076 133.025L984.358 133.871C984.358 133.871 991.524 118.374 982.927 117.8C974.33 117.227 970.488 119.563 965.565 118.663Z" fill="#E8734D"/>
<path d="M989.202 128.85C989.651 124.235 997.984 122.472 997.425 127.31C996.867 132.148 992.764 136.794 990.869 136.631C988.975 136.468 988.86 132.367 989.202 128.85Z" fill="#EEA886"/>
<path d="M1037.98 194.573C1035.26 185.864 1032.91 178.974 1031.87 178.227C1030.05 176.919 1015.59 172.933 1008.73 170.24C1008.51 170.156 1008.29 170.072 1008.08 169.985C1007.46 169.737 1006.84 169.501 1006.24 169.262C1005.95 169.144 1005.65 169.032 1005.36 168.922C1005.2 168.863 1005.05 168.804 1004.89 168.745C1004.76 168.694 1004.63 168.644 1004.51 168.602C1004.5 168.61 1004.49 168.627 1004.47 168.635C1003.86 169.324 1000.69 172.933 996.897 178.336C989.804 188.428 980.568 204.783 981.985 219.881C982.443 224.724 983.004 231.682 983.944 239.488C984.012 240.109 984.087 240.728 984.174 241.357H1016.17C1016.56 233.186 1017.26 222.419 1018.31 218.25C1018.32 218.225 1018.33 218.208 1018.33 218.183C1018.33 218.158 1018.34 218.124 1018.35 218.099C1018.36 218.056 1018.38 218.014 1018.38 217.969C1018.39 217.944 1018.4 217.927 1018.41 217.902V217.885L1018.42 217.868C1018.42 217.868 1026.16 229.992 1026.56 241.357H1046.7C1045.71 230.796 1042.63 209.516 1037.98 194.573Z" fill="#3C4145"/>
<path d="M970.34 170.735C970.34 170.735 967.923 178.789 964.802 198.899V198.908C964.693 199.579 964.589 200.268 964.479 200.971C964.471 201.047 964.454 201.131 964.446 201.218C964.37 201.676 964.303 202.154 964.232 202.629C964.224 202.688 964.216 202.739 964.207 202.798C964.157 203.113 964.106 203.436 964.064 203.765C963.946 204.555 963.826 205.37 963.708 206.194C962.537 214.399 960.977 227.443 959.391 241.357H946.744C946.057 237.492 945.414 233.975 945.465 231.561C945.439 231.611 945.423 231.67 945.406 231.724C944.395 234.526 943.284 237.576 942.156 240.542C942.055 240.815 941.954 241.085 941.85 241.357H920.051L941.766 184.462C942.198 184.121 947.789 181.105 951.485 179.348C955.344 177.504 960.222 175.236 964.547 173.24C966.615 172.278 968.56 171.387 970.205 170.631L970.34 170.732V170.735Z" fill="#3C4145"/>
<path d="M999.747 190.632L991.392 195.355L994.962 199L987.126 241.36H984.173C983.087 232.798 982.467 225.11 981.984 219.884C979.803 196.538 1003.06 170.21 1004.5 168.604C1005.62 169.029 1006.83 169.496 1008.07 169.99L999.744 190.635L999.747 190.632Z" fill="#51565C"/>
<path d="M970.465 170.513C970.465 170.513 967.345 180.717 963.713 206.194C962.542 214.391 960.974 227.443 959.388 241.357H958.158L956.539 201.333L960.516 197.019L956.98 192.591L964.546 173.237C966.615 172.276 968.56 171.384 970.204 170.628L970.468 170.51L970.465 170.513Z" fill="#51565C"/>
<path d="M1004.93 168.703L998.005 164.492C998.005 164.492 997.812 168.295 980.666 178.229L985.535 191.967L1004.93 168.705V168.703Z" fill="#F5E2D9"/>
<path d="M976.102 166.406C976.102 166.406 976.372 170.51 980.663 178.227L971.16 190.635L970.467 170.51L976.102 166.406Z" fill="#F5E2D9"/>
<path d="M980.69 178.227C980.69 178.227 982.531 185.606 981.869 187.672C981.869 187.672 977.819 189.148 974.908 187.303C974.908 187.303 976.971 182.14 980.69 178.229V178.227Z" fill="#D44040"/>
<path d="M978.457 203.315C976.515 216.57 976.515 229.975 977.236 241.357H969.119C969.01 239.752 968.906 238.077 968.805 236.328C967.295 210.084 976.557 186.637 976.557 186.637L980.688 185.6C980.688 185.6 979.358 197.196 978.457 203.313V203.315Z" fill="#D44040"/>
<path d="M945.723 219.667C945.414 225.964 945.459 231.555 945.459 231.555C945.459 231.589 945.451 231.761 945.437 232.042C945.423 231.935 945.411 231.831 945.397 231.727C944.393 234.529 943.276 237.577 942.153 240.542C941.892 237.104 941.825 233.903 941.9 230.934C942.352 213.278 947.895 204.021 947.895 204.021C946.624 207.099 946.015 213.699 945.723 219.667Z" fill="#2D3133"/>
<g opacity="0.95">
<path d="M1057.62 100.664H1066.08L1063.49 95.2864H1055.03L1057.62 100.664Z" fill="url(#paint4_linear_736_4432)"/>
<path d="M1053.66 100.664H1055.67L1053.09 95.2864H1051.07L1053.66 100.664Z" fill="url(#paint5_linear_736_4432)"/>
<path d="M1024.43 94.2576H1058.69L1057.55 91.5674H1023.29L1024.43 94.2576Z" fill="url(#paint6_linear_736_4432)"/>
</g>
<path d="M827.53 4.11255H840.465C840.9 4.11255 841.257 4.46674 841.257 4.90527V7.70227C841.257 8.13798 840.903 8.49499 840.465 8.49499H827.53C827.095 8.49499 826.738 8.14079 826.738 7.70227V4.90527C826.738 4.46955 827.092 4.11255 827.53 4.11255Z" fill="url(#paint7_linear_736_4432)"/>
<path d="M840.461 14.6204H827.528C827.091 14.6204 826.736 14.9753 826.736 15.4131V18.2101C826.736 18.6479 827.091 19.0028 827.528 19.0028H840.461C840.898 19.0028 841.252 18.6479 841.252 18.2101V15.4131C841.252 14.9753 840.898 14.6204 840.461 14.6204Z" fill="url(#paint8_linear_736_4432)"/>
<path d="M827.529 25.1252H840.462C840.897 25.1252 841.253 25.4794 841.253 25.918V28.715C841.253 29.1507 840.899 29.5077 840.462 29.5077H827.526C827.091 29.5077 826.734 29.1535 826.734 28.715V25.918C826.734 25.4794 827.088 25.1252 827.526 25.1252H827.529Z" fill="url(#paint9_linear_736_4432)"/>
<path d="M848.036 4.11255H850.584C851.019 4.11255 851.375 4.46674 851.375 4.90527V7.70227C851.375 8.13798 851.022 8.49499 850.584 8.49499H848.036C847.601 8.49499 847.244 8.14079 847.244 7.70227V4.90527C847.244 4.46955 847.598 4.11255 848.036 4.11255Z" fill="url(#paint10_linear_736_4432)"/>
<path d="M848.036 14.6204H850.584C851.019 14.6204 851.375 14.9746 851.375 15.4131V18.2101C851.375 18.6458 851.022 19.0028 850.584 19.0028H848.036C847.601 19.0028 847.244 18.6486 847.244 18.2101V15.4131C847.244 14.9774 847.598 14.6204 848.036 14.6204Z" fill="url(#paint11_linear_736_4432)"/>
<path d="M848.04 25.1252H850.588C851.023 25.1252 851.379 25.4794 851.379 25.918V28.715C851.379 29.1507 851.026 29.5077 850.588 29.5077H848.04C847.604 29.5077 847.248 29.1535 847.248 28.715V25.918C847.248 25.4794 847.602 25.1252 848.04 25.1252Z" fill="url(#paint12_linear_736_4432)"/>
</g>
<defs>
<linearGradient id="paint0_linear_736_4432" x1="799.591" y1="331.463" x2="787.997" y2="121.603" gradientUnits="userSpaceOnUse">
<stop stop-color="#D1D7E0"/>
<stop offset="1" stop-color="#EBEBFF"/>
</linearGradient>
<linearGradient id="paint1_linear_736_4432" x1="988.694" y1="389.972" x2="988.694" y2="173.915" gradientUnits="userSpaceOnUse">
<stop stop-color="#D1D7E0"/>
<stop offset="1" stop-color="#EBEBFF"/>
</linearGradient>
<linearGradient id="paint2_linear_736_4432" x1="789.019" y1="256.551" x2="789.019" y2="98.5697" gradientUnits="userSpaceOnUse">
<stop stop-color="#D1D7E0"/>
<stop offset="1" stop-color="#EBEBFF"/>
</linearGradient>
<linearGradient id="paint3_linear_736_4432" x1="931.963" y1="122.989" x2="931.963" y2="33.9971" gradientUnits="userSpaceOnUse">
<stop stop-color="#D1D7E0"/>
<stop offset="1" stop-color="#EBEBFF"/>
</linearGradient>
<linearGradient id="paint4_linear_736_4432" x1="1055.03" y1="97.9737" x2="1066.08" y2="97.9737" gradientUnits="userSpaceOnUse">
<stop stop-color="#D1D7E0"/>
<stop offset="1" stop-color="#EBEBFF"/>
</linearGradient>
<linearGradient id="paint5_linear_736_4432" x1="1051.07" y1="97.9737" x2="1055.67" y2="97.9737" gradientUnits="userSpaceOnUse">
<stop stop-color="#D1D7E0"/>
<stop offset="1" stop-color="#EBEBFF"/>
</linearGradient>
<linearGradient id="paint6_linear_736_4432" x1="1023.29" y1="92.9139" x2="1058.69" y2="92.9139" gradientUnits="userSpaceOnUse">
<stop stop-color="#D1D7E0"/>
<stop offset="1" stop-color="#EBEBFF"/>
</linearGradient>
<linearGradient id="paint7_linear_736_4432" x1="826.738" y1="6.30517" x2="841.254" y2="6.30517" gradientUnits="userSpaceOnUse">
<stop stop-color="#D1D7E0"/>
<stop offset="1" stop-color="#EBEBFF"/>
</linearGradient>
<linearGradient id="paint8_linear_736_4432" x1="826.736" y1="16.8102" x2="841.252" y2="16.8102" gradientUnits="userSpaceOnUse">
<stop stop-color="#D1D7E0"/>
<stop offset="1" stop-color="#EBEBFF"/>
</linearGradient>
<linearGradient id="paint9_linear_736_4432" x1="826.737" y1="27.3179" x2="841.253" y2="27.3179" gradientUnits="userSpaceOnUse">
<stop stop-color="#D1D7E0"/>
<stop offset="1" stop-color="#EBEBFF"/>
</linearGradient>
<linearGradient id="paint10_linear_736_4432" x1="847.247" y1="6.30517" x2="851.375" y2="6.30517" gradientUnits="userSpaceOnUse">
<stop stop-color="#D1D7E0"/>
<stop offset="1" stop-color="#EBEBFF"/>
</linearGradient>
<linearGradient id="paint11_linear_736_4432" x1="847.247" y1="16.8102" x2="851.375" y2="16.8102" gradientUnits="userSpaceOnUse">
<stop stop-color="#D1D7E0"/>
<stop offset="1" stop-color="#EBEBFF"/>
</linearGradient>
<linearGradient id="paint12_linear_736_4432" x1="847.248" y1="27.3179" x2="851.377" y2="27.3179" gradientUnits="userSpaceOnUse">
<stop stop-color="#D1D7E0"/>
<stop offset="1" stop-color="#EBEBFF"/>
</linearGradient>
<clipPath id="clip0_736_4432">
<rect width="375" height="355" fill="white" transform="translate(715)"/>
</clipPath>
</defs>
</svg>
