<svg width="15" height="15" viewBox="0 0 15 15" fill="none" xmlns="http://www.w3.org/2000/svg">
<path fill-rule="evenodd" clip-rule="evenodd" d="M15 7.5C15 11.6421 11.6421 15 7.5 15C3.35786 15 0 11.6421 0 7.5C0 3.35786 3.35786 0 7.5 0C11.6421 0 15 3.35786 15 7.5ZM8.4375 3.75C8.4375 4.26777 8.01777 4.6875 7.5 4.6875C6.98223 4.6875 6.5625 4.26777 6.5625 3.75C6.5625 3.23223 6.98223 2.8125 7.5 2.8125C8.01777 2.8125 8.4375 3.23223 8.4375 3.75ZM6.5625 6.5625C6.04473 6.5625 5.625 6.98223 5.625 7.5C5.625 8.01777 6.04473 8.4375 6.5625 8.4375V11.25C6.5625 11.7678 6.98223 12.1875 7.5 12.1875H8.4375C8.95527 12.1875 9.375 11.7678 9.375 11.25C9.375 10.7322 8.95527 10.3125 8.4375 10.3125V7.5C8.4375 6.98223 8.01777 6.5625 7.5 6.5625H6.5625Z" fill="#9CA3AF"/>
</svg>
