<svg width="28" height="28" viewBox="0 0 28 28" fill="none" xmlns="http://www.w3.org/2000/svg">
<path fill-rule="evenodd" clip-rule="evenodd" d="M7.00019 12.6V9.80005C7.00019 5.93406 10.1342 2.80005 14.0002 2.80005C17.8662 2.80005 21.0002 5.93406 21.0002 9.80005V12.6C22.5466 12.6 23.8002 13.8537 23.8002 15.4V22.4001C23.8002 23.9464 22.5466 25.2001 21.0002 25.2001H7.00019C5.4538 25.2001 4.2002 23.9464 4.2002 22.4001V15.4C4.2002 13.8537 5.4538 12.6 7.00019 12.6ZM18.2002 9.80005V12.6H9.80019V9.80005C9.80019 7.48045 11.6806 5.60005 14.0002 5.60005C16.3198 5.60005 18.2002 7.48045 18.2002 9.80005Z" fill="#059669"/>
</svg>
