<svg width="48" height="48" viewBox="0 0 48 48" fill="none" xmlns="http://www.w3.org/2000/svg">
<rect width="48" height="48" rx="6" fill="#B0B0B0"/>
<path d="M33 24C33 28.9706 28.9706 33 24 33M33 24C33 19.0294 28.9706 15 24 15M33 24H15M24 33C19.0294 33 15 28.9706 15 24M24 33C25.6569 33 27 28.9706 27 24C27 19.0294 25.6569 15 24 15M24 33C22.3431 33 21 28.9706 21 24C21 19.0294 22.3431 15 24 15M15 24C15 19.0294 19.0294 15 24 15" stroke="white" stroke-width="2" stroke-linecap="round" stroke-linejoin="round"/>
</svg>
