<svg width="421" height="326" viewBox="0 0 421 326" fill="none" xmlns="http://www.w3.org/2000/svg">
<g clip-path="url(#clip0_506_19608)">
<path d="M28.1146 289.41H417.211C429.889 289.41 407.201 296.03 399.76 303.455C392.319 310.881 392.76 313.975 374.265 319.596C334.48 331.685 317.459 308.022 254.297 317.339C227.383 321.304 193.072 328.891 165.996 324.861C143.201 321.465 137.663 305.927 120.437 304.669C93.9856 302.735 80.7921 304.637 56.663 303.455C35.9856 302.445 -4.96063 289.41 28.1146 289.41Z" fill="url(#paint0_linear_506_19608)"/>
<path d="M325.214 289.41C323.966 246.609 333.655 194.663 367.386 165.187C372.805 160.459 379.418 154.355 387.106 154.914C390.687 155.172 392.45 159.266 392.988 162.296C393.945 167.712 393.009 173.279 391.687 178.619C384.386 208.095 360.3 259.687 354.138 289.421" fill="url(#paint1_linear_506_19608)"/>
<path d="M382.043 166.294C375.592 174.589 369.99 183.498 365.226 192.858C360.775 201.583 357.033 210.664 353.936 219.97C351.086 228.534 348.796 237.281 347.043 246.125C345.549 253.658 344.463 261.288 343.796 268.95C343.28 274.903 342.979 280.921 343.28 286.895C343.312 287.497 343.355 288.088 343.388 288.69C343.409 289.066 343.99 289.066 343.979 288.69C343.732 283.005 344.043 277.235 344.463 271.572C345.011 264.114 345.979 256.699 347.334 249.349C348.925 240.666 351.011 232.08 353.635 223.645C356.517 214.382 360.033 205.301 364.237 196.554C368.742 187.184 374.022 178.179 380.076 169.711C380.828 168.647 381.603 167.605 382.388 166.562C382.527 166.369 382.205 166.111 382.054 166.304L382.043 166.294Z" fill="#92D0FF"/>
<path d="M354.148 289.41C358.665 261.707 363.407 239.087 379.288 215.951C385.826 206.43 398.407 194.663 408.428 195.63C419.17 196.673 411.546 212.899 405.17 225.01C396.665 241.172 390.471 258.741 387.536 276.762C388.417 271.335 392.191 255.872 403.331 249.005C406.6 246.985 414.643 245.814 414.643 252.498C414.643 264.254 403.213 278.374 400.353 289.399" fill="url(#paint2_linear_506_19608)"/>
<path d="M404.977 204.001C402.278 207.397 400.041 211.158 397.912 214.93C394.955 220.163 392.289 225.568 389.772 231.027C386.934 237.174 384.299 243.417 381.891 249.747C379.482 256.076 377.256 262.577 375.407 269.143C373.794 274.882 372.407 280.727 371.751 286.659C371.676 287.304 371.622 287.949 371.579 288.593C371.557 288.873 371.977 288.862 372.009 288.593C372.708 282.812 373.966 277.095 375.482 271.475C377.224 265.038 379.332 258.698 381.633 252.444C383.934 246.19 386.579 239.732 389.375 233.52C391.88 227.954 394.557 222.463 397.45 217.079C399.6 213.071 401.869 209.084 404.547 205.398C404.805 205.044 405.063 204.7 405.332 204.356C405.525 204.109 405.181 203.754 404.977 204.001Z" fill="#92D0FF"/>
<path d="M408.278 253.336C404.859 256.699 402.321 260.826 400.256 265.124C397.923 269.981 396.17 275.096 394.74 280.287C393.912 283.274 393.213 286.294 392.654 289.346C392.59 289.679 393.084 289.818 393.16 289.485C395.471 279.287 398.213 268.832 403.805 259.88C405.192 257.656 406.751 255.539 408.579 253.658C408.783 253.454 408.471 253.142 408.267 253.347L408.278 253.336Z" fill="#92D0FF"/>
<path d="M100.107 289.41C93.5689 235.412 98.3216 211.878 104.472 196.92C107.343 189.945 111.461 183.047 117.289 178.125C140.623 158.449 139.913 196.705 138.816 208.3C136.322 234.713 129.698 262.954 129.096 289.41" fill="url(#paint3_linear_506_19608)"/>
<path d="M79.0826 289.41C78.3407 272.421 70.76 255.851 61.0933 242.139C51.3729 228.352 38.0073 217.348 29.2546 202.873C24.5665 195.114 17.1471 182.918 28.1148 176.556C40.2761 169.496 58.1471 176.9 67.932 184.959C78.5665 193.728 85.5665 206.161 91.3944 218.433C101.706 240.108 103.771 265.414 103.932 289.421" fill="url(#paint4_linear_506_19608)"/>
<path d="M81.396 289.41C81.439 272.12 72.6325 253.863 58.7078 240.355C49.611 231.532 38.7293 223.258 26.3207 219.615C19.8798 217.724 1.87984 214.737 0.0733863 225.429C-0.614786 229.48 3.05188 237.099 11.8153 244.041C24.0089 253.691 57.6863 268.692 61.7508 289.399" fill="url(#paint5_linear_506_19608)"/>
<path d="M8.33067 226.149C13.2877 227.513 18.1049 229.372 22.7393 231.586C27.9221 234.068 32.8898 237.002 37.5672 240.333C42.5672 243.901 47.2446 247.952 51.4274 252.455C55.6102 256.957 59.5672 262.287 62.6317 267.875C65.6963 273.463 68.1909 280.029 69.6748 286.519C69.8683 287.358 70.0403 288.207 70.2016 289.055C70.2554 289.346 70.6963 289.217 70.6425 288.937C69.5565 282.253 67.4274 275.806 64.3629 269.766C61.4597 264.039 57.7715 258.72 53.535 253.905C49.4382 249.252 44.8253 245.062 39.8683 241.343C34.9113 237.625 30.0619 234.692 24.7608 232.048C20.0619 229.706 15.1694 227.728 10.1371 226.245C9.56723 226.073 8.99734 225.912 8.42744 225.762C8.18013 225.697 8.0726 226.073 8.31992 226.138L8.33067 226.149Z" fill="#92D0FF"/>
<path d="M33.9234 183.444C39.0201 186.163 43.6545 189.698 47.8911 193.621C53.0094 198.349 57.59 203.657 61.6761 209.299C66.375 215.789 70.4287 222.753 73.8696 229.985C77.7621 238.173 80.8911 246.727 83.2567 255.474C85.8804 265.189 87.4503 275.086 88.418 285.09C88.547 286.39 88.6546 287.691 88.7513 288.991C88.7836 289.474 89.5363 289.485 89.5148 288.991C89.0739 278.761 87.504 268.574 85.0309 258.644C82.8051 249.725 79.8158 240.989 76.0094 232.607C72.6115 225.117 68.5685 217.906 63.8588 211.147C59.7836 205.301 55.2029 199.767 50.0416 194.835C45.7513 190.73 41.0416 186.99 35.8804 184.035C35.3105 183.713 34.7298 183.39 34.1384 183.09C33.9126 182.971 33.7083 183.315 33.9341 183.433L33.9234 183.444Z" fill="#92D0FF"/>
<path d="M125.989 177.684C123.268 184.111 121.129 190.762 119.376 197.511C117.494 204.764 116.053 212.114 114.924 219.518C113.795 226.922 112.924 234.606 112.311 242.192C111.699 249.779 111.322 257.355 111.129 264.942C110.957 272.088 110.849 279.255 111.107 286.391C111.139 287.261 111.172 288.121 111.204 288.991C111.225 289.421 111.871 289.421 111.871 288.991C111.849 281.952 111.785 274.914 111.924 267.875C112.075 260.353 112.397 252.831 112.935 245.33C113.473 237.83 114.247 230.082 115.322 222.495C116.397 214.908 117.699 207.773 119.419 200.52C121.139 193.266 123.053 186.818 125.559 180.199C125.849 179.425 126.15 178.652 126.462 177.878C126.57 177.62 126.107 177.416 126 177.684H125.989Z" fill="#92D0FF"/>
<path d="M64.914 289.41C62.8279 280.083 60.9892 270.357 55.4301 262.32C51.7957 257.065 44.3763 249.736 37.7634 249.854C32.8495 249.94 31.7419 254.658 32.3118 258.913C33.8064 270.046 39.9892 273.452 42.3871 285.488C41.1935 280.932 33.8279 265.135 27.3548 271.174C20.2473 277.815 30.8495 289.41 30.8495 289.41" fill="url(#paint6_linear_506_19608)"/>
<path d="M29.9884 274.248C31.8379 276.461 33.6336 278.729 35.2143 281.147C36.9347 283.79 38.2358 286.541 39.3755 289.464C39.4831 289.743 39.8917 289.636 39.8272 289.335C39.1605 286.294 37.4616 283.392 35.7304 280.835C33.9992 278.277 32.225 276.139 30.2573 273.957C30.0852 273.775 29.8272 274.043 29.9884 274.226V274.248Z" fill="#92D0FF"/>
<path d="M40.215 256.839C44.0537 260.772 46.8709 265.672 49.2902 270.562C51.5375 275.107 53.4408 279.803 55.1827 284.564C55.7849 286.197 56.344 287.841 56.9569 289.475C57.0644 289.754 57.4945 289.646 57.4085 289.346C56.3332 285.67 54.9892 282.071 53.5376 278.535C51.43 273.366 49.0322 268.283 46.0214 263.577C44.4193 261.062 42.6021 258.655 40.473 256.549C40.301 256.377 40.0214 256.646 40.2042 256.818L40.215 256.839Z" fill="#92D0FF"/>
<path d="M254.516 201.369H256.666" stroke="#B3D3F4" stroke-miterlimit="10"/>
<path d="M260.956 201.368H376.095C394.902 201.368 410.138 186.131 410.138 167.347C410.138 148.563 394.891 133.325 376.095 133.325H116.525C106.547 133.325 98.4609 125.244 98.4609 115.272C98.4609 105.299 106.547 97.2185 116.525 97.2185H334.622C343.45 97.2185 350.611 90.0617 350.611 81.2393C350.611 72.4169 343.45 65.2601 334.622 65.2601H135.052C130.192 65.2601 126.257 61.327 126.257 56.4699C126.257 51.6127 130.192 47.6797 135.052 47.6797H188.784" stroke="#B3D3F4" stroke-miterlimit="10"/>
<path d="M190.922 47.6692H193.072" stroke="#B3D3F4" stroke-miterlimit="10"/>
<path d="M206.817 19.246C196.731 17.5481 187.172 24.3396 185.473 34.4193C184.419 40.6304 186.613 46.6374 190.806 50.7424L188.301 55.8145L193.914 53.1924C195.914 54.4497 198.183 55.3416 200.656 55.75C210.742 57.4478 220.301 50.6564 222 40.5767C223.699 30.497 216.903 20.9438 206.817 19.246Z" fill="#F3FAFF"/>
<path d="M195.471 46.1861L193.557 43.8972C192.815 43.016 192.934 41.6943 193.826 40.9635L196.031 39.126C196.912 38.3845 198.235 38.5027 198.966 39.3946C198.966 39.3946 199.988 40.9206 201.181 40.6519C202.536 40.3403 205.493 38.1803 207.084 36.5147C208.203 35.3434 206.321 33.2587 206.321 33.2587C205.579 32.3775 205.697 31.0558 206.59 30.3251L208.794 28.4875C209.676 27.746 210.998 27.8642 211.729 28.7561L213.643 31.045C217.955 36.2138 199.235 50.6994 195.471 46.1968V46.1861Z" fill="#B3D3F4"/>
<path d="M287.525 47.3146C290.267 44.6819 291.406 41.9739 295.191 41.1357C295.965 40.9638 296.783 40.8671 297.449 40.448C299.288 39.3089 298.912 36.6976 299.331 34.6344C300.148 30.5724 305.46 27.9934 309.363 29.788C310.998 30.5402 312.471 31.9157 314.277 31.7975C317.89 31.5503 317.449 27.1015 319.922 24.5655C322.256 22.1691 326.998 21.8575 330.03 23.3727C332.094 24.415 333.955 25.8872 335.342 27.6925C336.804 29.5946 336.74 32.5282 337.826 34.6237C338.858 36.6439 341.331 37.5251 342.406 39.5238C343.342 41.2539 343.632 43.0915 342.869 44.9183C341.331 48.6149 336.804 51.2799 332.707 51.2799H277.32C277.32 51.2799 284.482 50.259 287.535 47.3361L287.525 47.3146Z" fill="#F3FAFF"/>
<path d="M154.87 21.0192C152.548 18.7948 151.591 16.5059 148.397 15.7966C147.741 15.6462 147.053 15.571 146.483 15.2164C144.924 14.2492 145.247 12.0463 144.892 10.3055C144.204 6.86675 139.709 4.69606 136.419 6.21124C135.042 6.84525 133.784 8.01656 132.268 7.9091C129.214 7.70493 129.58 3.94385 127.494 1.79466C125.526 -0.236328 121.516 -0.494231 118.956 0.784537C117.204 1.66571 115.645 2.91224 114.462 4.42742C113.225 6.02856 113.279 8.51088 112.365 10.284C111.494 11.9926 109.408 12.734 108.494 14.4212C107.709 15.8826 107.462 17.43 108.107 18.9774C109.408 22.1045 113.236 24.3612 116.698 24.3612H163.516C163.516 24.3612 157.462 23.5015 154.881 21.0192H154.87Z" fill="#F3FAFF"/>
<path d="M370.803 71.5467L338.266 54.149L346.825 28.7349L386.427 49.2167L370.803 71.5467Z" fill="#CFE0F5"/>
<path d="M386.43 49.2166L346.828 28.7348L375.065 22.7063L386.43 49.2166Z" fill="#CFE0F5"/>
<path d="M383.421 45.1132L351.719 28.7114L337.857 55.47L369.56 71.8718L383.421 45.1132Z" fill="#FFF4E1"/>
<path d="M346.826 28.7349L333.504 54.4607L359.493 52.7521L346.826 28.7349Z" fill="#E6F1FC"/>
<path d="M386.428 49.2166L373.105 74.9531L359.492 52.752L386.428 49.2166Z" fill="#E6F1FC"/>
<g style="mix-blend-mode:multiply">
<path d="M373.106 74.9531L333.504 54.4606L363.611 44.929L373.106 74.9531Z" fill="#E6F1FC"/>
</g>
<path d="M373.106 74.9531L333.504 54.4606L361.73 48.4429L373.106 74.9531Z" fill="#E6F1FC"/>
<path d="M109.665 82.3034L83.1601 88.9444L75.2031 70.7408L107.128 62.2837L109.665 82.3034Z" fill="#CFE0F5"/>
<path d="M107.128 62.2836L75.2031 70.7407L87.687 53.3967L107.128 62.2836Z" fill="#CFE0F5"/>
<path d="M103.434 61.5354L77.875 68.3032L83.595 89.8781L109.154 83.1103L103.434 61.5354Z" fill="#FFF4E1"/>
<path d="M75.2031 70.7407L80.7085 91.4804L94.1063 77.6181L75.2031 70.7407Z" fill="#E6F1FC"/>
<path d="M107.127 62.2837L112.632 83.0341L94.1055 77.6182L107.127 62.2837Z" fill="#E6F1FC"/>
<g style="mix-blend-mode:multiply">
<path d="M112.632 83.0341L80.707 91.4805L92.4705 71.2781L112.632 83.0341Z" fill="#E6F1FC"/>
</g>
<path d="M112.632 83.0341L80.707 91.4804L93.1909 74.1365L112.632 83.0341Z" fill="#E6F1FC"/>
<path d="M214 46.0788L214.989 44.5422C214.989 44.5422 214.71 43.4461 214.71 42.0598C214.71 41.4473 214.914 39.8139 215.161 39.6742C215.409 39.5345 215.516 41.0497 215.624 40.996C215.731 40.9423 216.516 37.9656 216.968 38.0086C217.194 38.0301 216.419 40.91 216.419 40.91C216.419 40.91 217.183 37.7829 217.527 37.8904C217.871 37.9979 217.043 40.9852 217.043 40.9852C217.043 40.9852 217.774 38.1483 218.075 38.245C218.376 38.3417 217.602 41.0927 217.602 41.0927C217.602 41.0927 218.333 38.6319 218.495 38.7716C218.742 38.9865 218.462 40.6736 217.753 43.0592C217.634 43.4783 217.032 44.843 217 44.9505C216.968 45.058 216.29 47.5403 216.29 47.5403" fill="#FC8975"/>
<path d="M215.676 41.329C215.945 41.7804 216.224 42.2639 216.353 42.769C216.493 43.3385 216.342 43.8758 216.181 44.4239C216.16 44.5098 216.278 44.5636 216.332 44.4883C216.622 43.9725 216.74 43.3815 216.611 42.7905C216.482 42.1995 216.149 41.7374 215.805 41.2646C215.751 41.1893 215.644 41.2646 215.687 41.3398L215.676 41.329Z" fill="#CC6658"/>
<path d="M180.172 231.146C180.172 231.146 185.925 233.241 185.957 234.939C185.979 235.917 177.613 235.884 177.097 235.24C176.258 234.208 177.71 231.35 177.71 231.35L180.172 231.135V231.146Z" fill="#352E72"/>
<path d="M180.042 226.396L180.171 231.285C180.171 231.285 179.988 232.081 179.138 232.188C178.289 232.295 177.708 231.35 177.708 231.35L177.461 225.235" fill="#FC8975"/>
<path d="M183.977 117.539C183.977 117.539 187.106 136.527 185.536 172.956C184.461 197.833 181.095 227.911 179.869 227.943C178.633 227.975 177.536 227.825 177.536 227.825C177.536 227.825 169.697 191.772 169.16 171.473C168.343 140.213 160.084 133.035 163.665 116.787" fill="url(#paint7_linear_506_19608)"/>
<path d="M180.664 225.955L180.438 228.115L176.997 228.212L176.836 226.063L180.664 225.955Z" fill="#75A1E9"/>
<path d="M162.43 231.629C162.43 231.629 168.183 233.725 168.215 235.422C168.236 236.4 159.871 236.368 159.355 235.723C158.516 234.692 159.968 231.833 159.968 231.833L162.43 231.618V231.629Z" fill="#352E72"/>
<path d="M162.311 226.89L162.44 231.78C162.44 231.78 162.257 232.575 161.408 232.682C160.558 232.79 159.978 231.844 159.978 231.844L159.73 225.73" fill="#FC8975"/>
<path d="M173.826 117.819C173.826 117.819 172.353 141.965 170.493 169.84C169.762 180.855 163.429 226.89 162.536 228.416C161.3 228.448 159.407 228.502 159.407 228.502C159.407 228.502 154.644 188.656 154.117 168.357C153.3 137.097 149.934 133.315 153.504 117.067" fill="url(#paint8_linear_506_19608)"/>
<path d="M163.019 226.439L162.783 228.599L159.353 228.696L159.191 226.546L163.019 226.439Z" fill="#75A1E9"/>
<path d="M173.075 130.037C173.075 130.037 171.86 160.889 169.602 178.963" stroke="#4A578E" stroke-width="0.5" stroke-miterlimit="10"/>
<path d="M177.118 53.5257C175.161 50.0655 169.839 50.592 166.796 52.1717C162.484 54.4176 161.462 60.8114 157.43 63.5517C155.645 64.766 153.494 65.4752 152.064 67.1086C150.398 69.0106 150.075 71.9013 150.903 74.2976C151.742 76.7047 153.591 78.639 155.731 79.9392C157.871 81.2395 160.301 81.9702 162.742 82.5398C166.624 83.4317 170.763 83.9152 174.538 82.6042C178.312 81.2932 181.581 77.7793 181.57 73.7066C181.559 70.2571 179.29 67.0441 179.688 63.6161" fill="#081466"/>
<path d="M214.302 44.9075C214.302 44.9075 204.001 59.6724 201.647 63.0359C197.98 68.2584 182.926 69.2685 174.883 74.0398L169.302 74.6415C166.657 75.1788 157.507 81.6909 156.647 84.3021C154.69 90.2876 152.722 96.3483 152.378 102.645C152.259 104.784 152.324 106.922 152.399 109.061C152.496 112.156 152.604 115.25 152.7 118.335C152.7 118.539 152.722 118.764 152.84 118.926C152.969 119.098 153.195 119.162 153.41 119.205C163.517 121.537 174.044 120.28 184.324 119.012C184.679 118.969 185.066 118.915 185.335 118.657C185.657 118.345 185.69 117.851 185.711 117.41C185.765 115.433 185.657 113.456 185.571 111.479C185.227 102.925 185.539 94.3389 186.474 85.8281C189.657 83.8293 202.84 79.6921 207.249 73.5454C217.12 59.7799 217.12 45.606 217.12 45.606L214.302 44.9075Z" fill="url(#paint9_linear_506_19608)"/>
<path d="M174.893 74.0291L174.689 66.969L171.56 67.3988L169.312 74.5664C169.312 74.5664 170.345 76.0493 172.657 75.7269C174.657 75.4476 174.893 74.0291 174.893 74.0291Z" fill="#FC8975"/>
<path d="M168.204 64.0782C168.042 61.3058 168.86 58.3399 170.322 56.7065C171.784 55.0839 174.516 54.8474 176.526 55.1161C177.214 55.2128 177.903 55.4385 178.44 55.8898C180.43 57.5447 180.301 61.3487 180.161 63.6806C180.042 65.6579 179.462 67.6566 178.225 69.1933C177.838 69.6769 177.365 70.1174 176.795 70.3539C174.892 71.1491 172.182 70.7085 170.559 69.4297C168.978 68.1724 168.311 66.0555 168.204 64.0782Z" fill="#FC8975"/>
<path d="M167.31 66.3134C166.579 66.6572 165.428 66.9044 164.858 66.0984C164.396 65.4537 164.805 64.4866 164.955 63.7988C165.471 61.5637 166.127 59.3715 166.891 57.2115C167.289 56.094 167.719 54.9764 168.418 54.0307C169.772 52.1609 173.622 51.3013 175.891 51.5162C178.375 51.355 182.342 55.4062 180.17 60.113C179.848 58.9631 179.396 59.0598 178.547 58.082C177.729 58.8987 176.59 59.35 175.45 59.4467C173.944 59.5864 172.203 59.2425 171.106 60.2956C169.977 61.3702 170.213 63.3045 169.396 64.6477C168.923 65.4215 168.138 65.9373 167.332 66.3134H167.31Z" fill="#081466"/>
<path d="M169.893 64.5511C169.99 63.9064 169.581 63.498 169.162 63.455C168.022 63.3368 167.678 65.1314 168.119 65.9481C168.452 66.5499 169.28 67.0549 169.71 66.3242" fill="#FC8975"/>
<path d="M171.807 68.7636C171.527 68.7421 171.248 68.6991 170.968 68.6239C170.334 68.4627 169.441 68.0866 168.828 67.2269C168.603 66.9153 168.495 66.6144 168.484 66.3243C168.484 66.249 168.538 66.1953 168.613 66.1846C168.689 66.1846 168.742 66.2383 168.742 66.3135C168.742 66.5499 168.85 66.7971 169.033 67.0657C169.603 67.8717 170.431 68.2156 171.033 68.366C171.828 68.5702 172.689 68.5379 173.431 68.495C173.506 68.495 173.56 68.5487 173.57 68.6239C173.57 68.6991 173.517 68.7636 173.452 68.7636C172.947 68.7958 172.388 68.8173 171.828 68.7636H171.807Z" fill="#081466"/>
<path d="M174.012 68.3015C173.797 68.1833 173.518 68.1833 173.281 68.2585C172.453 68.5271 173.345 69.591 174.098 69.0429C174.163 69 174.216 68.9462 174.249 68.8818C174.356 68.6776 174.227 68.4197 174.012 68.3015Z" fill="#081466"/>
<path d="M166.312 59.8981C166.506 58.0605 167.183 55.9543 168.313 54.5144C169.764 52.6661 171.7 51.1401 173.56 51.1401C175.119 51.1401 175.893 51.5055 175.893 51.5055C173.979 51.9676 172.334 52.9025 170.818 54.5036C169.302 56.1048 168.409 58.3077 168.366 60.5321" fill="#75A1E9"/>
<path d="M171.011 62.9607C171.226 65.0454 169.871 66.8937 167.978 67.0979C166.097 67.302 164.398 65.7761 164.183 63.6914C163.968 61.6067 165.322 59.7584 167.215 59.5542C169.097 59.35 170.795 60.876 171.011 62.9607Z" fill="#75A1E9"/>
<path d="M169.397 63.2937C169.548 64.7229 168.666 65.9802 167.429 66.1199C166.193 66.2489 165.085 65.1958 164.935 63.7773C164.784 62.3481 165.666 61.0908 166.902 60.9511C168.139 60.8222 169.247 61.8753 169.397 63.2937Z" fill="#2D4CBA"/>
<path d="M237.86 57.1577L122.602 158.019V296.728H353.129V158.019L237.86 57.1577Z" fill="url(#paint10_linear_506_19608)"/>
<path d="M341.472 92.6409H134.246V282.414H341.472V92.6409Z" fill="url(#paint11_linear_506_19608)"/>
<path d="M329.612 117.292H146.117V133.497H329.612V117.292Z" fill="white"/>
<path d="M329.612 141.094H146.117V157.299H329.612V141.094Z" fill="white"/>
<path d="M329.612 164.886H146.117V261.245H329.612V164.886Z" fill="white"/>
<path d="M156.39 126.774H155.235L153.372 123.534H153.346C153.383 124.106 153.401 124.514 153.401 124.758V126.774H152.59V122.491H153.735L155.596 125.699H155.616C155.587 125.142 155.572 124.749 155.572 124.518V122.491H156.39V126.774ZM161.358 124.626C161.358 125.335 161.183 125.88 160.831 126.261C160.479 126.642 159.976 126.833 159.319 126.833C158.663 126.833 158.159 126.642 157.808 126.261C157.456 125.88 157.28 125.333 157.28 124.621C157.28 123.908 157.456 123.364 157.808 122.989C158.161 122.612 158.667 122.423 159.325 122.423C159.983 122.423 160.486 122.613 160.834 122.992C161.184 123.371 161.358 123.916 161.358 124.626ZM158.232 124.626C158.232 125.105 158.323 125.465 158.505 125.708C158.687 125.95 158.958 126.071 159.319 126.071C160.044 126.071 160.406 125.589 160.406 124.626C160.406 123.662 160.046 123.179 159.325 123.179C158.964 123.179 158.691 123.301 158.508 123.545C158.324 123.788 158.232 124.148 158.232 124.626ZM164.06 126.774L163.028 123.414H163.002C163.039 124.097 163.058 124.553 163.058 124.782V126.774H162.246V122.491H163.482L164.496 125.766H164.514L165.589 122.491H166.825V126.774H165.979V124.747C165.979 124.651 165.979 124.541 165.981 124.416C165.985 124.291 165.999 123.958 166.022 123.419H165.996L164.892 126.774H164.06ZM152.59 130.491H153.923C154.53 130.491 154.971 130.578 155.244 130.751C155.52 130.923 155.657 131.198 155.657 131.575C155.657 131.831 155.597 132.041 155.476 132.205C155.356 132.369 155.197 132.467 154.998 132.5V132.53C155.27 132.59 155.465 132.704 155.584 132.87C155.705 133.036 155.766 133.256 155.766 133.532C155.766 133.922 155.624 134.227 155.341 134.446C155.06 134.665 154.677 134.774 154.192 134.774H152.59V130.491ZM153.498 132.187H154.025C154.271 132.187 154.449 132.149 154.559 132.073C154.67 131.997 154.726 131.871 154.726 131.695C154.726 131.531 154.665 131.414 154.544 131.343C154.425 131.271 154.235 131.235 153.976 131.235H153.498V132.187ZM153.498 132.908V134.024H154.09C154.34 134.024 154.524 133.976 154.644 133.88C154.763 133.785 154.822 133.638 154.822 133.441C154.822 133.085 154.568 132.908 154.061 132.908H153.498ZM157.529 132.392H157.822C158.109 132.392 158.321 132.344 158.458 132.249C158.595 132.153 158.663 132.002 158.663 131.797C158.663 131.594 158.593 131.45 158.452 131.364C158.313 131.278 158.098 131.235 157.805 131.235H157.529V132.392ZM157.529 133.13V134.774H156.621V130.491H157.869C158.451 130.491 158.882 130.597 159.161 130.81C159.44 131.021 159.58 131.342 159.58 131.774C159.58 132.026 159.511 132.25 159.372 132.448C159.233 132.643 159.037 132.796 158.783 132.908C159.428 133.871 159.848 134.493 160.043 134.774H159.035L158.013 133.13H157.529ZM163.049 134.774H160.582V130.491H163.049V131.235H161.49V132.175H162.94V132.919H161.49V134.024H163.049V134.774Z" fill="#EAC38F"/>
<path d="M155.057 151.124H152.59V146.841H155.057V147.585H153.498V148.526H154.948V149.27H153.498V150.374H155.057V151.124ZM157.767 151.124L156.735 147.764H156.709C156.746 148.448 156.765 148.904 156.765 149.132V151.124H155.953V146.841H157.189L158.203 150.116H158.221L159.296 146.841H160.532V151.124H159.686V149.097C159.686 149.001 159.687 148.891 159.688 148.766C159.692 148.641 159.706 148.309 159.729 147.77H159.703L158.599 151.124H157.767ZM164.235 151.124L163.925 150.105H162.363L162.053 151.124H161.074L162.586 146.823H163.696L165.214 151.124H164.235ZM163.708 149.343C163.421 148.419 163.259 147.897 163.222 147.776C163.187 147.655 163.161 147.559 163.146 147.489C163.081 147.739 162.896 148.357 162.592 149.343H163.708ZM165.756 151.124V146.841H166.664V151.124H165.756ZM167.742 151.124V146.841H168.65V150.374H170.388V151.124H167.742Z" fill="#EAC38F"/>
<path d="M154.403 174.905L153.372 171.545H153.346C153.383 172.228 153.401 172.684 153.401 172.913V174.905H152.59V170.622H153.826L154.84 173.897H154.857L155.933 170.622H157.169V174.905H156.322V172.878C156.322 172.782 156.323 172.672 156.325 172.547C156.329 172.422 156.343 172.09 156.366 171.551H156.34L155.235 174.905H154.403ZM160.717 174.905H158.25V170.622H160.717V171.366H159.158V172.306H160.608V173.051H159.158V174.155H160.717V174.905ZM165.413 174.905H164.259L162.396 171.665H162.369C162.406 172.237 162.425 172.645 162.425 172.889V174.905H161.613V170.622H162.759L164.619 173.83H164.64C164.61 173.273 164.596 172.88 164.596 172.649V170.622H165.413V174.905ZM169.022 173.716C169.022 174.102 168.883 174.407 168.604 174.63C168.326 174.852 167.939 174.964 167.443 174.964C166.986 174.964 166.582 174.878 166.23 174.706V173.862C166.52 173.991 166.764 174.082 166.963 174.135C167.164 174.187 167.348 174.214 167.514 174.214C167.713 174.214 167.865 174.176 167.971 174.099C168.078 174.023 168.132 173.91 168.132 173.76C168.132 173.676 168.108 173.601 168.062 173.537C168.015 173.47 167.945 173.407 167.854 173.346C167.764 173.286 167.579 173.189 167.3 173.056C167.038 172.933 166.842 172.815 166.711 172.702C166.58 172.589 166.476 172.457 166.397 172.306C166.319 172.156 166.28 171.98 166.28 171.779C166.28 171.4 166.408 171.102 166.664 170.885C166.922 170.669 167.277 170.56 167.73 170.56C167.953 170.56 168.165 170.587 168.366 170.639C168.569 170.692 168.781 170.766 169.002 170.862L168.709 171.568C168.48 171.474 168.291 171.409 168.141 171.372C167.992 171.335 167.846 171.316 167.701 171.316C167.529 171.316 167.397 171.356 167.306 171.436C167.214 171.516 167.168 171.621 167.168 171.75C167.168 171.83 167.187 171.9 167.224 171.961C167.261 172.019 167.319 172.077 167.399 172.134C167.481 172.188 167.674 172.288 167.977 172.432C168.377 172.624 168.651 172.816 168.8 173.01C168.948 173.201 169.022 173.436 169.022 173.716ZM172.421 174.905L172.11 173.885H170.549L170.238 174.905H169.26L170.771 170.604H171.882L173.399 174.905H172.421ZM171.894 173.124C171.606 172.2 171.444 171.677 171.407 171.556C171.372 171.435 171.347 171.34 171.331 171.269C171.267 171.519 171.082 172.137 170.777 173.124H171.894ZM173.493 176.165C173.288 176.165 173.109 176.143 172.957 176.1V175.344C173.113 175.384 173.256 175.403 173.385 175.403C173.584 175.403 173.727 175.341 173.812 175.216C173.898 175.093 173.941 174.899 173.941 174.635V170.622H174.85V174.63C174.85 175.13 174.735 175.51 174.507 175.772C174.278 176.034 173.94 176.165 173.493 176.165ZM178.395 174.905H175.928V170.622H178.395V171.366H176.836V172.306H178.286V173.051H176.836V174.155H178.395V174.905Z" fill="#EAC38F"/>
<path d="M216.838 103.597C216.325 103.597 215.928 103.791 215.647 104.177C215.366 104.561 215.225 105.097 215.225 105.786C215.225 107.218 215.763 107.935 216.838 107.935C217.289 107.935 217.836 107.822 218.477 107.596V108.739C217.95 108.958 217.361 109.068 216.711 109.068C215.776 109.068 215.061 108.786 214.566 108.22C214.071 107.652 213.823 106.837 213.823 105.777C213.823 105.109 213.945 104.524 214.188 104.023C214.431 103.52 214.78 103.134 215.234 102.868C215.691 102.598 216.226 102.463 216.838 102.463C217.462 102.463 218.089 102.614 218.719 102.916L218.279 104.023C218.039 103.909 217.798 103.81 217.554 103.725C217.311 103.64 217.072 103.597 216.838 103.597ZM225.68 105.759C225.68 106.823 225.416 107.64 224.889 108.211C224.361 108.783 223.606 109.068 222.621 109.068C221.637 109.068 220.881 108.783 220.354 108.211C219.826 107.64 219.563 106.82 219.563 105.75C219.563 104.681 219.826 103.865 220.354 103.303C220.884 102.737 221.643 102.455 222.63 102.455C223.617 102.455 224.372 102.739 224.893 103.307C225.418 103.875 225.68 104.693 225.68 105.759ZM220.991 105.759C220.991 106.477 221.127 107.018 221.4 107.381C221.672 107.744 222.079 107.926 222.621 107.926C223.708 107.926 224.252 107.204 224.252 105.759C224.252 104.312 223.711 103.588 222.63 103.588C222.088 103.588 221.679 103.771 221.404 104.138C221.129 104.501 220.991 105.042 220.991 105.759ZM232.711 108.98H230.98L228.185 104.12H228.145C228.201 104.979 228.229 105.591 228.229 105.957V108.98H227.011V102.556H228.73L231.52 107.368H231.551C231.507 106.533 231.485 105.942 231.485 105.597V102.556H232.711V108.98ZM236.811 108.98H235.449V103.689H233.704V102.556H238.556V103.689H236.811V108.98ZM243.478 108.98L243.012 107.451H240.67L240.204 108.98H238.736L241.004 102.529H242.669L244.945 108.98H243.478ZM242.687 106.309C242.256 104.923 242.013 104.139 241.957 103.958C241.904 103.776 241.866 103.632 241.843 103.527C241.746 103.902 241.469 104.829 241.012 106.309H242.687ZM241.113 102.042V101.923C241.617 101.337 241.962 100.896 242.146 100.6H243.649V100.692C243.497 100.845 243.236 101.072 242.867 101.374C242.501 101.672 242.214 101.895 242.006 102.042H241.113ZM248.487 103.597C247.975 103.597 247.578 103.791 247.297 104.177C247.015 104.561 246.875 105.097 246.875 105.786C246.875 107.218 247.412 107.935 248.487 107.935C248.939 107.935 249.485 107.822 250.127 107.596V108.739C249.599 108.958 249.01 109.068 248.36 109.068C247.425 109.068 246.711 108.786 246.215 108.22C245.72 107.652 245.473 106.837 245.473 105.777C245.473 105.109 245.594 104.524 245.838 104.023C246.081 103.52 246.429 103.134 246.883 102.868C247.34 102.598 247.875 102.463 248.487 102.463C249.111 102.463 249.738 102.614 250.368 102.916L249.929 104.023C249.689 103.909 249.447 103.81 249.204 103.725C248.961 103.64 248.722 103.597 248.487 103.597ZM253.976 108.98H252.614V103.689H250.869V102.556H255.721V103.689H253.976V108.98ZM260.643 108.98L260.177 107.451H257.835L257.369 108.98H255.901L258.169 102.529H259.834L262.11 108.98H260.643ZM259.852 106.309C259.421 104.923 259.178 104.139 259.122 103.958C259.069 103.776 259.031 103.632 259.008 103.527C258.911 103.902 258.634 104.829 258.177 106.309H259.852ZM234.495 120.98H232.764L229.969 116.12H229.929C229.985 116.979 230.013 117.591 230.013 117.957V120.98H228.796V114.556H230.514L233.304 119.368H233.335C233.291 118.533 233.269 117.942 233.269 117.597V114.556H234.495V120.98ZM241.948 117.759C241.948 118.823 241.685 119.64 241.157 120.211C240.63 120.783 239.874 121.068 238.89 121.068C237.905 121.068 237.15 120.783 236.622 120.211C236.095 119.64 235.831 118.82 235.831 117.75C235.831 116.681 236.095 115.865 236.622 115.303C237.152 114.737 237.911 114.455 238.899 114.455C239.886 114.455 240.64 114.739 241.162 115.307C241.686 115.875 241.948 116.693 241.948 117.759ZM237.259 117.759C237.259 118.477 237.396 119.018 237.668 119.381C237.941 119.744 238.348 119.926 238.89 119.926C239.977 119.926 240.52 119.204 240.52 117.759C240.52 116.312 239.98 115.588 238.899 115.588C238.357 115.588 237.948 115.771 237.673 116.138C237.397 116.501 237.259 117.042 237.259 117.759ZM247.072 119.196C247.072 119.776 246.863 120.233 246.444 120.567C246.028 120.901 245.448 121.068 244.704 121.068C244.018 121.068 243.412 120.939 242.884 120.682V119.416C243.318 119.609 243.684 119.746 243.983 119.825C244.285 119.904 244.56 119.943 244.809 119.943C245.108 119.943 245.337 119.886 245.495 119.772C245.656 119.658 245.736 119.488 245.736 119.262C245.736 119.136 245.701 119.025 245.631 118.928C245.561 118.829 245.457 118.733 245.319 118.643C245.184 118.552 244.907 118.407 244.488 118.208C244.096 118.023 243.801 117.846 243.605 117.676C243.409 117.506 243.252 117.308 243.135 117.083C243.018 116.857 242.959 116.593 242.959 116.292C242.959 115.723 243.151 115.276 243.535 114.951C243.922 114.626 244.455 114.463 245.134 114.463C245.468 114.463 245.786 114.503 246.088 114.582C246.393 114.661 246.711 114.772 247.042 114.916L246.602 115.975C246.259 115.834 245.975 115.736 245.75 115.681C245.527 115.625 245.307 115.597 245.09 115.597C244.833 115.597 244.635 115.657 244.497 115.777C244.36 115.897 244.291 116.054 244.291 116.248C244.291 116.368 244.319 116.473 244.374 116.564C244.43 116.652 244.518 116.738 244.638 116.823C244.761 116.905 245.049 117.055 245.504 117.271C246.104 117.559 246.516 117.847 246.738 118.137C246.961 118.424 247.072 118.777 247.072 119.196Z" fill="#EAC38F"/>
<g style="mix-blend-mode:multiply" opacity="0.55">
<path d="M237.86 246.082L122.602 158.019V282.414H353.129V158.019L237.86 246.082Z" fill="#C9D3F4"/>
</g>
<path d="M237.86 260.417L122.602 158.019V296.728H353.129V158.019L237.86 260.417Z" fill="url(#paint12_linear_506_19608)"/>
<g style="mix-blend-mode:multiply" opacity="0.35">
<path d="M237.86 188.129L122.602 296.728H353.129L237.86 188.129Z" fill="#C9D3F4"/>
</g>
<path d="M237.86 198.714L122.602 296.728H353.129L237.86 198.714Z" fill="url(#paint13_linear_506_19608)"/>
<path d="M313.257 303.455C310.923 291.301 313.364 278.825 318.214 268.445C321.396 261.653 328.708 252.186 336.88 252.326C342.956 252.433 345.493 258.537 345.848 264.028C346.773 278.428 339.999 282.823 340.031 298.383C340.375 292.483 346.074 273.345 354.988 279.878C363.719 286.272 355.214 303.455 355.214 303.455" fill="url(#paint14_linear_506_19608)"/>
<path d="M352.482 283.586C350.708 286.444 349.116 289.399 347.826 292.505C346.407 295.933 345.202 299.715 345.148 303.455C345.148 303.713 345.568 303.788 345.611 303.519C346.148 299.812 346.976 296.266 348.364 292.773C349.6 289.668 351.159 286.68 352.815 283.779C352.944 283.564 352.611 283.371 352.482 283.586Z" fill="#92D0FF"/>
<path d="M336.213 261.062C332.504 266.231 330.439 272.507 328.826 278.589C327.235 284.607 326.149 290.742 325.321 296.911C325.03 299.081 324.783 301.263 324.622 303.455C324.6 303.713 325.052 303.777 325.084 303.519C325.729 298.942 326.256 294.353 327.052 289.797C328.192 283.274 329.633 276.741 331.955 270.519C333.159 267.284 334.59 264.103 336.568 261.266C336.708 261.062 336.375 260.869 336.235 261.073L336.213 261.062Z" fill="#92D0FF"/>
<path d="M160.92 107.449C160.92 107.449 162.382 108.48 162.888 108.513C163.393 108.545 164.554 108.169 165.995 108.308C166.64 108.373 168.296 108.738 168.382 108.996C168.479 109.254 166.888 109.222 166.92 109.329C166.963 109.437 169.898 110.533 169.769 110.973C169.705 111.199 166.855 110.124 166.855 110.124C166.855 110.124 169.963 111.21 169.78 111.543C169.597 111.876 166.662 110.737 166.662 110.737C166.662 110.737 169.468 111.758 169.318 112.048C169.167 112.338 166.425 111.607 166.425 111.607C166.425 111.607 168.812 112.123 168.683 112.413C168.619 112.564 165.995 112.231 163.759 111.393C161.683 110.619 159.984 109.329 159.984 109.329" fill="#FC8975"/>
<path d="M161.943 86.4512C159.363 90.3843 153.373 94.9298 150.072 97.7238C151.965 100.292 162.696 108.298 162.696 108.298L161.696 110.683C161.696 110.683 141.244 107.019 140.588 96.9178C140.201 90.8786 147.846 81.9809 153.782 77.8008C159.352 73.8785 165.868 73.2445 169.298 74.6307" fill="url(#paint15_linear_506_19608)"/>
<path d="M311.686 130.467C309.428 129.543 306.223 126.792 306.589 125.233C306.75 124.567 308.331 126.372 308.783 125.932C309.073 125.642 308.836 124.298 308.019 123.654C307.202 122.998 305.514 121.805 305.933 121.386C306.352 120.967 310.481 121.891 311.406 123.288C311.987 124.17 312.632 126.136 313.03 128.264L314.74 130.467" fill="#FC8975"/>
<path d="M354.942 305.852C354.942 305.852 347.91 307.979 347.91 309.58C347.91 310.505 358.243 310.257 358.867 309.634C359.867 308.635 357.985 305.981 357.985 305.981L354.942 305.841V305.852Z" fill="#352E72"/>
<path d="M354.945 301.37V305.991C354.945 305.991 355.193 306.733 356.246 306.818C357.3 306.904 357.988 305.991 357.988 305.991L358.096 300.21" fill="#FC8975"/>
<path d="M346.556 198.736C346.556 198.736 343.309 216.735 346.427 251.069C348.567 274.516 353.696 302.821 355.223 302.821C356.75 302.821 358.105 302.649 358.105 302.649C358.105 302.649 366.621 268.423 366.621 249.242C366.621 219.712 376.578 212.738 371.632 197.489" fill="url(#paint16_linear_506_19608)"/>
<path d="M354.16 300.973L354.515 302.993H358.762L358.891 300.973H354.16Z" fill="#75A1E9"/>
<path d="M376.88 305.852C376.88 305.852 369.848 307.979 369.848 309.58C369.848 310.505 380.181 310.257 380.805 309.634C381.805 308.635 379.923 305.981 379.923 305.981L376.88 305.841V305.852Z" fill="#352E72"/>
<path d="M376.879 301.371V305.991C376.879 305.991 377.126 306.733 378.18 306.819C379.234 306.905 379.922 305.991 379.922 305.991L380.029 300.21" fill="#FC8975"/>
<path d="M359.094 198.736C359.094 198.736 361.696 221.485 364.9 247.748C366.158 258.118 375.481 301.413 376.631 302.821H380.502C380.502 302.821 385.094 265.092 385.094 245.921C385.094 216.391 389.126 212.738 384.18 197.5" fill="url(#paint17_linear_506_19608)"/>
<path d="M375.984 300.973L376.339 302.993H380.587L380.716 300.973H375.984Z" fill="#75A1E9"/>
<path d="M360.426 210.245C360.426 210.245 362.931 239.334 366.308 256.323" stroke="#4A578E" stroke-width="0.5" stroke-miterlimit="10"/>
<path d="M385.17 194.964C385.17 193.083 386.632 160.652 380.998 153.313C379.407 149.895 373.503 146.038 368.805 144.351C364.665 142.868 362.052 144.028 360.17 144.297C352.245 142.019 334.127 143.545 329.106 140.966C326.342 139.547 313.396 128.339 313.396 128.339L310.977 130.22C310.977 130.22 318.708 146.36 327.396 152.002C333.503 155.967 342.579 158.17 347.428 159.137C347.364 160.029 347.299 160.996 347.245 162.092C346.977 167.884 346.321 178.061 346.987 194.975C347.052 196.587 345.31 198.639 345.31 199.714C345.31 200.788 347.407 204.184 364.826 204.184C379.6 204.184 386.632 202.013 386.632 199.553C386.632 197.092 385.17 196.845 385.17 194.964Z" fill="url(#paint18_linear_506_19608)"/>
<g style="mix-blend-mode:multiply" opacity="0.75">
<path d="M347.825 152.496C347.825 152.496 347.889 152.915 347.911 153.538C347.932 154.162 347.943 155 347.889 155.827C347.846 156.655 347.739 157.482 347.631 158.105C347.524 158.729 347.416 159.137 347.416 159.137C347.416 159.137 347.352 158.718 347.33 158.095C347.309 157.471 347.298 156.633 347.352 155.806C347.395 154.978 347.502 154.151 347.61 153.528C347.717 152.904 347.825 152.496 347.825 152.496Z" fill="url(#paint19_linear_506_19608)"/>
</g>
<path d="M359.093 124.427C358.437 127.028 356.824 134.185 358.308 136.42C359.77 138.634 362.975 139.268 365.416 138.247C367.867 137.215 369.555 134.851 370.34 132.315C371.125 129.779 371.104 127.071 370.932 124.427" fill="#FC8975"/>
<path d="M361.932 133.895L360.91 142.567C360.91 142.567 361.287 144.995 362.609 145.919C365.878 145.844 367.448 142.739 367.448 142.739L366.469 131.573" fill="#FC8975"/>
<path d="M367.654 126.835C365.976 126.233 363.664 126.448 361.557 126.093C360.094 125.846 358.524 125.814 357.148 125.212C354.643 124.116 354.869 120.323 356.912 118.883C357.449 118.506 358.191 118.109 358.879 118.259C359.611 118.431 359.89 119.205 360.535 119.495C360.879 119.656 361.277 119.689 361.654 119.646C361.933 119.613 362.213 119.538 362.428 119.355C362.783 119.044 362.933 118.549 363.277 118.227C363.621 117.905 364.041 117.711 364.503 117.604C365.46 117.367 366.6 117.475 367.428 118.044C367.718 118.249 367.976 118.517 368.309 118.625C368.858 118.797 369.471 118.764 369.976 119.055C371.385 119.828 372.288 121.816 372.406 123.364C372.428 123.611 372.826 123.847 372.976 124.019C374.374 125.653 374.471 127.931 374.094 129.951C373.718 131.971 373.019 133.895 371.374 135.216C370.815 135.668 369.987 135.872 369.234 136.141C366.32 137.172 367.804 129.156 367.664 126.845" fill="#352E72"/>
<path d="M368.05 131.283C368.072 130.703 368.932 130.209 369.491 130.617C369.857 130.886 370.05 131.154 370.072 131.531C370.125 132.336 369.588 133.551 368.588 133.733C368.211 133.809 367.803 133.325 367.781 132.96" fill="#FC8975"/>
<path d="M364.994 136.474C365.273 136.452 365.553 136.409 365.833 136.334C366.467 136.173 367.36 135.818 367.972 134.969C368.198 134.658 368.306 134.378 368.317 134.088C368.317 134.013 368.263 133.959 368.187 133.959C368.112 133.959 368.058 134.013 368.058 134.088C368.058 134.325 367.951 134.561 367.768 134.819C367.198 135.603 366.37 135.947 365.768 136.087C364.972 136.28 364.112 136.259 363.37 136.216C363.295 136.216 363.241 136.27 363.23 136.334C363.23 136.409 363.284 136.463 363.349 136.474C363.854 136.506 364.413 136.517 364.972 136.474H364.994Z" fill="#081466"/>
<path d="M362.791 136.022C363.006 135.904 363.285 135.904 363.522 135.979C364.35 136.237 363.458 137.29 362.705 136.753C362.64 136.71 362.587 136.656 362.554 136.592C362.447 136.399 362.576 136.141 362.791 136.022Z" fill="#081466"/>
<path d="M370.491 127.813C370.297 126.018 369.62 123.955 368.491 122.547C367.039 120.742 365.104 119.248 363.244 119.248C361.684 119.248 360.91 119.603 360.91 119.603C362.824 120.054 364.469 120.967 365.985 122.536C367.502 124.105 368.394 126.254 368.437 128.436" fill="#75A1E9"/>
<path d="M365.792 130.811C365.577 132.842 366.932 134.658 368.824 134.851C370.706 135.045 372.405 133.551 372.62 131.52C372.835 129.489 371.48 127.673 369.588 127.48C367.706 127.286 366.007 128.78 365.792 130.811Z" fill="#75A1E9"/>
<path d="M367.403 131.133C367.253 132.53 368.135 133.766 369.371 133.895C370.608 134.024 371.715 132.992 371.866 131.595C372.016 130.198 371.135 128.962 369.898 128.833C368.662 128.704 367.554 129.736 367.403 131.133Z" fill="#A2C0ED"/>
<path d="M362.611 192.589H327.816L324.407 171.581C324.257 170.689 324.956 169.872 325.859 169.872H356.87C358.052 169.872 359.063 170.732 359.246 171.893L362.601 192.589H362.611Z" fill="#A2C0ED"/>
<path d="M361.6 192.589H326.804L323.395 171.581C323.245 170.689 323.944 169.872 324.847 169.872H355.858C357.041 169.872 358.051 170.732 358.234 171.893L361.589 192.589H361.6Z" fill="url(#paint20_linear_506_19608)"/>
<path d="M344.299 180.672C343.922 178.899 342.568 177.642 341.288 177.867C340.008 178.093 339.277 179.716 339.654 181.478C340.03 183.251 341.385 184.508 342.664 184.283C343.944 184.057 344.675 182.434 344.299 180.672Z" fill="#ABD1FF"/>
<path style="mix-blend-mode:multiply" opacity="0.75" d="M380.996 153.302C379.405 149.885 375.19 148.445 370.491 146.768L369.2 162.629C369.781 169.861 372.394 180.317 372.394 180.317L357.846 191.321L357.867 191.364C357.588 191.536 357.351 191.676 357.287 191.676C357.093 191.676 355.674 190.88 354.932 191.009C354.179 191.138 353.319 191.192 353.319 191.461C353.319 191.729 354.469 191.762 354.469 192.02C354.469 192.277 353.695 192.793 353.351 192.793C353.007 192.793 350.921 192.643 350.792 192.793C350.663 192.944 351.233 193.879 351.803 194.394C352.071 194.642 353.028 195.028 353.641 195.028C355.136 195.028 357.297 194.491 357.577 194.298C357.813 194.126 358.416 193.793 359.007 193.47L359.502 194.384C359.502 194.384 379.33 192.804 385.297 190.085C385.48 180.317 385.437 159.094 381.007 153.334L380.996 153.302Z" fill="url(#paint21_linear_506_19608)"/>
<path d="M359.093 190.547C359.093 190.547 357.48 191.514 357.287 191.514C357.093 191.514 355.674 190.827 354.932 190.945C354.179 191.052 353.319 191.095 353.319 191.332C353.319 191.568 354.469 191.59 354.469 191.805C354.469 192.02 353.695 192.46 353.351 192.46C353.007 192.46 350.921 192.331 350.792 192.46C350.663 192.589 351.233 193.395 351.803 193.825C352.071 194.029 353.028 194.362 353.641 194.362C355.136 194.362 357.297 193.9 357.577 193.739C358.104 193.417 360.373 192.417 360.373 192.417" fill="#FC8975"/>
<path d="M368.801 144.351C368.801 144.351 378.984 144.995 383.822 154.398C388.661 163.801 387.145 183.842 384.188 186.797C381.231 189.752 358.704 193.395 358.704 193.395L357.844 191.332L373.704 181.424C373.704 181.424 368.768 164.875 368.768 158.159" fill="url(#paint22_linear_506_19608)"/>
<path d="M362.613 145.93C363.344 146.661 363.656 147.703 364.366 149.197C367.753 148.079 368.807 144.35 368.807 144.35L367.452 142.749C367.452 142.749 364.796 145.5 362.613 145.93Z" fill="url(#paint23_linear_506_19608)"/>
<path d="M362.611 145.93C361.956 146.586 361.353 147.531 360.913 148.692C360.052 147.832 359.418 144.727 359.504 144.35C359.923 143.695 360.913 142.567 360.913 142.567C360.913 142.567 361.138 144.458 362.611 145.919V145.93Z" fill="url(#paint24_linear_506_19608)"/>
<path d="M66.3838 304.884C66.3838 304.884 59.3516 307.012 59.3516 308.613C59.3516 309.537 69.6849 309.29 70.3086 308.667C71.3086 307.668 69.5344 304.659 69.5344 304.659L66.3838 304.884Z" fill="#352E73"/>
<path d="M66.3828 300.403V305.024C66.3828 305.024 66.6301 305.765 67.6839 305.851C68.7377 305.937 69.4258 305.024 69.4258 305.024L69.5333 299.243" fill="#FC8975"/>
<path d="M68.7171 173.45C63.9859 179.565 58.4375 196.844 58.4375 229.673C58.4375 252.874 65.9644 301.446 65.9644 301.446L70.2655 301.8C84.0181 214.973 79.373 215.865 82.8138 200.434C84.9644 190.762 80.5988 166.369 80.5988 166.369" fill="url(#paint25_linear_506_19608)"/>
<path style="mix-blend-mode:multiply" opacity="0.35" d="M80.1032 227.975C80.1032 227.975 77.1355 211.502 77.1355 208.138C75.8559 214.876 75.8559 223.591 77.1355 229.716C78.0817 234.208 79.0602 238.603 79.0602 238.603L80.1032 227.975Z" fill="url(#paint26_linear_506_19608)"/>
<path d="M65.7812 300.242V302.079C65.7812 302.079 70.2759 302.832 70.2759 302.552C70.2759 302.273 70.4802 300.435 70.4802 300.435L65.7812 300.231V300.242Z" fill="#75A1E9"/>
<path d="M103.91 304.884C103.91 304.884 110.942 307.012 110.942 308.613C110.942 309.537 100.609 309.29 99.9853 308.667C98.9853 307.668 100.76 304.659 100.76 304.659L103.91 304.884Z" fill="#352E73"/>
<path d="M103.126 300.403L103.911 305.024C103.911 305.024 103.664 305.765 102.61 305.851C101.556 305.937 100.868 305.024 100.868 305.024L99.9648 299.243" fill="#FC8975"/>
<path d="M91.5995 170.7C96.2554 178.533 104.524 194.684 104.524 227.503C104.524 250.703 103.911 301.424 103.911 301.424L100.223 301.8C88.3414 268.649 78.449 226.407 76.1264 201.798C75.2016 191.934 76.9758 166.369 76.9758 166.369" fill="url(#paint27_linear_506_19608)"/>
<path style="mix-blend-mode:multiply" opacity="0.35" d="M92.1468 171.634C87.9963 170.302 82.2759 169.002 76.8673 168.013C76.8565 168.206 76.8458 168.4 76.8243 168.625L68.7167 173.461C67.749 174.708 66.7597 176.416 65.7812 178.63C68.1899 179.597 71.6092 180.553 76.1791 180.962C82.8888 181.564 91.2651 180.253 95.5662 178.243C94.3619 175.61 93.1899 173.44 92.1468 171.645V171.634Z" fill="url(#paint28_linear_506_19608)"/>
<path d="M104.521 299.898V301.736C104.521 301.736 99.801 302.488 99.801 302.209C99.801 301.929 99.5859 300.092 99.5859 300.092L104.521 299.887V299.898Z" fill="#75A1E9"/>
<path d="M128.535 153.42L130.062 152.593C130.062 152.593 130.309 151.55 130.933 150.401C131.213 149.885 132.105 148.627 132.374 148.627C132.643 148.627 132.062 149.938 132.18 149.938C132.299 149.938 134.299 147.821 134.653 148.069C134.836 148.187 132.89 150.229 132.89 150.229C132.89 150.229 134.933 147.972 135.18 148.23C135.428 148.488 133.385 150.583 133.385 150.583C133.385 150.583 135.277 148.563 135.481 148.778C135.696 148.993 133.804 150.938 133.804 150.938C133.804 150.938 135.524 149.229 135.6 149.412C135.718 149.702 134.718 150.981 133.051 152.646C132.761 152.937 131.643 153.807 131.567 153.882C131.492 153.957 129.815 155.709 129.815 155.709" fill="#FC8975"/>
<path d="M132.062 150.239C132.083 150.745 132.115 151.293 131.976 151.787C131.836 152.281 131.47 152.668 131.105 153.033C131.04 153.098 131.126 153.205 131.201 153.162C131.675 152.872 132.04 152.432 132.191 151.894C132.341 151.357 132.266 150.777 132.191 150.218C132.191 150.143 132.051 150.164 132.051 150.239H132.062Z" fill="#CC6658"/>
<path d="M28.9762 124.438L27.9117 123.073C27.9117 123.073 28.1052 122.02 27.9869 120.72C27.9439 120.14 27.6213 118.625 27.374 118.517C27.1267 118.41 27.1375 119.839 27.0299 119.796C26.9224 119.753 25.9332 117.013 25.5138 117.088C25.2988 117.12 26.2665 119.774 26.2665 119.774C26.2665 119.774 25.2988 116.895 24.9654 117.023C24.6321 117.152 25.6644 119.893 25.6644 119.893C25.6644 119.893 24.7396 117.281 24.46 117.4C24.1805 117.507 25.1375 120.043 25.1375 120.043C25.1375 120.043 24.245 117.786 24.1052 117.937C23.8794 118.152 24.2773 119.721 25.1482 121.913C25.2988 122.289 25.9762 123.536 26.0192 123.632C26.0622 123.729 26.8902 126.007 26.8902 126.007" fill="#FC8975"/>
<path d="M26.8802 120.043C26.5898 120.527 26.2995 121.01 26.2135 121.58C26.1275 122.149 26.2995 122.665 26.6113 123.116C26.6544 123.181 26.7941 123.149 26.7619 123.052C26.5791 122.579 26.3963 122.096 26.4608 121.58C26.5253 121.064 26.7726 120.57 27.0092 120.108C27.0522 120.032 26.9339 119.957 26.8909 120.032L26.8802 120.043Z" fill="#CC6658"/>
<path d="M129.61 152.775C129.61 152.775 114.201 158.449 110.696 158.449C107.804 158.449 102.89 150.648 96.0724 145.328C91.8251 142.019 87.0294 140.213 87.0294 140.213L74.1692 139.945C71.7498 139.945 66.9219 140.278 62.481 140.88C56.0832 141.75 50.0832 141.46 47.2875 140.213C41.8896 137.795 28.3735 123.278 28.3735 123.278C28.3735 123.278 27.0939 123.009 25.9219 124.17C25.9219 124.89 32.8789 144.737 42.0509 150.68C48.8036 155.053 58.6316 155.773 64.7606 155.73V159.814C64.7606 161.834 62.352 171.763 65.2014 174.6C67.8144 177.212 77.8036 177.545 81.6961 177.545C87.4703 177.545 93.3842 176.631 94.8681 174.6C95.6101 173.59 95.5025 169.066 95.266 164.918C99.8896 167.83 104.072 170.721 109.406 170.721C119.395 170.721 131.148 155.107 131.148 155.107L129.61 152.754V152.775Z" fill="url(#paint29_linear_506_19608)"/>
<path style="mix-blend-mode:multiply" opacity="0.75" d="M95.3969 167.82L95.2679 164.94L90.9453 160.566L95.3969 167.82Z" fill="url(#paint30_linear_506_19608)"/>
<path style="mix-blend-mode:multiply" opacity="0.75" d="M64.7621 155.73C64.7621 155.215 65.6331 150.272 65.6331 149.487C64.332 152.281 62.375 155.709 62.375 155.709L64.7729 155.73H64.7621Z" fill="url(#paint31_linear_506_19608)"/>
<path d="M84.8274 117.099C88.4618 119.356 87.8382 123.987 89.3113 126.878C90.3758 128.962 92.0317 130.735 92.193 133.218C92.3651 135.926 88.8382 137.194 86.9565 136.904C83.2575 136.334 80.0855 138.215 76.3543 137.763C73.8167 137.452 74.7737 136.184 73.1177 134.239C72.1177 133.067 71.6231 131.531 71.4941 129.994C71.3651 128.457 71.5586 126.921 71.8274 125.405" fill="#F42A73"/>
<path d="M78.1181 132.799L77.3977 139.45L74.1719 139.945C74.1719 139.945 76.4192 144.007 80.0106 144.007C83.602 144.007 87.0428 140.213 87.0428 140.213L83.5375 139.128L82.2041 129.779" fill="#FC8975"/>
<path d="M72.8183 121.945C72.6033 124.17 72.399 126.437 72.8828 128.619C73.3667 130.8 74.6785 132.917 76.7215 133.809C77.6463 134.217 78.6678 134.346 79.6785 134.389C81.3775 134.464 83.1947 134.271 84.5388 133.229C86.1194 132.025 86.7323 129.876 86.6033 127.899C86.4742 125.921 85.7 124.041 84.9474 122.214C84.2377 120.505 83.528 118.797 82.8291 117.088" fill="#FC8975"/>
<path d="M64.5262 130.811C63.8165 131.681 62.9671 132.551 62.8488 133.669C62.7305 134.765 63.4402 135.872 64.451 136.334C65.3434 136.742 66.1929 136.603 67.1284 136.538C68.1606 136.463 69.2144 136.463 70.2359 136.667C71.1069 136.839 71.9348 137.151 72.795 137.398C74.0531 137.752 75.3864 137.957 76.666 137.731C76.8918 137.688 77.1391 137.624 77.2359 137.419C77.3434 137.194 77.2359 136.936 77.1176 136.71C76.3219 135.034 76.3112 133.089 76.4617 131.24C76.537 130.284 76.6553 129.338 76.9133 128.414C77.1284 127.641 77.451 126.91 77.7843 126.179C78.4187 124.793 79.2036 123.45 79.8058 122.053C80.3864 120.656 80.7628 118.506 82.709 118.786C83.9671 118.969 84.5047 121 85.3434 122.235C86.5907 120.817 87.9886 119.957 85.3434 116.594C84.0209 114.907 81.7628 115.003 79.7628 115.369C78.6338 115.293 78.7198 114.853 77.5907 114.778C73.9133 114.53 69.9671 117.024 68.3542 120.387C66.5585 124.148 66.9778 127.791 64.5262 130.811Z" fill="#F42A73"/>
<path d="M77.139 131.993C76.8594 131.971 76.5798 131.928 76.3003 131.853C75.6659 131.692 74.7734 131.337 74.1605 130.488C73.9347 130.177 73.8272 129.897 73.8164 129.607C73.8164 129.532 73.8702 129.478 73.9454 129.478C74.0207 129.478 74.0745 129.532 74.0745 129.607C74.0745 129.843 74.182 130.08 74.3648 130.338C74.9347 131.122 75.7626 131.466 76.3648 131.606C77.1605 131.799 78.0207 131.778 78.7626 131.735C78.8379 131.735 78.8917 131.788 78.9024 131.853C78.9024 131.928 78.8487 131.982 78.7841 131.993C78.2788 132.025 77.7196 132.036 77.1605 131.993H77.139Z" fill="#081466"/>
<path d="M79.3442 131.541C79.1291 131.423 78.8496 131.423 78.613 131.498C77.785 131.756 78.6775 132.809 79.4302 132.272C79.4947 132.229 79.5485 132.175 79.5807 132.111C79.6883 131.917 79.5592 131.659 79.3442 131.541Z" fill="#081466"/>
<path d="M71.6445 123.331C71.8381 121.537 72.5155 119.474 73.6445 118.066C75.0961 116.261 77.0316 114.767 78.8918 114.767C80.451 114.767 81.2252 115.121 81.2252 115.121C79.3112 115.573 77.666 116.486 76.1499 118.055C74.6338 119.624 73.7413 121.773 73.6983 123.955" fill="#081466"/>
<path d="M76.3426 126.319C76.5576 128.35 75.2028 130.166 73.3103 130.359C71.4286 130.553 69.7297 129.059 69.5146 127.028C69.2996 124.997 70.6544 123.181 72.5469 122.988C74.4286 122.794 76.1275 124.288 76.3426 126.319Z" fill="#081466"/>
<path d="M74.7291 126.641C74.8796 128.038 73.9979 129.274 72.7614 129.403C71.5248 129.532 70.4173 128.5 70.2667 127.103C70.1162 125.706 70.9979 124.47 72.2345 124.341C73.471 124.213 74.5786 125.244 74.7291 126.641Z" fill="#2D4CBA"/>
<path d="M287.247 37.9655L281.849 40.2221C281.247 40.4693 281.128 41.2645 281.612 41.6943L285.483 45.0256C285.967 45.4447 286.731 45.2083 286.892 44.5957L288.419 39.0078C288.612 38.3094 287.913 37.6861 287.236 37.9762L287.247 37.9655Z" stroke="#CFE0F5" stroke-miterlimit="10"/>
<path d="M55.0214 108.47L56.6021 114.101C56.7741 114.724 57.5483 114.95 58.0322 114.509L61.8171 111.07C62.2903 110.64 62.1505 109.856 61.5591 109.62L56.1935 107.417C55.5161 107.137 54.8279 107.761 55.0214 108.459V108.47Z" stroke="#CFE0F5" stroke-miterlimit="10"/>
<path d="M398.667 176.094L402.817 171.968C403.28 171.506 403.097 170.732 402.484 170.517L397.645 168.894C397.032 168.69 396.419 169.184 396.495 169.829L397.183 175.578C397.269 176.298 398.151 176.61 398.667 176.094Z" stroke="#CFE0F5" stroke-miterlimit="10"/>
<path d="M379.225 112.145L380.752 117.797C380.924 118.421 381.687 118.657 382.182 118.227L385.999 114.831C386.483 114.402 386.354 113.628 385.762 113.37L380.418 111.113C379.752 110.834 379.042 111.446 379.236 112.145H379.225Z" stroke="#CFE0F5" stroke-miterlimit="10"/>
<path d="M361.368 100.559L358.711 102.588L360.742 105.244L363.399 103.214L361.368 100.559Z" fill="#CFE0F5"/>
<path d="M337.239 77.5976L333.898 77.7463L334.047 81.085L337.388 80.9363L337.239 77.5976Z" fill="#CFE0F5"/>
<path d="M122.272 120.931L119.156 122.144L120.37 125.258L123.486 124.045L122.272 120.931Z" fill="#CFE0F5"/>
<path d="M155.529 40.6221L152.406 39.426L151.209 42.5467L154.332 43.7427L155.529 40.6221Z" fill="#CFE0F5"/>
<path d="M23.9189 206.394L20.5781 206.543L20.7269 209.881L24.0677 209.733L23.9189 206.394Z" fill="#CFE0F5"/>
</g>
<defs>
<linearGradient id="paint0_linear_506_19608" x1="218.33" y1="326" x2="218.33" y2="289.41" gradientUnits="userSpaceOnUse">
<stop stop-color="#FCF5F1"/>
<stop offset="0.48" stop-color="#FCEEEC"/>
<stop offset="1" stop-color="#FCE1E3"/>
</linearGradient>
<linearGradient id="paint1_linear_506_19608" x1="359.246" y1="289.41" x2="359.246" y2="154.871" gradientUnits="userSpaceOnUse">
<stop stop-color="#466DE5"/>
<stop offset="1" stop-color="#78BFFF"/>
</linearGradient>
<linearGradient id="paint2_linear_506_19608" x1="384.407" y1="7.98233e-05" x2="384.407" y2="195.576" gradientUnits="userSpaceOnUse">
<stop stop-color="#466DE5"/>
<stop offset="1" stop-color="#78BFFF"/>
</linearGradient>
<linearGradient id="paint3_linear_506_19608" x1="151.655" y1="266.865" x2="90.0269" y2="205.198" gradientUnits="userSpaceOnUse">
<stop stop-color="#466DE5"/>
<stop offset="1" stop-color="#78BFFF"/>
</linearGradient>
<linearGradient id="paint4_linear_506_19608" x1="63.1686" y1="0.000153635" x2="63.1686" y2="173.719" gradientUnits="userSpaceOnUse">
<stop stop-color="#466DE5"/>
<stop offset="1" stop-color="#78BFFF"/>
</linearGradient>
<linearGradient id="paint5_linear_506_19608" x1="38.7182" y1="287.863" x2="43.27" y2="219.649" gradientUnits="userSpaceOnUse">
<stop stop-color="#466DE5"/>
<stop offset="1" stop-color="#78BFFF"/>
</linearGradient>
<linearGradient id="paint6_linear_506_19608" x1="36.4839" y1="292.666" x2="56.1321" y2="258.612" gradientUnits="userSpaceOnUse">
<stop stop-color="#466DE5"/>
<stop offset="1" stop-color="#78BFFF"/>
</linearGradient>
<linearGradient id="paint7_linear_506_19608" x1="175.959" y1="228.066" x2="172.963" y2="116.552" gradientUnits="userSpaceOnUse">
<stop stop-color="#29225E"/>
<stop offset="1" stop-color="#3F368C"/>
</linearGradient>
<linearGradient id="paint8_linear_506_19608" x1="164.741" y1="228.378" x2="161.745" y2="116.854" gradientUnits="userSpaceOnUse">
<stop stop-color="#29225E"/>
<stop offset="1" stop-color="#3F368C"/>
</linearGradient>
<linearGradient id="paint9_linear_506_19608" x1="182.077" y1="90.2769" x2="233.054" y2="65.9232" gradientUnits="userSpaceOnUse">
<stop stop-color="#FCC73C"/>
<stop offset="1" stop-color="#FC7A3C"/>
</linearGradient>
<linearGradient id="paint10_linear_506_19608" x1="296.731" y1="329.267" x2="164.232" y2="99.6398" gradientUnits="userSpaceOnUse">
<stop stop-color="#B3D3F4"/>
<stop offset="1" stop-color="#D3DCED"/>
</linearGradient>
<linearGradient id="paint11_linear_506_19608" x1="237.859" y1="282.414" x2="237.859" y2="92.6409" gradientUnits="userSpaceOnUse">
<stop stop-color="#FFD5A7"/>
<stop offset="0.37" stop-color="#FFD7AA"/>
<stop offset="0.65" stop-color="#FFDDB3"/>
<stop offset="0.91" stop-color="#FFE8C3"/>
<stop offset="1" stop-color="#FFEECC"/>
</linearGradient>
<linearGradient id="paint12_linear_506_19608" x1="296.731" y1="329.267" x2="179.11" y2="125.417" gradientUnits="userSpaceOnUse">
<stop stop-color="#CDE8FF"/>
<stop offset="1" stop-color="#EEE7E9"/>
</linearGradient>
<linearGradient id="paint13_linear_506_19608" x1="295.494" y1="354.316" x2="180.308" y2="239.057" gradientUnits="userSpaceOnUse">
<stop stop-color="#CDE8FF"/>
<stop offset="1" stop-color="#EEE7E9"/>
</linearGradient>
<linearGradient id="paint14_linear_506_19608" x1="284.579" y1="306.969" x2="259.624" y2="263.724" gradientUnits="userSpaceOnUse">
<stop stop-color="#466DE5"/>
<stop offset="1" stop-color="#78BFFF"/>
</linearGradient>
<linearGradient id="paint15_linear_506_19608" x1="166.997" y1="85.2692" x2="137.316" y2="113.324" gradientUnits="userSpaceOnUse">
<stop stop-color="#FCC73C"/>
<stop offset="1" stop-color="#FC7A3C"/>
</linearGradient>
<linearGradient id="paint16_linear_506_19608" x1="359.04" y1="302.821" x2="359.04" y2="197.5" gradientUnits="userSpaceOnUse">
<stop stop-color="#29225E"/>
<stop offset="1" stop-color="#3F368C"/>
</linearGradient>
<linearGradient id="paint17_linear_506_19608" x1="372.868" y1="302.821" x2="372.868" y2="197.5" gradientUnits="userSpaceOnUse">
<stop stop-color="#29225E"/>
<stop offset="1" stop-color="#3F368C"/>
</linearGradient>
<linearGradient id="paint18_linear_506_19608" x1="348.805" y1="161.211" x2="348.805" y2="201.917" gradientUnits="userSpaceOnUse">
<stop stop-color="#FCC73C"/>
<stop offset="1" stop-color="#FC7A3C"/>
</linearGradient>
<linearGradient id="paint19_linear_506_19608" x1="347.158" y1="155.817" x2="348.094" y2="155.817" gradientUnits="userSpaceOnUse">
<stop stop-color="#FCC73C"/>
<stop offset="1" stop-color="#FC7A3C"/>
</linearGradient>
<linearGradient id="paint20_linear_506_19608" x1="357.406" y1="196.78" x2="327.382" y2="166.737" gradientUnits="userSpaceOnUse">
<stop stop-color="#5789EE"/>
<stop offset="1" stop-color="#78BFFF"/>
</linearGradient>
<linearGradient id="paint21_linear_506_19608" x1="350.77" y1="170.893" x2="385.34" y2="170.893" gradientUnits="userSpaceOnUse">
<stop stop-color="#FCC73C"/>
<stop offset="1" stop-color="#FC7A3C"/>
</linearGradient>
<linearGradient id="paint22_linear_506_19608" x1="372.403" y1="161.211" x2="372.403" y2="196.017" gradientUnits="userSpaceOnUse">
<stop stop-color="#FCC73C"/>
<stop offset="1" stop-color="#FC7A3C"/>
</linearGradient>
<linearGradient id="paint23_linear_506_19608" x1="365.71" y1="149.197" x2="365.71" y2="142.749" gradientUnits="userSpaceOnUse">
<stop stop-color="#FCAE3C"/>
<stop offset="1" stop-color="#FC7A3C"/>
</linearGradient>
<linearGradient id="paint24_linear_506_19608" x1="361.052" y1="148.692" x2="361.052" y2="142.567" gradientUnits="userSpaceOnUse">
<stop stop-color="#FCAE3C"/>
<stop offset="1" stop-color="#FC7A3C"/>
</linearGradient>
<linearGradient id="paint25_linear_506_19608" x1="70.9214" y1="301.8" x2="70.9214" y2="166.369" gradientUnits="userSpaceOnUse">
<stop stop-color="#29225E"/>
<stop offset="1" stop-color="#3F368C"/>
</linearGradient>
<linearGradient id="paint26_linear_506_19608" x1="78.1462" y1="238.603" x2="78.1462" y2="208.138" gradientUnits="userSpaceOnUse">
<stop stop-color="#29225E"/>
<stop offset="1" stop-color="#3F368C"/>
</linearGradient>
<linearGradient id="paint27_linear_506_19608" x1="90.1909" y1="301.8" x2="90.1909" y2="166.369" gradientUnits="userSpaceOnUse">
<stop stop-color="#29225E"/>
<stop offset="1" stop-color="#3F368C"/>
</linearGradient>
<linearGradient id="paint28_linear_506_19608" x1="80.6737" y1="181.091" x2="80.6737" y2="168.002" gradientUnits="userSpaceOnUse">
<stop stop-color="#29225E"/>
<stop offset="1" stop-color="#3F368C"/>
</linearGradient>
<linearGradient id="paint29_linear_506_19608" x1="78.524" y1="140.45" x2="78.524" y2="178.351" gradientUnits="userSpaceOnUse">
<stop stop-color="#FCC73C"/>
<stop offset="1" stop-color="#FC7A3C"/>
</linearGradient>
<linearGradient id="paint30_linear_506_19608" x1="93.1711" y1="162.866" x2="93.1711" y2="167.927" gradientUnits="userSpaceOnUse">
<stop stop-color="#FCC73C"/>
<stop offset="1" stop-color="#FC7A3C"/>
</linearGradient>
<linearGradient id="paint31_linear_506_19608" x1="62.3642" y1="152.614" x2="65.6223" y2="152.614" gradientUnits="userSpaceOnUse">
<stop stop-color="#FCC73C"/>
<stop offset="1" stop-color="#FC7A3C"/>
</linearGradient>
<clipPath id="clip0_506_19608">
<rect width="421" height="326" fill="white"/>
</clipPath>
</defs>
</svg>
