<svg width="15" height="15" viewBox="0 0 15 15" fill="none" xmlns="http://www.w3.org/2000/svg">
<path d="M7.0902 10.0453L7.68111 8.86346V5.825C8.69806 5.56087 9.45384 4.64319 9.45384 3.54528C9.45384 2.24173 8.39374 1.18164 7.0902 1.18164C5.78665 1.18164 4.72656 2.24173 4.72656 3.54528C4.72656 4.64319 5.48234 5.56087 6.49929 5.825V8.86346L7.0902 10.0453Z" fill="#484848"/>
<path d="M9.61214 6.24082L9.29719 7.3801C10.8282 7.80319 11.818 8.61687 11.818 9.4536C11.818 10.5716 9.87687 11.8172 7.09073 11.8172C4.3046 11.8172 2.36346 10.5716 2.36346 9.4536C2.36346 8.61687 3.35323 7.80319 4.88487 7.37951L4.56991 6.24023C2.47987 6.81814 1.18164 8.04901 1.18164 9.4536C1.18164 11.4414 3.7775 12.9991 7.09073 12.9991C10.404 12.9991 12.9998 11.4414 12.9998 9.4536C12.9998 8.04901 11.7016 6.81814 9.61214 6.24082Z" fill="#484848"/>
</svg>
