<svg width="14" height="16" viewBox="0 0 14 16" fill="none" xmlns="http://www.w3.org/2000/svg">
<path d="M7.27749 0.333984C4.1847 0.333984 1.6775 2.84119 1.6775 5.93398V9.28071L1.01753 9.94067C0.750603 10.2076 0.670751 10.609 0.815214 10.9578C0.959676 11.3066 1.3 11.534 1.6775 11.534H12.8775C13.255 11.534 13.5953 11.3066 13.7398 10.9578C13.8842 10.609 13.8044 10.2076 13.5375 9.94067L12.8775 9.28071V5.93398C12.8775 2.84119 10.3703 0.333984 7.27749 0.333984Z" fill="white"/>
<path d="M7.27747 15.2673C5.73107 15.2673 4.47747 14.0137 4.47747 12.4673H10.0775C10.0775 14.0137 8.82386 15.2673 7.27747 15.2673Z" fill="white"/>
</svg>
