<svg width="351" height="125" viewBox="0 0 351 125" fill="none" xmlns="http://www.w3.org/2000/svg">
<g clip-path="url(#clip0_506_21228)">
<path d="M182.226 37.275C180.808 37.275 179.537 37.0301 178.412 36.5893C177.288 36.1484 176.31 35.5117 175.576 34.777C174.843 33.9933 174.208 33.1116 173.719 32.132C173.23 31.1034 172.839 30.0748 172.643 28.9972C172.447 27.9196 172.301 26.793 172.301 25.6175C172.301 24.4419 172.399 23.3154 172.643 22.2378C172.839 21.1602 173.23 20.0826 173.719 19.103C174.208 18.0744 174.843 17.1927 175.576 16.458C176.31 15.6743 177.239 15.0865 178.412 14.6457C179.586 14.2049 180.808 13.96 182.226 13.96C183.986 13.96 185.501 14.3028 186.821 14.9886C188.142 15.6743 189.168 16.6049 189.902 17.7315C190.635 18.9071 191.222 20.1316 191.564 21.4541C191.906 22.7766 192.102 24.197 192.102 25.6665C192.102 27.1359 191.906 28.5564 191.564 29.8788C191.222 31.2013 190.635 32.4749 189.902 33.6014C189.168 34.777 188.142 35.6586 186.821 36.3444C185.501 36.9321 183.937 37.275 182.226 37.275ZM182.226 33.5524C183.252 33.5524 184.181 33.3075 184.964 32.8177C185.746 32.3279 186.381 31.6912 186.821 30.8585C187.261 30.0748 187.604 29.1931 187.799 28.3115C187.995 27.4298 188.142 26.4991 188.142 25.5685C188.142 24.5889 188.044 23.6582 187.799 22.7276C187.604 21.8459 187.261 20.9643 186.821 20.1806C186.381 19.3969 185.746 18.7601 184.964 18.2703C184.181 17.7805 183.252 17.5356 182.226 17.5356C180.857 17.5356 179.683 17.9764 178.754 18.8581C177.825 19.7397 177.19 20.7194 176.848 21.8949C176.505 23.0215 176.31 24.246 176.31 25.5685C176.31 26.5481 176.408 27.4788 176.652 28.3604C176.848 29.2421 177.19 30.1238 177.63 30.9075C178.07 31.6912 178.706 32.3279 179.488 32.8177C180.221 33.3565 181.15 33.5524 182.226 33.5524Z" fill="#1E2DBE"/>
<path d="M195.379 36.8829V20.3762H199.144V22.0906C199.828 20.6701 200.953 19.9844 202.517 19.9844C203.69 19.9844 204.717 20.3762 205.597 21.1109L205.059 24.5886C204.228 24.0008 203.299 23.7069 202.273 23.7069C201.393 23.7069 200.659 24.0008 200.072 24.5886C199.486 25.1764 199.192 26.205 199.192 27.6254V36.8829H195.379Z" fill="#1E2DBE"/>
<path d="M213.124 43.3484L211.119 40.3116C213.368 40.1646 214.933 39.8218 215.813 39.283C216.693 38.7442 217.133 37.9115 217.133 36.7359V35.8053C216.253 36.7849 214.982 37.2747 213.368 37.2747C211.364 37.2747 209.701 36.54 208.43 35.0216C207.159 33.5032 206.523 31.397 206.523 28.6051C206.523 25.8131 207.159 23.8049 208.43 22.2865C209.701 20.7681 211.364 19.9844 213.368 19.9844C214.933 19.9844 216.155 20.4252 217.084 21.3558V20.3762H220.849V35.2665C220.849 38.0095 220.262 39.9687 219.088 41.1932C217.964 42.4178 215.959 43.1525 213.124 43.3484ZM214.004 33.6501C215.373 33.6501 216.399 33.1113 217.084 32.0337V25.2254C216.351 24.1478 215.275 23.609 214.004 23.609C212.83 23.609 211.901 24.0498 211.266 24.8825C210.63 25.7642 210.337 26.9887 210.337 28.654C210.337 30.2214 210.679 31.446 211.315 32.3276C211.95 33.2093 212.83 33.6501 214.004 33.6501Z" fill="#1E2DBE"/>
<path d="M233.806 36.8829V35.5604C232.731 36.687 231.264 37.2747 229.406 37.2747C227.646 37.2747 226.228 36.7849 225.104 35.8543C223.979 34.8747 223.441 33.5522 223.441 31.7888C223.441 30.0255 224.077 28.654 225.348 27.7234C226.619 26.7928 228.135 26.3519 229.895 26.3519C231.46 26.3519 232.78 26.6458 233.806 27.2336V26.3519C233.806 25.2743 233.562 24.5396 233.024 24.0498C232.486 23.56 231.704 23.3151 230.58 23.3151C228.771 23.3151 227.157 23.8539 225.69 24.8825L224.517 21.7967C226.326 20.5721 228.477 19.9844 230.971 19.9844C231.851 19.9844 232.584 20.0334 233.269 20.1803C233.904 20.3272 234.589 20.5722 235.322 21.013C236.006 21.4048 236.544 22.0906 236.935 22.9722C237.327 23.8539 237.522 24.9315 237.522 26.254V36.8829H233.806ZM230.14 33.944C231.557 33.944 232.829 33.4052 233.806 32.3766V30.2214C232.877 29.7806 231.753 29.5357 230.531 29.5357C229.504 29.5357 228.722 29.7316 228.086 30.0745C227.45 30.4174 227.157 31.0051 227.157 31.7399C227.157 32.4256 227.402 32.9154 227.939 33.3073C228.477 33.6991 229.162 33.944 230.14 33.944Z" fill="#1E2DBE"/>
<path d="M251.015 36.8829V27.4295C251.015 24.8825 249.988 23.56 247.935 23.56C245.686 23.56 244.562 24.8335 244.562 27.3316V36.8829H240.797V20.3762H244.562V21.9436C245.637 20.6701 247.104 19.9844 248.913 19.9844C250.624 19.9844 252.042 20.5232 253.117 21.6008C254.193 22.6783 254.731 24.3927 254.731 26.7438V36.8829H251.015Z" fill="#1E2DBE"/>
<path d="M261.624 17.4377C261.184 17.8786 260.646 18.1235 260.06 18.1235C259.424 18.1235 258.886 17.8786 258.446 17.4377C258.006 16.9969 257.762 16.4581 257.762 15.8213C257.762 15.1846 258.006 14.6458 258.446 14.2539C258.886 13.8131 259.424 13.6172 260.06 13.6172C260.695 13.6172 261.233 13.8131 261.624 14.2539C262.064 14.6948 262.26 15.2336 262.26 15.8213C262.26 16.5071 262.064 16.9969 261.624 17.4377ZM258.153 36.8833V20.3766H261.917V36.8833H258.153Z" fill="#1E2DBE"/>
<path d="M264.363 36.8831V33.8463L273.017 23.7562H264.999V20.3765H277.662V23.2664L269.057 33.5524H277.662V36.9321L264.363 36.8831Z" fill="#1E2DBE"/>
<path d="M290.033 36.8829V35.5604C288.957 36.687 287.491 37.2747 285.633 37.2747C283.873 37.2747 282.455 36.7849 281.33 35.8543C280.206 34.8747 279.668 33.5522 279.668 31.7888C279.668 30.0255 280.304 28.654 281.575 27.7234C282.846 26.7928 284.362 26.3519 286.122 26.3519C287.686 26.3519 289.006 26.6458 290.033 27.2336V26.3519C290.033 25.2743 289.788 24.5396 289.251 24.0498C288.713 23.56 287.931 23.3151 286.806 23.3151C284.997 23.3151 283.384 23.8539 281.917 24.8825L280.744 21.7967C282.553 20.5721 284.704 19.9844 287.197 19.9844C288.077 19.9844 288.811 20.0334 289.495 20.1803C290.131 20.3272 290.815 20.5722 291.549 21.013C292.233 21.4048 292.771 22.0906 293.162 22.9722C293.553 23.8539 293.749 24.9315 293.749 26.254V36.8829H290.033ZM286.366 33.944C287.784 33.944 289.055 33.4052 290.033 32.3766V30.2214C289.104 29.7806 287.979 29.5357 286.757 29.5357C285.73 29.5357 284.948 29.7316 284.313 30.0745C283.677 30.4174 283.384 31.0051 283.384 31.7399C283.384 32.4256 283.628 32.9154 284.166 33.3073C284.704 33.6991 285.388 33.944 286.366 33.944Z" fill="#1E2DBE"/>
<path d="M303.625 37.2747C301.376 37.2747 299.567 36.491 298.247 34.9726C296.927 33.4542 296.242 31.348 296.242 28.654C296.242 25.9601 296.927 23.8539 298.247 22.2865C299.567 20.7681 301.376 19.9844 303.625 19.9844C307.047 19.9844 309.198 21.5028 310.176 24.5396L306.607 25.7152C306.069 24.2947 305.14 23.56 303.771 23.56C302.647 23.56 301.718 24.0008 301.082 24.9315C300.447 25.8131 300.105 27.0866 300.105 28.6051C300.105 30.1235 300.398 31.348 301.034 32.2297C301.669 33.1113 302.5 33.5522 303.576 33.5522C305.092 33.5522 306.118 32.7685 306.558 31.1521L310.176 32.2297C309.296 35.6584 307.096 37.2747 303.625 37.2747Z" fill="#1E2DBE"/>
<path d="M316.187 17.4377C315.747 17.8786 315.209 18.1235 314.622 18.1235C313.987 18.1235 313.449 17.8786 313.009 17.4377C312.569 16.9969 312.324 16.4581 312.324 15.8213C312.324 15.1846 312.569 14.6458 313.009 14.2539C313.449 13.8131 313.987 13.6172 314.622 13.6172C315.258 13.6172 315.795 13.8131 316.187 14.2539C316.627 14.6948 316.822 15.2336 316.822 15.8213C316.822 16.5071 316.627 16.9969 316.187 17.4377ZM312.715 36.8833V20.3766H316.48V36.8833H312.715Z" fill="#1E2DBE"/>
<path d="M326.75 37.2749C324.403 37.2749 322.594 36.4912 321.225 34.9727C319.856 33.4543 319.172 31.3481 319.172 28.6542C319.172 25.9602 319.856 23.854 321.225 22.2866C322.594 20.7682 324.403 19.9845 326.75 19.9845C329.097 19.9845 330.906 20.7682 332.275 22.2866C333.644 23.805 334.328 25.9602 334.328 28.6542C334.328 31.3481 333.644 33.4543 332.275 34.9727C330.955 36.5401 329.097 37.2749 326.75 37.2749ZM322.594 18.2702L327.19 13.2251H332.079L326.359 18.2702H322.594ZM326.75 33.6503C327.923 33.6503 328.852 33.2094 329.537 32.3278C330.221 31.4461 330.564 30.2216 330.564 28.6542C330.564 27.0868 330.221 25.8622 329.537 24.9316C328.852 24.001 327.923 23.5601 326.75 23.5601C325.577 23.5601 324.697 24.001 324.012 24.9316C323.328 25.8622 322.985 27.0868 322.985 28.6542C322.985 30.2216 323.328 31.4461 324.012 32.3278C324.697 33.2094 325.577 33.6503 326.75 33.6503Z" fill="#1E2DBE"/>
<path d="M347.285 36.8829V27.4295C347.285 24.8825 346.258 23.56 344.205 23.56C341.956 23.56 340.831 24.8335 340.831 27.3316V36.8829H337.066V20.3762H340.831V21.9436C341.907 20.6701 343.373 19.9844 345.182 19.9844C346.894 19.9844 348.311 20.5232 349.387 21.6008C350.463 22.6783 351 24.3927 351 26.7438V36.8829H347.285Z" fill="#1E2DBE"/>
<path d="M173.277 69.2104V46.5811H177.14V69.2104H173.277Z" fill="#1E2DBE"/>
<path d="M191.074 69.2105V59.7572C191.074 57.2101 190.047 55.8876 187.994 55.8876C185.745 55.8876 184.62 57.1611 184.62 59.6592V69.2105H180.855V52.7039H184.62V54.2713C185.696 52.9977 187.162 52.312 188.971 52.312C190.683 52.312 192.1 52.8508 193.176 53.9284C194.252 55.006 194.789 56.7203 194.789 59.0714V69.2105H191.074Z" fill="#1E2DBE"/>
<path d="M203.006 69.6023C200.464 69.6023 199.144 68.1818 199.144 65.3899V56.0345H196.699V52.7527H199.144V47.7566L202.908 45.9443V52.7527H206.722V56.0345H202.908V64.6551C202.908 65.7327 203.348 66.2225 204.277 66.2225C205.109 66.2225 205.989 65.9776 206.869 65.4878L206.429 68.8675C205.5 69.3573 204.375 69.6023 203.006 69.6023Z" fill="#1E2DBE"/>
<path d="M216.01 69.6024C213.663 69.6024 211.805 68.8187 210.436 67.3003C209.067 65.7818 208.383 63.6267 208.383 60.9327C208.383 58.2387 209.067 56.1325 210.436 54.6141C211.805 53.0957 213.663 52.312 216.01 52.312C218.112 52.312 219.823 52.9488 221.192 54.2713C222.561 55.5938 223.197 57.504 223.197 60.051C223.197 60.9327 223.148 61.7164 223.05 62.4021H212.099C212.147 63.5777 212.587 64.5083 213.321 65.1941C214.054 65.9288 214.934 66.2717 215.961 66.2717C217.428 66.2717 218.601 65.6839 219.432 64.5573L221.828 67.0064C220.459 68.7697 218.503 69.6024 216.01 69.6024ZM212.196 59.2673H219.481C219.383 58.0918 219.041 57.1611 218.406 56.5734C217.77 55.9366 216.988 55.6427 216.059 55.6427C214.983 55.6427 214.103 55.9366 213.419 56.5244C212.636 57.1122 212.245 58.0428 212.196 59.2673Z" fill="#1E2DBE"/>
<path d="M225.836 69.2105V52.7039H229.601V54.4182C230.285 52.9977 231.41 52.312 232.974 52.312C234.147 52.312 235.174 52.7039 236.054 53.4386L235.516 56.9162C234.685 56.3285 233.756 56.0346 232.73 56.0346C231.85 56.0346 231.116 56.3285 230.529 56.9162C229.943 57.504 229.649 58.5326 229.649 59.9531V69.2105H225.836Z" fill="#1E2DBE"/>
<path d="M248.132 69.2105V59.7572C248.132 57.2101 247.106 55.8876 245.052 55.8876C242.803 55.8876 241.679 57.1611 241.679 59.6592V69.2105H237.914V52.7039H241.679V54.2713C242.754 52.9977 244.221 52.312 246.03 52.312C247.741 52.312 249.159 52.8508 250.235 53.9284C251.31 55.006 251.848 56.7203 251.848 59.0714V69.2105H248.132Z" fill="#1E2DBE"/>
<path d="M264.658 69.2105V67.888C263.582 69.0146 262.116 69.6024 260.258 69.6024C258.498 69.6024 257.08 69.1126 255.955 68.1819C254.831 67.2023 254.293 65.8798 254.293 64.1165C254.293 62.3532 254.929 60.9817 256.2 60.051C257.471 59.1204 258.987 58.6796 260.747 58.6796C262.311 58.6796 263.631 58.9735 264.658 59.5612V58.6796C264.658 57.602 264.413 56.8673 263.876 56.3774C263.338 55.8876 262.556 55.6427 261.431 55.6427C259.622 55.6427 258.009 56.1815 256.542 57.2101L255.369 54.1243C257.178 52.8998 259.329 52.312 261.822 52.312C262.702 52.312 263.436 52.361 264.12 52.5079C264.756 52.6549 265.44 52.8998 266.174 53.3406C266.858 53.7325 267.396 54.4182 267.787 55.2999C268.178 56.1815 268.374 57.2591 268.374 58.5816V69.2105H264.658ZM260.991 66.2717C262.409 66.2717 263.68 65.7329 264.658 64.7043V62.5491C263.729 62.1082 262.604 61.8633 261.382 61.8633C260.355 61.8633 259.573 62.0593 258.938 62.4021C258.302 62.745 258.009 63.3328 258.009 64.0675C258.009 64.7532 258.253 65.243 258.791 65.6349C259.329 66.0267 260.013 66.2717 260.991 66.2717Z" fill="#1E2DBE"/>
<path d="M278.25 69.6024C276.001 69.6024 274.192 68.8187 272.872 67.3003C271.552 65.7818 270.867 63.6756 270.867 60.9817C270.867 58.2877 271.552 56.1815 272.872 54.6141C274.192 53.0957 276.001 52.312 278.25 52.312C281.672 52.312 283.823 53.8304 284.801 56.8673L281.232 58.0428C280.694 56.6224 279.765 55.8876 278.396 55.8876C277.272 55.8876 276.343 56.3285 275.707 57.2591C275.072 58.1408 274.73 59.4143 274.73 60.9327C274.73 62.4511 275.023 63.6756 275.659 64.5573C276.294 65.439 277.125 65.8798 278.201 65.8798C279.717 65.8798 280.743 65.0961 281.183 63.4797L284.801 64.5573C283.921 67.986 281.721 69.6024 278.25 69.6024Z" fill="#1E2DBE"/>
<path d="M290.862 49.7649C290.422 50.2057 289.885 50.4506 289.298 50.4506C288.662 50.4506 288.124 50.2057 287.684 49.7649C287.244 49.324 287 48.7852 287 48.1485C287 47.5117 287.244 46.9729 287.684 46.5811C288.124 46.1403 288.662 45.9443 289.298 45.9443C289.933 45.9443 290.471 46.1403 290.862 46.5811C291.302 47.0219 291.498 47.5607 291.498 48.1485C291.498 48.8342 291.254 49.324 290.862 49.7649ZM287.342 69.2104V52.7037H291.107V69.2104H287.342Z" fill="#1E2DBE"/>
<path d="M301.422 69.6024C299.075 69.6024 297.266 68.8187 295.897 67.3003C294.528 65.7818 293.844 63.6756 293.844 60.9817C293.844 58.2877 294.528 56.1815 295.897 54.6141C297.266 53.0957 299.075 52.312 301.422 52.312C303.769 52.312 305.578 53.0957 306.947 54.6141C308.316 56.1325 309 58.2877 309 60.9817C309 63.6756 308.316 65.7818 306.947 67.3003C305.578 68.8677 303.769 69.6024 301.422 69.6024ZM301.422 65.9778C302.595 65.9778 303.524 65.5369 304.209 64.6553C304.893 63.7736 305.235 62.5491 305.235 60.9817C305.235 59.4143 304.893 58.1898 304.209 57.2591C303.524 56.3775 302.595 55.8876 301.422 55.8876C300.249 55.8876 299.368 56.3285 298.684 57.2591C297.999 58.1898 297.657 59.4143 297.657 60.9817C297.657 62.5491 297.999 63.7736 298.684 64.6553C299.32 65.5369 300.249 65.9778 301.422 65.9778Z" fill="#1E2DBE"/>
<path d="M321.957 69.2105V59.7572C321.957 57.2101 320.93 55.8876 318.876 55.8876C316.627 55.8876 315.503 57.1611 315.503 59.6592V69.2105H311.738V52.7039H315.503V54.2713C316.579 52.9977 318.045 52.312 319.854 52.312C321.565 52.312 322.983 52.8508 324.059 53.9284C325.134 55.006 325.672 56.7203 325.672 59.0714V69.2105H321.957Z" fill="#1E2DBE"/>
<path d="M338.482 69.2105V67.888C337.407 69.0146 335.94 69.6024 334.082 69.6024C332.322 69.6024 330.904 69.1126 329.78 68.1819C328.655 67.2023 328.117 65.8798 328.117 64.1165C328.117 62.3532 328.753 60.9817 330.024 60.051C331.295 59.1204 332.811 58.6796 334.571 58.6796C336.135 58.6796 337.455 58.9735 338.482 59.5612V58.6796C338.482 57.602 338.238 56.8673 337.7 56.3774C337.162 55.8876 336.38 55.6427 335.255 55.6427C333.446 55.6427 331.833 56.1815 330.366 57.2101L329.193 54.1243C331.002 52.8998 333.153 52.312 335.646 52.312C336.526 52.312 337.26 52.361 337.944 52.5079C338.58 52.6549 339.264 52.8998 339.998 53.3406C340.682 53.7325 341.22 54.4182 341.611 55.2999C342.002 56.1815 342.198 57.2591 342.198 58.5816V69.2105H338.482ZM334.815 66.2717C336.233 66.2717 337.504 65.7329 338.482 64.7043V62.5491C337.553 62.1082 336.429 61.8633 335.206 61.8633C334.18 61.8633 333.397 62.0593 332.762 62.4021C332.126 62.745 331.833 63.3328 331.833 64.0675C331.833 64.7532 332.077 65.243 332.615 65.6349C333.153 66.0267 333.837 66.2717 334.815 66.2717Z" fill="#1E2DBE"/>
<path d="M345.57 69.2106V47.6588L349.335 45.8955V69.2595H345.57V69.2106Z" fill="#1E2DBE"/>
<path d="M178.853 101.93C176.75 101.93 175.088 101.146 173.866 99.6281C172.643 98.1097 172.008 95.9545 172.008 93.2605C172.008 90.5666 172.643 88.5093 173.915 86.9419C175.186 85.3745 176.848 84.5908 178.853 84.5908C180.466 84.5908 181.688 85.1296 182.568 86.1582V79.8887L186.333 78.1743V101.538H182.568V100.363C181.737 101.44 180.466 101.93 178.853 101.93ZM179.39 98.3056C180.808 98.3056 181.835 97.7668 182.519 96.7382V89.8318C181.786 88.7542 180.759 88.2644 179.39 88.2644C178.217 88.2644 177.337 88.7053 176.701 89.5869C176.066 90.4686 175.772 91.6931 175.772 93.3095C175.772 94.8279 176.115 96.0524 176.75 96.9831C177.386 97.8648 178.266 98.3056 179.39 98.3056Z" fill="#1E2DBE"/>
<path d="M196.697 101.93C194.351 101.93 192.493 101.146 191.124 99.6279C189.755 98.1095 189.07 95.9543 189.07 93.2603C189.07 90.5664 189.755 88.4602 191.124 86.9418C192.493 85.4233 194.351 84.6396 196.697 84.6396C198.8 84.6396 200.511 85.2764 201.88 86.5989C203.249 87.9214 203.884 89.8317 203.884 92.3787C203.884 93.2603 203.835 94.044 203.738 94.7298H192.786C192.835 95.9053 193.275 96.836 194.008 97.5217C194.742 98.2564 195.622 98.5993 196.648 98.5993C198.115 98.5993 199.289 98.0115 200.12 96.8849L202.515 99.334C201.098 101.097 199.142 101.93 196.697 101.93ZM192.835 91.595H200.12C200.022 90.4194 199.68 89.4888 199.044 88.901C198.409 88.2643 197.626 87.9704 196.697 87.9704C195.622 87.9704 194.742 88.2643 194.057 88.852C193.324 89.4398 192.933 90.3704 192.835 91.595Z" fill="#1E2DBE"/>
<path d="M206.574 101.538V79.9865L210.339 78.2231V101.587L206.574 101.538Z" fill="#1E2DBE"/>
<path d="M231.119 82.6313V101.538H227.256V82.6313H220.852V78.9087H237.572V82.6313H231.119Z" fill="#1E2DBE"/>
<path d="M237.426 101.538V85.0315H241.19V86.7458C241.875 85.3254 242.999 84.6396 244.564 84.6396C245.737 84.6396 246.764 85.0315 247.644 85.7662L247.106 89.2439C246.275 88.6561 245.346 88.3622 244.319 88.3622C243.439 88.3622 242.706 88.6561 242.119 89.2439C241.533 89.8317 241.239 90.8603 241.239 92.2807V101.538H237.426Z" fill="#1E2DBE"/>
<path d="M258.838 101.538V100.216C257.762 101.342 256.295 101.93 254.437 101.93C252.677 101.93 251.259 101.44 250.135 100.51C249.01 99.5299 248.473 98.2074 248.473 96.4441C248.473 94.6808 249.108 93.3093 250.379 92.3787C251.651 91.448 253.166 91.0072 254.926 91.0072C256.491 91.0072 257.811 91.3011 258.838 91.8889V91.0072C258.838 89.9296 258.593 89.1949 258.055 88.7051C257.518 88.2153 256.735 87.9704 255.611 87.9704C253.802 87.9704 252.188 88.5092 250.722 89.5378L249.548 86.452C251.357 85.2274 253.508 84.6396 256.002 84.6396C256.882 84.6396 257.615 84.6886 258.3 84.8356C258.935 84.9825 259.62 85.2274 260.353 85.6682C261.038 86.0601 261.576 86.7458 261.967 87.6275C262.358 88.5092 262.553 89.5868 262.553 90.9092V101.538H258.838ZM255.122 98.5993C256.54 98.5993 257.811 98.0605 258.789 97.0319V94.8767C257.86 94.4359 256.735 94.191 255.513 94.191C254.486 94.191 253.704 94.3869 253.068 94.7298C252.433 95.0726 252.139 95.6604 252.139 96.3951C252.139 97.0809 252.384 97.5707 252.922 97.9625C253.46 98.3544 254.193 98.5993 255.122 98.5993Z" fill="#1E2DBE"/>
<path d="M273.264 101.93C271.699 101.93 270.477 101.391 269.597 100.265V101.538H265.832V79.8887L269.597 78.1743V86.2072C270.526 85.1296 271.748 84.5908 273.312 84.5908C275.366 84.5908 277.028 85.3745 278.25 86.9419C279.522 88.5093 280.157 90.6155 280.157 93.2605C280.157 95.9055 279.522 98.1586 278.299 99.6771C277.077 101.195 275.415 101.93 273.264 101.93ZM272.824 98.3056C273.997 98.3056 274.877 97.8648 275.464 96.9831C276.099 96.1014 276.393 94.8769 276.393 93.2605C276.393 91.6441 276.099 90.3706 275.464 89.489C274.828 88.6073 273.948 88.2155 272.824 88.2155C271.406 88.2155 270.33 88.7542 269.646 89.8318V96.7382C270.281 97.8158 271.357 98.3056 272.824 98.3056Z" fill="#1E2DBE"/>
<path d="M292.377 101.538V100.216C291.301 101.342 289.834 101.93 287.976 101.93C286.216 101.93 284.799 101.44 283.674 100.51C282.55 99.5299 282.012 98.2074 282.012 96.4441C282.012 94.6808 282.647 93.3093 283.918 92.3787C285.19 91.448 286.705 91.0072 288.465 91.0072C290.03 91.0072 291.35 91.3011 292.377 91.8889V91.0072C292.377 89.9296 292.132 89.1949 291.594 88.7051C291.057 88.2153 290.274 87.9704 289.15 87.9704C287.341 87.9704 285.727 88.5092 284.261 89.5378L283.087 86.452C284.896 85.2274 287.047 84.6396 289.541 84.6396C290.421 84.6396 291.154 84.6886 291.839 84.8356C292.474 84.9825 293.159 85.2274 293.892 85.6682C294.577 86.0601 295.115 86.7458 295.506 87.6275C295.897 88.5092 296.092 89.5868 296.092 90.9092V101.538H292.377ZM288.661 98.5993C290.079 98.5993 291.35 98.0605 292.328 97.0319V94.8767C291.399 94.4359 290.274 94.191 289.052 94.191C288.025 94.191 287.243 94.3869 286.607 94.7298C285.972 95.0726 285.679 95.6604 285.679 96.3951C285.679 97.0809 285.923 97.5707 286.461 97.9625C286.999 98.3544 287.732 98.5993 288.661 98.5993Z" fill="#1E2DBE"/>
<path d="M296.682 108.493L294.824 105.603C296.535 105.261 297.758 104.771 298.393 104.232C299.029 103.693 299.371 102.91 299.371 101.832V85.0314H303.136V100.705C303.136 103.105 302.598 104.82 301.571 105.946C300.398 107.171 298.784 108.004 296.682 108.493ZM302.842 82.0925C302.402 82.5333 301.865 82.7782 301.278 82.7782C300.642 82.7782 300.104 82.5333 299.664 82.0925C299.224 81.6517 298.98 81.1129 298.98 80.4761C298.98 79.8394 299.224 79.3006 299.664 78.9087C300.104 78.4679 300.642 78.272 301.278 78.272C301.913 78.272 302.451 78.4679 302.842 78.9087C303.282 79.3496 303.478 79.8884 303.478 80.4761C303.527 81.1619 303.282 81.6517 302.842 82.0925Z" fill="#1E2DBE"/>
<path d="M313.402 101.93C311.056 101.93 309.247 101.146 307.878 99.6279C306.509 98.1095 305.824 96.0033 305.824 93.3093C305.824 90.6154 306.509 88.5092 307.878 86.9418C309.247 85.4233 311.056 84.6396 313.402 84.6396C315.749 84.6396 317.558 85.4233 318.927 86.9418C320.296 88.4602 320.981 90.6154 320.981 93.3093C320.981 96.0033 320.296 98.1095 318.927 99.6279C317.607 101.195 315.749 101.93 313.402 101.93ZM313.402 98.3054C314.576 98.3054 315.505 97.8646 316.189 96.9829C316.874 96.1012 317.216 94.8767 317.216 93.3093C317.216 91.7419 316.874 90.5174 316.189 89.5867C315.505 88.6561 314.576 88.2153 313.402 88.2153C312.229 88.2153 311.349 88.6561 310.664 89.5867C309.98 90.5174 309.638 91.7419 309.638 93.3093C309.638 94.8767 309.98 96.1012 310.664 96.9829C311.349 97.8646 312.278 98.3054 313.402 98.3054Z" fill="#1E2DBE"/>
<path d="M34.7204 33.0624C34.0849 34.14 33.8893 34.5808 33.8893 34.5808C33.4004 35.5115 32.227 36.0013 31.2492 35.6094L29.4891 34.9237C28.5113 34.5318 27.3868 35.0706 27.0445 36.0503L25.6756 39.6259C25.2844 40.6055 25.8222 41.7321 26.8001 42.075L28.5602 42.7607C29.538 43.1525 30.1247 44.2791 29.8802 45.3077L29.098 49.1772C28.9513 50.2058 27.9246 51.0385 26.8979 50.9895L24.9911 50.9405C23.9644 50.8916 23.0843 51.7242 23.0354 52.8018L22.8888 56.6224C22.8399 57.651 23.671 58.5326 24.7466 58.5816L26.6534 58.6306C27.6801 58.6796 28.6579 59.5612 28.7068 60.5898L29.2446 64.5083C29.4402 65.5369 28.7557 66.6145 27.7779 66.9574L25.92 67.5452C24.9422 67.8391 24.3555 68.9166 24.6489 69.9453L26.3112 75.4311L36.5783 72.2474C31.8848 60.7368 32.3248 47.267 39.0229 35.6584C45.721 24.0499 57.1615 16.8986 69.4332 15.2333L67.0865 4.65332L61.5129 5.92683C60.4861 6.17174 59.8505 7.20034 60.095 8.22895L60.535 10.1392C60.7795 11.1678 60.1439 12.2944 59.1661 12.6373L55.4992 14.1557C54.5703 14.5965 53.2991 14.2047 52.7613 13.323L51.7346 11.7066C51.1968 10.825 50.0234 10.5311 49.0945 11.1188L45.8677 13.1271C44.9876 13.6659 44.6943 14.8414 45.281 15.7721L46.3077 17.3884C46.8455 18.2701 46.6499 19.5436 45.8188 20.1804L42.8364 22.8253C42.103 23.5601 40.783 23.609 40.0007 22.9233L38.534 21.6988C37.7028 21.013 36.5294 21.16 35.8449 21.9927L33.4493 24.9315C32.7648 25.7642 32.9115 26.9398 33.7426 27.6255L35.2094 28.85C36.0405 29.5358 36.2361 30.7603 35.6494 31.642C35.6005 31.593 35.356 31.9848 34.7204 33.0624Z" fill="#1E2DBE"/>
<path d="M74.3728 101.881C75.5951 101.881 76.1329 101.832 76.1329 101.832C77.1596 101.783 78.1863 102.566 78.333 103.595L78.6264 105.505C78.773 106.534 79.7509 107.269 80.8265 107.073L84.5911 106.485C85.6178 106.338 86.3512 105.309 86.1556 104.281L85.8623 102.42C85.7156 101.391 86.4001 100.313 87.3779 100.019L91.1425 98.7459C92.1204 98.3541 93.3426 98.7949 93.8315 99.7256L94.7116 101.391C95.2005 102.322 96.3739 102.664 97.3028 102.175L100.676 100.362C101.605 99.8725 101.947 98.697 101.459 97.7663L100.53 96.052C100.041 95.1213 100.334 93.8968 101.165 93.26L104.294 90.86C105.077 90.1742 106.397 90.2232 107.13 90.9089L108.548 92.2314C109.33 92.9662 110.503 92.9172 111.237 92.1335L115.148 87.9701L107.277 80.6719C99.6985 90.5171 87.769 96.8357 74.4217 96.8357C61.0744 96.8357 49.1449 90.5171 41.5668 80.6719L33.6953 87.9701L37.6066 92.1335C38.34 92.9172 39.5134 92.9662 40.2956 92.2314L41.7135 90.9089C42.4957 90.1742 43.7669 90.1742 44.5492 90.86L47.6782 93.26C48.5094 93.8478 48.8516 95.1213 48.3138 96.052L47.3849 97.7663C46.8959 98.697 47.2382 99.8725 48.1671 100.362L51.5406 102.175C52.4696 102.664 53.6429 102.322 54.1319 101.391L55.0119 99.7256C55.5008 98.7949 56.7231 98.3541 57.7009 98.7459L61.4655 100.019C62.4923 100.313 63.1767 101.391 62.9812 102.42L62.6878 104.281C62.5411 105.309 63.2256 106.289 64.2523 106.485L68.017 107.073C69.0437 107.22 70.0215 106.534 70.2171 105.505L70.5104 103.595C70.6571 102.566 71.6838 101.783 72.7105 101.832C72.6127 101.832 73.1017 101.881 74.3728 101.881Z" fill="#1E2DBE"/>
<path d="M114.023 33.1114C113.388 32.0338 113.143 31.593 113.143 31.593C112.557 30.7113 112.752 29.4378 113.583 28.801L115.05 27.5765C115.881 26.8908 115.979 25.7152 115.343 24.8826L112.948 21.9437C112.263 21.111 111.09 21.013 110.259 21.6498L108.792 22.8743C107.961 23.5601 106.69 23.4621 105.956 22.7764L102.974 20.1314C102.143 19.4946 101.947 18.2211 102.485 17.3394L103.512 15.7231C104.05 14.8414 103.805 13.6659 102.925 13.0781L99.6983 11.0699C98.8182 10.5311 97.6448 10.776 97.0581 11.6576L96.0314 13.274C95.4936 14.1557 94.2713 14.5475 93.2935 14.1067L89.6267 12.5883C88.6488 12.2454 88.0133 11.1188 88.2577 10.0902L88.6977 8.17997C88.9422 7.15136 88.3066 6.12276 87.2799 5.87785L81.6574 4.65332L79.2617 15.1353C91.5823 16.8007 102.974 23.9519 109.672 35.5605C116.37 47.169 116.81 60.6388 112.117 72.1494L122.384 75.3332L124.046 69.8473C124.339 68.8677 123.802 67.7901 122.775 67.4472L120.917 66.8594C119.939 66.5655 119.255 65.439 119.45 64.4104L119.988 60.4919C120.086 59.4633 121.015 58.5816 122.042 58.5326L123.948 58.4837C124.975 58.4347 125.806 57.553 125.806 56.5244L125.66 52.7039C125.611 51.6753 124.731 50.8426 123.704 50.8426L121.797 50.8916C120.77 50.9405 119.744 50.1079 119.597 49.0793L118.815 45.2098C118.57 44.1811 119.157 43.0546 120.135 42.6627L121.895 41.977C122.873 41.5851 123.362 40.5076 123.019 39.5279L121.65 35.9523C121.259 34.9727 120.184 34.4829 119.206 34.8257L117.446 35.5115C116.468 35.9033 115.295 35.4135 114.806 34.4829C114.855 34.6298 114.61 34.14 114.023 33.1114Z" fill="#1E2DBE"/>
<path d="M14.8735 32.1807C14.8242 32.2296 14.8242 32.2786 14.8242 32.2786C14.8242 32.2786 14.8735 32.2296 14.8735 32.1807Z" fill="#1E2DBE"/>
<path d="M31.25 10.5799L31.3967 10.7759C31.8367 10.482 33.4012 9.35541 35.2591 8.81662C45.624 5.87774 45.0862 2.30212 49.4864 0.195925L49.3398 0C48.8997 0.293887 47.5797 1.07759 45.6729 1.07759C33.5479 1.22453 34.4768 8.3268 31.25 10.5799Z" fill="#1E2DBE"/>
<path d="M19.1758 24.0989L19.4202 24.2459C21.8648 21.5029 24.2605 21.0131 24.6516 20.8661C34.2832 18.0252 37.6567 11.6087 40.2479 9.7964L40.1501 9.64946C36.5811 12.1965 32.3764 9.60047 25.1405 17.3395C25.0916 17.3885 24.8961 17.0946 24.8961 17.0946C30.763 10.0413 30.9097 5.24115 33.5987 2.59616L33.452 2.44922C16.389 12.6863 23.8693 18.2701 19.1758 24.0989Z" fill="#1E2DBE"/>
<path d="M19.9078 12.2944C3.82258 28.2623 13.7964 32.3277 11.3029 40.2627L11.4496 40.3117C12.9164 36.932 16.6321 35.4625 16.7299 35.4136C23.5258 32.2788 25.677 24.2948 28.4149 21.8947L28.2682 21.7968C24.9436 25.4214 19.4678 23.3642 14.9698 32.3277C14.9698 32.3767 14.6764 32.1808 14.6764 32.1808C18.2944 24.3928 16.5832 17.3395 20.0545 12.4414C20.0056 12.3924 19.9567 12.2944 19.9078 12.2944Z" fill="#1E2DBE"/>
<path d="M8.22286 61.4712H8.46732C8.41842 60.5406 8.17397 56.769 11.9386 53.2424C19.5656 46.1401 18.2945 39.8705 21.4235 34.9724L21.179 34.8254C18.7345 38.9888 9.83627 43.5441 9.49403 49.9116L9.15179 49.8627C10.4719 40.7032 5.63162 34.6295 8.27175 28.8008C8.17397 28.7518 8.07619 28.7028 8.02729 28.6538C-2.19098 49.7647 6.26721 49.4708 8.22286 61.4712Z" fill="#1E2DBE"/>
<path d="M12.1335 81.4556L12.378 81.3577C10.2757 76.6065 13.7958 70.141 13.9425 69.7981C18.5872 60.7856 17.0227 52.6057 18.0983 49.7648L17.8538 49.7158C15.3604 55.8875 8.51558 59.2672 9.59118 69.6512H9.24895C8.17334 63.1856 0.839652 57.014 1.08411 49.9607H0.937434C-3.56056 74.9901 9.44451 74.8432 12.1335 81.4556Z" fill="#1E2DBE"/>
<path d="M22.5464 99.9704L22.742 99.8235C18.3907 94.5335 19.7107 88.8027 19.8085 88.4108C21.9597 75.9206 17.9506 73.6675 17.8529 68.0347H17.6573C17.4617 74.3532 11.0081 81.4555 16.875 90.2721L16.5817 90.4681C10.128 81.0147 4.99446 83.3168 1.96321 73.9614C1.86542 73.9614 1.76764 74.0104 1.71875 74.0594C6.16785 101.538 18.3907 93.211 22.5464 99.9704Z" fill="#1E2DBE"/>
<path d="M47.7256 111.971L47.6768 111.726C39.1697 113.441 34.8184 111.775 33.3027 103.938C31.1515 92.9176 23.6712 88.7052 22.7911 84.2969C22.6444 84.2969 22.5955 84.2969 22.5955 84.3459C24.209 92.1339 20.4443 96.7381 29.7826 106.045L29.5381 106.24C20.5421 99.0892 14.3329 101.734 10.7639 96.7381C10.715 96.7871 10.6172 96.8361 10.6172 96.885C21.7155 115.498 33.6939 116.478 47.7256 111.971Z" fill="#1E2DBE"/>
<path d="M26.7031 115.155L26.752 115.057C38.1926 121.718 50.1709 112.412 64.6427 112.069C68.2607 111.971 79.1634 112.657 89.1372 124.265L86.4971 125C83.2214 119.269 78.1367 115.106 73.4921 113.979C60.2914 110.698 60.047 122.992 45.4285 123.188C34.5746 123.384 27.1431 115.596 26.7031 115.155Z" fill="#1E2DBE"/>
<path d="M14.8735 32.1807C14.8242 32.2296 14.8242 32.2786 14.8242 32.2786C14.8242 32.2786 14.8735 32.2296 14.8735 32.1807Z" fill="#1E2DBE"/>
<path d="M117.299 10.5799L117.152 10.7759C116.712 10.482 115.148 9.35541 113.29 8.81662C102.925 5.87774 103.463 2.30212 99.0625 0.195925L99.2092 0C99.6492 0.293887 100.969 1.07759 102.876 1.07759C115.05 1.22453 114.121 8.3268 117.299 10.5799Z" fill="#1E2DBE"/>
<path d="M129.375 24.0989L129.179 24.2459C126.735 21.5029 124.339 21.0131 123.948 20.8661C114.316 18.0252 110.943 11.6087 108.352 9.7964L108.449 9.64946C112.018 12.1965 116.223 9.60047 123.459 17.3395C123.508 17.3885 123.703 17.0946 123.703 17.0946C117.836 9.99232 117.69 5.19217 115.001 2.59616L115.147 2.44922C132.21 12.6863 124.681 18.2701 129.375 24.0989Z" fill="#1E2DBE"/>
<path d="M128.691 12.2944C144.776 28.2623 134.753 32.3277 137.296 40.3117L137.149 40.3607C135.682 36.981 131.966 35.5115 131.869 35.4625C125.073 32.3277 122.922 24.3438 120.184 21.9437L120.33 21.7968C123.655 25.4214 129.131 23.3642 133.629 32.3277C133.629 32.3767 133.922 32.1808 133.922 32.1808C130.304 24.3928 132.015 17.3395 128.544 12.4414C128.593 12.3924 128.642 12.2944 128.691 12.2944Z" fill="#1E2DBE"/>
<path d="M140.376 61.4712H140.132C140.181 60.5406 140.425 56.769 136.661 53.2424C129.034 46.1401 130.305 39.8705 127.176 34.9724L127.42 34.8254C129.865 38.9888 138.763 43.5441 139.105 49.9116L139.447 49.8627C138.127 40.7032 142.968 34.6295 140.328 28.8008C140.425 28.7518 140.523 28.7028 140.572 28.6538C150.79 49.7647 142.283 49.4708 140.376 61.4712Z" fill="#1E2DBE"/>
<path d="M136.414 81.4556L136.169 81.3577C138.272 76.6065 134.752 70.141 134.605 69.7981C129.96 60.7856 131.525 52.6057 130.449 49.7648L130.694 49.7158C133.187 55.8875 140.032 59.2672 138.956 69.6512H139.299C140.374 63.1856 147.708 57.014 147.463 49.9607H147.61C152.108 74.9901 139.152 74.8432 136.414 81.4556Z" fill="#1E2DBE"/>
<path d="M126.051 99.9704L125.855 99.8235C130.207 94.5335 128.887 88.8027 128.789 88.4108C126.638 75.9206 130.647 73.6675 130.745 68.0347H130.94C131.136 74.3532 137.589 81.4555 131.722 90.2721L132.016 90.4681C138.469 81.0147 143.603 83.3168 146.634 73.9614C146.732 73.9614 146.83 74.0104 146.879 74.0594C142.381 101.538 130.158 93.211 126.051 99.9704Z" fill="#1E2DBE"/>
<path d="M100.82 111.971L100.869 111.726C109.376 113.441 113.728 111.775 115.243 103.938C117.394 92.9176 124.875 88.7052 125.755 84.2969C125.902 84.2969 125.95 84.2969 125.95 84.3459C124.337 92.1339 128.102 96.7381 118.763 106.045L119.008 106.24C128.004 99.0892 134.213 101.734 137.782 96.7381C137.831 96.7871 137.929 96.8361 137.929 96.885C126.879 115.498 114.901 116.478 100.82 111.971Z" fill="#1E2DBE"/>
<path d="M121.844 115.155L121.795 115.057C110.355 121.718 98.3765 112.412 83.9047 112.069C80.2867 111.971 69.384 112.657 59.4102 124.265L62.0503 125C65.326 119.269 70.4107 115.106 75.0554 113.979C88.256 110.698 88.5004 122.992 103.119 123.188C114.022 123.384 121.453 115.596 121.844 115.155Z" fill="#1E2DBE"/>
<path d="M14.8735 32.1807C14.8242 32.2296 14.8242 32.2786 14.8242 32.2786C14.8242 32.2786 14.8735 32.2296 14.8735 32.1807Z" fill="#1E2DBE"/>
<path d="M14.8735 32.1807C14.8242 32.2296 14.8242 32.2786 14.8242 32.2786C14.8242 32.2786 14.8735 32.2296 14.8735 32.1807Z" fill="#1E2DBE"/>
<path d="M78.4317 32.0825C78.5784 29.9763 80.8274 29.8294 80.8274 29.8294H83.8098V27.0864H66.2578V29.8294H69.2402C69.2402 29.8294 71.4892 29.9763 71.6358 32.0825V77.8309C71.4892 79.9371 69.2402 80.0841 69.2402 80.0841H66.2578V82.827H83.8098V80.0841H80.8274C80.8274 80.0841 78.5784 79.9371 78.4317 77.8309V32.0825Z" fill="#1E2DBE"/>
<path d="M107.032 36.3442V48.2467H104.832V45.0139C104.832 45.0139 105.369 37.9606 97.6935 38.5974V70.1413C97.6935 70.1413 97.889 72.0025 101.36 71.7576V73.7659H88.1108V71.7576C91.6309 71.9536 91.7776 70.1413 91.7776 70.1413V38.5974C84.1995 37.9606 84.6884 45.0139 84.6884 45.0139V48.2467H82.4883V36.3442H107.032Z" fill="#1E2DBE"/>
<path d="M53.2028 35.1685H53.0072C47.6781 35.1685 42.4956 38.5971 39.9533 44.3769C38.6332 47.3158 38.3398 51.0873 38.3398 54.7609C38.3398 58.4345 38.6332 62.2061 39.9533 65.1449C42.4956 70.8757 47.6781 74.8432 53.0072 74.8432H53.2028C58.5319 74.8432 63.7144 70.9247 66.2567 65.1449C67.5768 62.2061 67.8702 58.4345 67.8702 54.7609C67.8702 51.0873 67.5768 47.3158 66.2567 44.3769C63.6655 38.6461 58.5319 35.1685 53.2028 35.1685ZM61.4165 55.0058C61.4165 58.4345 61.3187 61.4224 61.3187 61.4224C61.1232 64.2143 61.0743 67.0552 59.7542 68.9655C58.2875 71.1696 55.9407 72.2962 53.545 72.2962L53.4472 72.3452H53.1539L53.0561 72.2962C50.7093 72.2962 48.3137 71.1696 46.8469 68.9655C45.5269 67.0552 45.478 64.2143 45.2824 61.4224C45.2824 61.4224 45.1846 58.4835 45.1846 55.1038V54.9569C45.1846 51.5282 45.2824 48.5403 45.2824 48.5403C45.478 45.7484 45.5269 42.9075 46.8469 40.9972C48.3137 38.7931 50.6604 37.6665 53.0561 37.6665L53.1539 37.6175H53.4472L53.545 37.6665C55.8918 37.6665 58.2875 38.7931 59.7542 40.9972C61.0743 42.9075 61.1232 45.7484 61.3187 48.5403C61.3187 48.5403 61.4165 51.4792 61.4165 54.8589V55.0058Z" fill="#1E2DBE"/>
</g>
<defs>
<clipPath id="clip0_506_21228">
<rect width="351" height="125" fill="white"/>
</clipPath>
</defs>
</svg>
