<svg width="388" height="387" viewBox="0 0 388 387" fill="none" xmlns="http://www.w3.org/2000/svg">
<g clip-path="url(#clip0_506_3601)">
<path d="M340.118 331.637C332.218 339.941 324.743 345.296 318.838 349.526C249.419 399.259 167.277 384.763 149.82 381.222C124.041 375.994 74.211 365.888 38.1843 323.586C-16.3194 259.589 -7.83249 158.76 34.4455 92.2032C42.1779 80.0279 83.0273 12.4563 166.054 1.62031C216.299 -4.93795 274.871 8.28915 317.286 43.7701C406.32 118.25 399.982 268.71 340.118 331.637Z" fill="url(#paint0_linear_506_3601)"/>
<path d="M6.83723 130.969C6.45794 130.795 6.19355 130.416 6.19216 129.98C6.18663 128.542 6.21154 127.08 6.26553 125.634C6.28768 125.04 6.7957 124.585 7.39923 124.618C8.86378 124.689 8.36544 126.118 8.37929 130.009C8.38205 130.603 7.89341 131.079 7.28849 131.07C7.12654 131.067 6.97427 131.032 6.83584 130.968L6.83723 130.969Z" fill="#91B3FA"/>
<path d="M7.65566 112.18C8.118 109.456 8.69662 106.718 9.37491 104.042C9.52025 103.467 10.1141 103.126 10.701 103.279C12.2971 103.706 11.1772 104.543 9.8151 112.57C9.71543 113.155 9.15204 113.542 8.55543 113.434C7.95051 113.325 7.55738 112.758 7.65566 112.18ZM13.5235 91.1967C14.5437 88.6162 15.6857 86.0289 16.8803 83.5949C17.5199 82.286 19.4703 83.3047 18.8543 84.5569C17.6652 86.9839 16.5633 89.4801 15.5653 92.0066C15.348 92.5581 14.714 92.8221 14.1506 92.5982C13.5803 92.3715 13.309 91.7413 13.5235 91.1953V91.1967ZM23.5912 71.884C25.1167 69.5841 26.7542 67.316 28.4624 65.1433C29.3428 64.0238 31.0787 65.3631 30.2038 66.4785C28.5316 68.6083 26.9259 70.8308 25.4309 73.0837C24.6446 74.2696 22.8077 73.0671 23.5912 71.8854V71.884ZM37.5099 56.5892C37.0794 56.1649 37.0753 55.4821 37.5002 55.0675C39.4783 53.1311 41.5616 51.2486 43.6934 49.4726C44.7897 48.559 46.221 50.212 45.1261 51.1256C43.0372 52.8671 40.9955 54.7109 39.0575 56.6072C38.6325 57.0232 37.939 57.0149 37.5099 56.5906V56.5892ZM54.3563 42.9516C54.0213 42.4513 54.1584 41.7851 54.6622 41.4644C57.0085 39.9717 59.4448 38.5523 61.9019 37.2461C63.1671 36.5772 64.233 38.4721 62.9678 39.1452C60.5592 40.4251 58.1727 41.8155 55.8734 43.2778C55.371 43.5985 54.6913 43.452 54.3563 42.9502V42.9516ZM74.2868 33.6014C74.0377 33.4867 73.8314 33.2822 73.7207 33.0126C73.495 32.457 73.7663 31.835 74.327 31.6222C76.9418 30.6326 79.6259 29.7328 82.3086 28.9491C82.8858 28.7805 83.499 29.1053 83.6818 29.6761C83.8631 30.247 83.5433 30.8454 82.9661 31.0141C80.3388 31.7825 77.7073 32.6643 75.1451 33.6332C74.8571 33.7424 74.5498 33.7217 74.2868 33.6014ZM95.4202 27.9747C95.1019 27.8282 94.8582 27.5366 94.7918 27.1731C94.6852 26.5857 95.0797 26.0328 95.6749 25.9374C98.4435 25.4938 101.267 25.1538 104.068 24.9243C104.668 24.8746 105.206 25.3155 105.265 25.9084C105.326 26.5 104.887 27.021 104.285 27.0694C101.541 27.2933 98.7757 27.6278 96.0625 28.0618C95.8369 28.0977 95.614 28.0618 95.4202 27.9733V27.9747ZM116.706 25.6969C116.723 25.1026 117.226 24.6438 117.83 24.67C120.64 24.7944 123.486 25.0308 126.288 25.3735C127.732 25.5532 127.491 27.6845 126.055 27.5103C123.31 27.1758 120.522 26.9436 117.769 26.822C117.167 26.7958 116.688 26.2927 116.706 25.6983V25.6969ZM185.069 53.9466C178.877 48.4926 177.399 48.4691 178.393 47.1796C178.754 46.7097 179.439 46.6254 179.924 46.9875C182.178 48.6834 184.395 50.4884 186.511 52.353C187.598 53.3094 186.158 54.9044 185.067 53.9466H185.069ZM138.543 28.6727C138.682 28.0963 139.272 27.7494 139.86 27.8973C142.596 28.5842 145.342 29.3859 148.023 30.2801C149.402 30.7404 148.729 32.7777 147.353 32.3174C144.725 31.4411 142.034 30.6547 139.354 29.9816C138.759 29.8309 138.404 29.2421 138.543 28.6713V28.6727ZM167.312 41.2433C160.156 37.1439 158.689 37.4106 159.392 35.9386C159.838 35.0057 160.979 35.4466 160.847 35.4424C163.405 36.6587 165.943 37.987 168.389 39.3871C168.915 39.6884 169.1 40.349 168.802 40.8604C168.519 41.3497 167.872 41.5543 167.312 41.2433Z" fill="#91B3FA"/>
<path d="M197.461 66.8349C195.141 63.9808 193.648 62.9635 194.765 62.0168C195.218 61.6325 195.91 61.6837 196.31 62.1398C198.828 64.9953 200.111 66.1535 199.002 67.0187C198.67 67.2786 197.844 67.3007 197.463 66.8349H197.461Z" fill="#91B3FA"/>
<path d="M221.153 147.08C220.728 146.883 220.456 146.434 220.516 145.956C220.692 144.552 220.84 143.129 220.956 141.725C221.006 141.134 221.533 140.701 222.137 140.76C222.738 140.821 223.188 141.346 223.139 141.938C223.02 143.37 222.868 144.822 222.689 146.256C222.616 146.845 222.069 147.255 221.47 147.172C221.358 147.157 221.251 147.125 221.153 147.08Z" fill="#91B3FA"/>
<path d="M67.3778 226.741C64.6481 225.393 61.9418 223.917 59.3353 222.353C58.8148 222.04 58.6431 221.377 58.9518 220.871C59.8211 219.446 60.3416 220.876 68.3302 224.818C68.8742 225.086 69.1012 225.735 68.8382 226.265C68.3786 227.193 67.2449 226.735 67.3764 226.739L67.3778 226.741ZM80.4272 231.064C80.956 229.484 81.8239 230.781 90.4132 232.931C91.0029 233.077 91.3656 233.665 91.2258 234.24C91.086 234.817 90.4963 235.164 89.9093 235.017C86.9706 234.282 84.0152 233.412 81.1276 232.432C80.549 232.236 80.2417 231.621 80.4272 231.063V231.064ZM47.1303 213.863C44.7618 211.966 42.4418 209.945 40.2367 207.858C39.7979 207.442 39.7785 206.761 40.1938 206.335C41.3649 205.137 41.5504 206.642 48.4952 212.202C48.9672 212.581 49.0461 213.259 48.6696 213.718C48.2931 214.176 47.6051 214.241 47.1317 213.863H47.1303ZM104.188 237.559C103.773 237.368 103.503 236.934 103.548 236.463C103.607 235.873 104.141 235.447 104.742 235.515C107.703 235.845 110.706 236.054 113.67 236.137C114.276 236.153 114.759 236.648 114.753 237.242C114.746 237.837 114.251 238.305 113.647 238.289C110.621 238.204 107.554 237.991 104.533 237.654C104.411 237.64 104.293 237.607 104.188 237.559ZM127.848 237.606C127.513 237.451 127.261 237.135 127.211 236.749C127.135 236.159 127.56 235.627 128.159 235.562C131.102 235.245 134.067 234.8 136.974 234.239C137.565 234.124 138.146 234.506 138.272 235.089C138.398 235.672 138.022 236.238 137.431 236.352C134.464 236.924 131.438 237.379 128.435 237.703C128.227 237.725 128.026 237.689 127.849 237.607L127.848 237.606ZM150.858 232.544C150.598 232.424 150.383 232.206 150.278 231.918C150.073 231.356 150.368 230.743 150.936 230.551C153.728 229.607 156.513 228.535 159.213 227.363C159.763 227.125 160.412 227.372 160.664 227.917C160.916 228.462 160.675 229.097 160.126 229.335C157.37 230.531 154.528 231.625 151.679 232.589C151.401 232.683 151.109 232.659 150.858 232.543V232.544ZM172.113 222.65C171.925 222.563 171.759 222.423 171.64 222.238C171.316 221.731 171.467 221.067 171.978 220.758C174.485 219.236 176.956 217.587 179.321 215.861C179.803 215.51 180.488 215.612 180.855 216.093C181.22 216.572 181.128 217.245 180.646 217.597C178.232 219.359 175.711 221.041 173.152 222.594C172.829 222.791 172.439 222.798 172.115 222.648L172.113 222.65ZM190.265 208.168C189.062 206.966 190.586 206.85 196.307 200.262C197.239 199.188 198.915 200.603 197.982 201.677C196.031 203.924 193.956 206.116 191.813 208.192C191.388 208.604 190.696 208.597 190.265 208.168ZM205.222 190.355C203.782 189.44 205.23 189.006 209.319 181.307C209.982 180.059 211.93 181.075 211.263 182.33C209.868 184.957 208.343 187.552 206.731 190.044C206.404 190.548 205.719 190.677 205.222 190.355ZM215.687 169.651C215.172 169.415 214.913 168.828 215.107 168.3C216.109 165.552 217.001 162.739 217.759 159.942C217.914 159.37 218.514 159.038 219.098 159.2C219.683 159.365 220.029 159.957 219.874 160.529C219.101 163.385 218.19 166.254 217.168 169.057C216.966 169.614 216.339 169.895 215.77 169.686C215.741 169.676 215.713 169.664 215.687 169.651Z" fill="#91B3FA"/>
<path d="M30.1403 196.906C27.7538 193.937 26.5287 192.726 27.679 191.914C28.875 191.066 29.4052 192.548 31.8484 195.59C32.2263 196.06 32.1502 196.737 31.6795 197.101C31.2075 197.464 30.5195 197.377 30.1416 196.907L30.1403 196.906Z" fill="#91B3FA"/>
<path d="M44.0105 170.635L59.6789 169.813C64.0172 175.705 69.33 180.976 75.5051 185.352C75.0511 200.349 73.9548 201.369 75.5176 202.014L92.9952 209.233C93.506 209.443 94.0915 209.315 94.4515 208.912L104.741 197.427C112.202 198.683 119.681 198.696 126.908 197.58L137.44 209.225C137.809 209.632 138.396 209.769 138.903 209.566L156.236 202.6C156.743 202.397 157.057 201.897 157.018 201.356L155.91 185.926C161.825 181.76 167.09 176.624 171.433 170.626L187.109 171.675C187.659 171.712 188.166 171.401 188.372 170.903L195.408 153.833C195.614 153.334 195.473 152.756 195.056 152.394L183.2 142.072C184.348 134.752 184.232 127.394 182.97 120.264C194.141 110.104 195.603 110.198 194.947 108.672C187.408 91.9527 188.001 90.6161 186.284 90.706L170.616 91.5283C166.278 85.6363 160.965 80.3648 154.79 75.9889C155.244 61.001 156.342 59.9726 154.777 59.3272C137.289 52.4524 136.948 51.1933 135.842 52.4289L125.553 63.9145C118.092 62.6581 110.613 62.6443 103.385 63.7611C92.9897 52.7302 92.9551 51.1477 91.3922 51.7752C74.3617 58.9706 73.1574 58.3182 73.2765 59.9851L74.3853 75.4153C68.4703 79.5811 63.2046 84.7171 58.8622 90.717C43.8763 90.0218 42.564 88.8802 41.9217 90.4392C35.2662 107.452 33.9553 107.832 35.2371 108.949L47.0933 119.272C45.9457 126.591 46.0634 133.949 47.3231 141.08C36.1909 151.205 34.6876 151.139 35.3465 152.672C42.8851 169.391 42.2927 170.728 44.0092 170.638L44.0105 170.635Z" fill="#91B3FA"/>
<path d="M96.9428 127.919C98.3104 118.07 107.589 111.29 117.626 112.808C127.662 114.328 134.716 123.572 133.35 133.421C131.982 143.27 122.704 150.05 112.667 148.533C102.627 147.016 95.5765 137.767 96.9428 127.92V127.919ZM117.183 115.999C109.037 114.768 101.336 120.2 100.197 128.409C99.0732 136.499 104.866 144.095 113.11 145.339C121.353 146.585 128.973 141.017 130.097 132.929C131.223 124.828 125.413 117.242 117.183 116.001V115.999Z" fill="#BDD0FB"/>
<path d="M96.139 172.398C93.664 171.259 91.2872 169.917 89.0558 168.392C88.3844 167.935 88.156 167.082 88.4772 166.384C88.5159 166.301 88.5616 166.219 88.6156 166.142C89.1236 165.412 90.1466 165.238 90.8955 165.748C93.4619 167.501 96.2359 168.996 99.1373 170.196C120.995 179.224 145.857 169.675 155.449 148.896C155.694 148.365 155.928 147.827 156.153 147.281C165.231 125.254 154.242 100.035 131.865 90.7861C109.518 81.5562 83.9147 91.7357 74.8506 113.701C69.463 126.777 72.705 136.038 72.0862 137.38C71.4176 138.829 69.2222 138.499 68.9675 136.918C67.5777 128.278 68.6699 119.144 72.5624 110.708C89.3603 74.3151 142.816 75.8037 158.839 113.075C163.77 124.545 163.898 137.139 159.2 148.54C158.958 149.131 158.703 149.714 158.437 150.29C153.568 160.844 144.941 169.021 133.965 173.433C122.39 178.085 109.587 177.991 97.915 173.17C97.3198 172.924 96.7274 172.666 96.1432 172.396L96.139 172.398Z" fill="#BDD0FB"/>
<path d="M232.571 104.002C235.219 107.119 238.385 109.837 241.994 112.007L242.169 120.752C242.189 121.723 243.019 121.348 252.676 124.644C253.57 124.932 253.47 124.098 258.733 117.398C262.932 117.742 267.09 117.383 271.064 116.397L277.386 122.461C278.089 123.134 278.409 122.281 287.572 117.796C287.846 117.656 287.999 117.358 287.956 117.055L286.722 108.39C289.843 105.746 292.566 102.585 294.739 98.9821C303.106 98.6394 303.875 99.2171 304.169 98.3076C307.191 88.3576 307.899 88.0867 307.144 87.52L300.138 82.2679C300.483 78.0758 300.123 73.9225 299.136 69.9557L305.208 63.6435C305.883 62.9441 305.028 62.6221 300.537 53.4737C300.112 52.643 299.626 53.294 291.115 54.3223C288.467 51.2056 285.303 48.4869 281.694 46.317L281.518 37.5721C281.499 36.6005 280.668 36.9764 271.012 33.68C270.123 33.3939 270.243 34.1914 264.956 40.928C260.757 40.5838 256.597 40.9432 252.625 41.9286L246.303 35.8652C246.081 35.6523 245.749 35.604 245.475 35.7436L236.117 40.5299C235.845 40.6695 235.69 40.9681 235.733 41.2708L236.967 49.9354C233.846 52.5794 231.123 55.739 228.95 59.3436C220.583 59.6864 219.814 59.1087 219.52 60.0181C216.5 69.964 215.788 70.2377 216.545 70.8058L223.551 76.0579C223.206 80.2499 223.566 84.4033 224.553 88.37C218.879 94.5192 217.921 94.6546 218.359 95.5074L223.152 104.851C223.582 105.686 224.108 105.025 232.574 104.002H232.571Z" fill="#91B3FA"/>
<path d="M250.894 78.4546C251.287 72.4132 256.5 67.8397 262.552 68.2309C268.602 68.622 273.184 73.8285 272.792 79.8699C272.4 85.8974 267.17 90.4834 261.134 90.0936C255.097 89.7024 250.504 84.4821 250.894 78.4532V78.4546ZM254.157 78.6646C253.883 82.8968 257.108 86.5622 261.344 86.8359C268.149 87.2754 272.145 79.2216 267.629 74.0884C263.132 68.9772 254.6 71.8272 254.157 78.6646Z" fill="#BDD0FB"/>
<path d="M206.776 95.5502C206.354 94.1404 205.983 92.6947 205.673 91.2531C205.547 90.6657 205.921 90.0866 206.509 89.9608C207.99 89.6429 207.78 91.2946 208.865 94.9283C209.038 95.5046 208.709 96.11 208.133 96.2828C207.558 96.4541 206.949 96.1293 206.776 95.5516V95.5502Z" fill="#91B3FA"/>
<path d="M204.444 76.756C204.566 73.8687 204.912 70.8626 205.512 67.855C205.795 66.4397 207.932 66.8737 207.65 68.2821C206.09 76.0746 207.308 77.9682 205.485 77.8908C204.878 77.8645 204.417 77.3545 204.442 76.7574L204.444 76.756ZM210.666 55.5208C210.125 55.2582 209.899 54.6058 210.162 54.0654C211.469 51.3854 213 48.7842 214.714 46.3351C215.54 45.1561 217.327 46.4014 216.501 47.5818C214.852 49.9369 213.379 52.4386 212.122 55.0177C211.66 55.9672 210.533 55.5167 210.665 55.5208H210.666ZM224.751 37.3774C224.612 37.3138 224.485 37.2198 224.38 37.0968C223.988 36.6393 224.042 35.9538 224.499 35.5613C226.77 33.6207 229.211 31.8433 231.754 30.2801C232.266 29.965 232.939 30.1253 233.253 30.6353C233.568 31.1467 233.409 31.8184 232.897 32.1322C230.451 33.6373 228.102 35.347 225.916 37.2143C225.581 37.499 225.126 37.5474 224.751 37.376V37.3774ZM244.886 26.3161C244.613 26.1903 244.395 25.954 244.299 25.6458C244.122 25.0708 244.446 24.4627 245.022 24.2871C247.879 23.4136 250.827 22.7585 253.788 22.3438C254.385 22.2609 254.936 22.6756 255.02 23.2713C255.103 23.8656 254.688 24.4171 254.091 24.5C251.244 24.8994 248.408 25.5283 245.66 26.3686C245.394 26.4502 245.12 26.4253 244.885 26.3175L244.886 26.3161ZM267.148 23.1137C267.216 22.5166 267.755 22.0868 268.353 22.1545C271.332 22.4917 274.299 23.0626 277.171 23.8531C278.558 24.2277 277.986 26.3341 276.591 25.9512C273.828 25.1911 270.974 24.641 268.107 24.3175C267.494 24.2457 267.08 23.6983 267.146 23.1137H267.148Z" fill="#91B3FA"/>
<path d="M293.174 33.6705C289.881 31.4052 288.43 31.1716 289.169 29.9C289.471 29.3803 290.127 29.1938 290.659 29.5047C291.93 30.24 293.192 31.0389 294.412 31.8779C294.907 32.2193 295.032 32.8965 294.69 33.3913C294.353 33.8778 293.681 34.0147 293.174 33.6691V33.6705Z" fill="#91B3FA"/>
<path d="M316.685 72.1148C316.175 68.1397 315.383 66.9165 316.824 66.618C317.414 66.4964 317.991 66.8737 318.113 67.4625C318.412 68.8985 318.658 70.3719 318.847 71.8384C318.923 72.4341 318.501 72.98 317.904 73.056C317.309 73.132 316.761 72.7119 316.685 72.1148Z" fill="#91B3FA"/>
<path d="M243.052 132.239C243.621 130.523 244.91 132.29 252.677 133.585C254.096 133.819 253.744 135.97 252.318 135.733C249.414 135.249 246.529 134.536 243.744 133.616C243.182 133.432 242.86 132.818 243.052 132.241V132.239ZM265.455 135.335C265.406 134.737 265.852 134.21 266.453 134.162C274.368 133.512 275.726 131.855 276.154 133.619C276.295 134.203 275.935 134.791 275.349 134.932C272.495 135.62 269.562 136.091 266.63 136.33C266.029 136.379 265.505 135.934 265.455 135.334V135.335ZM287.269 129.407C286.419 127.805 288.57 128.112 294.898 123.396C296.054 122.537 297.359 124.279 296.202 125.14C293.844 126.897 291.335 128.485 288.743 129.858C288.212 130.14 287.552 129.938 287.269 129.407ZM304.997 115.389C303.584 114.246 305.692 113.688 309.661 106.875C310.385 105.632 312.272 106.723 311.546 107.97C310.069 110.505 308.383 112.946 306.531 115.229C306.152 115.698 305.465 115.767 304.997 115.389ZM315.043 94.2053C317.2 86.5801 316.121 84.7183 317.929 84.9395C318.527 85.0113 318.952 85.5545 318.88 86.1516C318.523 89.0734 317.939 91.9829 317.142 94.7983C316.978 95.376 316.376 95.7133 315.796 95.5502C315.217 95.3871 314.88 94.7858 315.043 94.2067V94.2053Z" fill="#91B3FA"/>
<path d="M230.768 127.417C229.528 126.618 228.302 125.763 227.13 124.873C226.651 124.509 226.557 123.826 226.921 123.347C227.839 122.142 228.75 123.528 231.949 125.586C232.454 125.912 232.601 126.585 232.274 127.091C231.943 127.604 231.263 127.736 230.766 127.416L230.768 127.417Z" fill="#91B3FA"/>
<path d="M248.544 102.413C247.645 101.9 247.464 100.887 247.89 100.15C248.343 99.3693 249.351 99.1053 250.124 99.5545C251.575 100.392 253.13 101.082 254.745 101.603C255.098 101.646 263.406 104.956 272.853 100.141C291.586 90.5568 289.372 62.9457 269.316 56.4911C257.778 52.7759 245.428 58.3833 240.478 69.1156C235.49 79.9239 241.128 85.5465 237.677 86.344C236.798 86.5486 235.919 86.0012 235.714 85.1236C234.612 80.3856 234.824 75.4237 236.328 70.7714C240.887 56.6445 256.125 48.8147 270.319 53.384C285.593 58.3003 293.387 75.5412 286.537 90.3826C281.014 102.353 267.122 109.019 253.74 104.71C251.93 104.127 250.18 103.354 248.542 102.414L248.544 102.413Z" fill="#BDD0FB"/>
<path d="M244.071 141.447C244.03 140.937 243.508 140.496 242.625 140.141C243.586 139.612 244.116 139.046 244.071 138.489C243.936 136.807 238.602 135.865 232.159 136.384C225.715 136.903 220.601 138.687 220.737 140.368C220.779 140.878 221.3 141.319 222.184 141.674C221.223 142.203 220.693 142.768 220.737 143.324C220.779 143.834 221.3 144.275 222.184 144.63C221.223 145.158 220.693 145.725 220.737 146.28C220.779 146.79 221.3 147.231 222.184 147.587C221.223 148.116 220.693 148.681 220.737 149.238C220.797 149.982 221.875 150.58 223.615 150.973C223.593 151.523 223.605 152.124 223.659 152.79C223.911 155.889 227.402 158.319 232.019 158.319C236.635 158.319 240.632 155.006 240.677 151.897C240.688 151.136 240.656 150.466 240.587 149.87C242.797 149.133 244.142 148.233 244.071 147.361C244.03 146.851 243.508 146.41 242.625 146.057C243.586 145.529 244.116 144.962 244.071 144.405C244.03 143.895 243.508 143.454 242.625 143.1C243.586 142.572 244.116 142.005 244.071 141.448V141.447Z" fill="url(#paint1_linear_506_3601)"/>
<path d="M229.178 151.642C227.265 151.642 225.514 151.501 224.067 151.224C223.983 151.208 223.929 151.127 223.944 151.043C223.961 150.959 224.041 150.905 224.125 150.92C226.389 151.353 229.413 151.448 232.638 151.188C235.278 150.975 237.748 150.551 239.778 149.958C239.86 149.935 239.946 149.982 239.971 150.063C239.994 150.145 239.947 150.23 239.866 150.255C237.814 150.852 235.324 151.282 232.663 151.497C231.465 151.593 230.294 151.64 229.178 151.64V151.642Z" fill="url(#paint2_linear_506_3601)"/>
<path d="M229.212 148.682C226.725 148.682 224.504 148.449 222.937 148.004C222.855 147.98 222.807 147.895 222.83 147.813C222.854 147.732 222.94 147.683 223.021 147.707C225.254 148.341 228.85 148.539 232.64 148.233C236.389 147.932 239.886 147.172 241.994 146.201C242.071 146.166 242.164 146.2 242.199 146.278C242.235 146.355 242.2 146.446 242.123 146.482C239.984 147.468 236.448 148.237 232.665 148.541C231.485 148.637 230.322 148.682 229.212 148.682Z" fill="url(#paint3_linear_506_3601)"/>
<path d="M229.178 145.729C226.494 145.729 224.145 145.455 222.563 144.934C222.481 144.908 222.438 144.82 222.465 144.739C222.491 144.658 222.578 144.614 222.66 144.641C224.861 145.365 228.59 145.603 232.638 145.278C236.386 144.977 239.883 144.217 241.991 143.247C242.069 143.211 242.161 143.245 242.196 143.323C242.232 143.4 242.197 143.491 242.12 143.527C239.981 144.513 236.444 145.283 232.663 145.587C231.464 145.683 230.291 145.73 229.177 145.73L229.178 145.729Z" fill="url(#paint4_linear_506_3601)"/>
<path d="M229.201 142.771C227.072 142.771 225.135 142.6 223.629 142.265C223.546 142.247 223.493 142.164 223.511 142.081C223.529 141.998 223.612 141.946 223.695 141.964C225.96 142.466 229.22 142.597 232.641 142.321C236.356 142.022 239.834 141.27 241.945 140.311C242.023 140.275 242.114 140.311 242.15 140.387C242.186 140.464 242.15 140.556 242.074 140.591C239.933 141.565 236.415 142.326 232.665 142.629C231.481 142.724 230.315 142.771 229.201 142.771Z" fill="url(#paint5_linear_506_3601)"/>
<path d="M216.415 126.523C215.633 123.756 214.303 121.168 212.513 118.915C208.677 114.089 202.419 104.272 201.649 90.8744C200.529 71.3862 217.838 61.6297 233.634 62.9551C249.43 64.2792 265.015 76.0233 263.31 94.1529C262.26 105.308 256.006 113.77 251.351 118.629C248.394 121.714 246.286 125.494 245.144 129.609C243.747 134.645 240.422 140.923 232.518 141.306C222.291 141.801 218.044 132.283 216.415 126.524V126.523Z" fill="url(#paint6_linear_506_3601)"/>
<path d="M235.128 137.419L240.656 101.528C240.769 100.787 241.136 100.288 241.472 100.415C241.809 100.542 241.989 101.247 241.875 101.988C241.872 102.008 241.868 102.032 241.864 102.052L235.569 137.61C235.521 137.877 235.386 138.047 235.265 137.987C235.149 137.931 235.09 137.678 235.13 137.419H235.128Z" fill="url(#paint7_linear_506_3601)"/>
<path d="M229.391 137.704L223.863 101.813C223.749 101.072 223.383 100.573 223.047 100.7C222.71 100.827 222.529 101.532 222.644 102.273C222.647 102.292 222.651 102.317 222.655 102.336L228.951 137.895C228.998 138.162 229.133 138.332 229.254 138.272C229.37 138.215 229.43 137.963 229.389 137.704H229.391Z" fill="url(#paint8_linear_506_3601)"/>
<path d="M240.619 98.4457C240.479 98.2204 240.154 98.1361 239.893 98.2577L236.816 99.6938L235.748 96.6544C235.691 96.4955 235.561 96.3559 235.374 96.2785C235.019 96.1334 234.596 96.2633 234.428 96.5701L234.423 96.5798L231.892 101.188L229.543 94.6296L229.539 94.6186C229.481 94.4582 229.361 94.3145 229.183 94.2177C228.79 94.0035 228.27 94.1058 228.022 94.4458L224.484 99.3095C224.34 99.5086 224.39 99.7753 224.608 99.9232C224.842 100.081 225.179 100.043 225.362 99.8417L228.477 96.3725L231.282 102.611L231.285 102.616C231.33 102.715 231.415 102.802 231.533 102.858C231.796 102.981 232.124 102.896 232.266 102.668L234.972 98.331L235.991 100.524L236 100.544C236.006 100.559 236.015 100.576 236.024 100.591C236.164 100.816 236.49 100.9 236.75 100.779L240.403 99.0746C240.663 98.953 240.76 98.6724 240.62 98.4471L240.619 98.4457Z" fill="white"/>
<path d="M251.471 114.002C251.326 114.002 251.179 113.958 251.053 113.864C250.742 113.633 250.677 113.195 250.908 112.884C251.849 111.618 252.712 110.31 253.472 108.996C253.665 108.661 254.095 108.547 254.43 108.74C254.764 108.934 254.881 109.362 254.686 109.696C253.899 111.057 253.006 112.411 252.033 113.72C251.896 113.905 251.685 114.003 251.47 114.003L251.471 114.002Z" fill="white"/>
<path d="M256.019 106.211C255.926 106.211 255.83 106.191 255.739 106.153C255.383 105.998 255.22 105.586 255.375 105.231C261.215 91.8019 256.178 80.5305 256.127 80.4171C255.965 80.0661 256.12 79.6501 256.471 79.4883C256.824 79.328 257.241 79.4814 257.402 79.8325C257.623 80.3135 262.749 91.7908 256.661 105.788C256.546 106.052 256.289 106.209 256.017 106.209L256.019 106.211Z" fill="white"/>
<path d="M139.179 361.54C139.179 361.54 138.266 366.421 137.797 371.257C137.613 373.147 139.058 374.804 140.957 374.901C147.411 375.231 161.213 375.885 166.17 375.711C166.915 375.684 167.409 374.928 167.141 374.233C166.915 373.651 166.475 373.179 165.909 372.912L143.2 362.228L139.179 361.54Z" fill="url(#paint9_linear_506_3601)"/>
<path d="M138.496 358.661L139.136 364.515C139.136 364.515 143.114 366.41 145.862 364.345L144.27 357.812L138.496 358.661Z" fill="url(#paint10_linear_506_3601)"/>
<path d="M140.072 248.713C139.758 250.237 137.732 324.913 145.408 358.46C145.533 359.008 145.25 359.567 144.728 359.775C143.498 360.263 141.087 360.965 138.204 361.034C137.312 361.056 136.517 360.468 136.273 359.612C134.061 351.825 123.482 312.812 122.409 275.63C121.209 234.083 122.423 274.216 122.423 274.216L123.605 248.552L140.073 248.713H140.072Z" fill="url(#paint11_linear_506_3601)"/>
<path d="M112.916 363.841C112.916 363.841 111.515 366.296 110.12 372.843C109.868 374.024 110.686 375.166 111.889 375.296C114.018 375.525 117.297 375.825 119.926 375.834C121.137 375.836 122.094 374.793 121.959 373.59C121.691 371.194 120.822 367.257 118.049 364.168L112.916 363.842V363.841Z" fill="url(#paint12_linear_506_3601)"/>
<path d="M111.781 356.307L113.321 365.166C113.321 365.166 114.915 366.374 118.099 365.54L117.415 356.017L111.781 356.307Z" fill="url(#paint13_linear_506_3601)"/>
<path d="M108.403 250.703C101.487 290.047 108.89 348.112 111.466 359.487C111.624 360.184 112.18 360.721 112.885 360.844C114.081 361.055 116.052 361.234 118.002 360.69C118.674 360.502 119.151 359.903 119.185 359.207C119.632 350.033 119.522 293.696 125.829 271.49C126.149 270.365 126.848 269.388 127.81 268.719L139.717 260.437L140.754 246.876L108.405 250.701L108.403 250.703Z" fill="url(#paint14_linear_506_3601)"/>
<path d="M150.784 176.432C131.19 175.922 109.514 181.177 109.514 181.177C103.347 215.155 107.792 254.457 107.792 254.457C122.926 258.574 140.102 252.335 140.102 252.335C142.759 238.134 154.908 198.21 154.908 198.21C164.494 197.116 172.409 194.432 178.94 190.846C174.039 185.065 171.773 177.745 170.8 173.422C163.851 175.506 156.828 176.587 150.784 176.431V176.432Z" fill="url(#paint15_linear_506_3601)"/>
<path d="M208.946 148.162C207.042 145.822 204.595 146.897 204.595 146.897C201.595 159.034 186.378 168.751 170.797 173.424C171.77 177.748 174.036 185.068 178.936 190.849C204.858 176.62 208.944 148.162 208.944 148.162H208.946Z" fill="url(#paint16_linear_506_3601)"/>
<path d="M208.477 148.748C208.672 149.389 206.33 150.34 204.981 147.712C204.945 146.459 204.234 141.082 204.994 140.068C209.04 134.668 216.851 127.924 216.851 127.924C218.148 129.226 217.058 130.483 217.058 130.483L213.263 134.355C214.036 135.78 214.983 136.987 215.416 138.706C215.744 140.008 215.522 141.395 214.854 142.571C214.183 143.751 213.269 145.284 212.407 146.484C210.774 148.753 208.478 148.748 208.478 148.748H208.477Z" fill="url(#paint17_linear_506_3601)"/>
<path d="M211.595 136.875L208.142 139.74L207.039 142.615L210.06 146.026C210.06 146.026 211.141 140.311 211.916 139.078C212.691 137.847 212.301 137.244 211.593 136.874L211.595 136.875Z" fill="url(#paint18_linear_506_3601)"/>
<path d="M116.85 200.197L109.514 181.178C109.514 181.178 91.0899 193.423 87.9297 209.139C91.3862 209.426 97.6707 210.384 103.803 213.549C105.227 206.127 116.851 200.197 116.851 200.197H116.85Z" fill="url(#paint19_linear_506_3601)"/>
<path d="M132.677 218.178C132.677 218.178 112.014 229.58 105.173 219.612C103.753 217.541 103.429 215.494 103.801 213.55C97.6704 210.384 91.3845 209.427 87.928 209.139C86.9757 213.877 87.4062 218.93 90.1511 224.059C102.086 246.362 135.347 223.263 135.347 223.263L132.675 218.178H132.677Z" fill="url(#paint20_linear_506_3601)"/>
<path d="M131.087 160.358L124.679 178.303C124.573 178.601 124.693 178.932 124.968 179.087C126.659 180.042 132.758 182.812 140.181 178.211C140.955 177.731 141.485 176.942 141.611 176.042L143.779 160.478L131.087 160.356V160.358Z" fill="url(#paint21_linear_506_3601)"/>
<path d="M144.81 143.812C144.81 143.812 151.534 156.747 150.607 161.937C149.679 167.127 141.197 166.674 133.827 162.381L128.781 148.435L144.81 143.812Z" fill="url(#paint22_linear_506_3601)"/>
<path d="M134.222 155.56C134.524 155.43 134.638 155.063 134.461 154.786C133.92 153.945 132.908 152.228 132.595 150.73C132.595 150.73 131.372 149.931 135.746 148.929C140.12 147.927 146.643 146.37 148.046 142.675C149.414 139.071 145.998 129.944 140.337 137.136C140.121 137.41 139.705 137.413 139.496 137.134C138.591 135.934 136.205 133.439 132.846 134.906C129.702 136.278 129.327 138.565 129.359 139.72C129.369 140.06 129.061 140.321 128.728 140.253C127.148 139.937 123.353 139.642 121.542 143.515C120.051 146.705 120.983 148.528 121.838 149.424C122.115 149.714 121.988 150.186 121.603 150.3C120.559 150.608 119.208 151.476 119.319 153.91C119.473 157.276 123.242 157.016 124.316 156.872C124.492 156.848 124.669 156.911 124.787 157.043C125.696 158.067 129.799 162.421 134.277 162.985C134.665 163.034 134.969 162.653 134.846 162.283L132.959 156.633C132.872 156.37 132.999 156.084 133.254 155.975L134.22 155.559L134.222 155.56Z" fill="url(#paint23_linear_506_3601)"/>
<path d="M134.995 156.368C134.995 156.368 130.151 152.981 129.768 155.79C129.385 158.598 134.119 159.906 136.48 158.879L134.995 156.366V156.368Z" fill="url(#paint24_linear_506_3601)"/>
<path d="M128.453 236.197L139.708 196.949C139.835 196.504 140.216 196.179 140.677 196.125C142.716 195.887 148.625 195.22 155.448 194.645C163.667 193.951 173.211 193.388 178.914 193.866C179.726 193.934 180.216 194.791 179.854 195.519C176.611 202.071 163.271 228.721 156.59 237.451C156.369 237.74 156.027 237.91 155.662 237.906L129.546 237.662C128.786 237.655 128.242 236.927 128.451 236.197H128.453Z" fill="url(#paint25_linear_506_3601)"/>
<path d="M131.172 226.715C131.172 226.715 129.604 220.276 130.236 217.993C130.869 215.708 132.094 212.773 136.179 213.425C140.264 214.078 145.082 215.796 145.082 215.796C145.082 215.796 144.839 218.77 141.734 217.811L143.659 219.298C143.659 219.298 143.384 221.679 140.762 220.408L142.552 222.38C142.552 222.38 141.425 224.336 139.497 223.082C137.567 221.827 136.643 227.49 131.172 226.715Z" fill="url(#paint26_linear_506_3601)"/>
<path d="M154.699 206.36C154.699 208.181 156.179 209.659 158.003 209.659C159.828 209.659 161.308 208.181 161.308 206.36C161.308 204.538 159.828 203.061 158.003 203.061C156.179 203.061 154.699 204.538 154.699 206.36Z" fill="#91B3FA"/>
<path d="M140.984 208.535L140.141 208.286L142.432 200.524C142.805 199.259 143.827 198.31 145.098 198.046C152.362 196.531 171.494 196.223 172.304 196.21L172.318 197.088C172.12 197.091 152.459 197.409 145.278 198.904C144.324 199.103 143.556 199.818 143.273 200.772L140.982 208.534L140.984 208.535Z" fill="#91B3FA"/>
<path d="M7.76801 318.374C6.56786 320.147 1.7991 360.285 1.05298 375.11C1.00315 376.112 1.80602 376.948 2.81099 376.948C3.67753 376.948 4.41534 376.318 4.54961 375.462L13.2718 319.651L7.76801 318.374Z" fill="#7D97F4"/>
<path d="M46.1093 318.374C47.3094 320.147 52.0782 360.285 52.8243 375.11C52.8755 376.112 52.0713 376.948 51.0663 376.948C50.1997 376.948 49.4619 376.318 49.3277 375.462L40.6055 319.651L46.1093 318.374Z" fill="#7D97F4"/>
<path d="M0.555165 315.242L0.551012 315.68C0.521943 318.829 3.23924 321.412 6.64174 321.47L46.9582 322.154C50.3109 322.211 53.1057 319.792 53.269 316.692L53.2898 316.291C53.46 313.058 50.7095 310.334 47.2129 310.272L6.87844 309.55C3.42611 309.488 0.584234 312.048 0.555165 315.243V315.242Z" fill="#7D97F4"/>
<path d="M85.483 373.651C78.3168 373.651 75.1454 373.038 73.7266 372.478C74.002 373.653 75.0499 374.58 76.3746 374.58H101.729C102.583 374.58 103.121 373.765 102.918 373.025C100.027 373.258 93.8896 373.651 85.4817 373.651H85.483Z" fill="#91B3FA"/>
<path d="M102.921 373.025C102.88 372.876 102.82 372.73 102.713 372.594C100.782 370.133 96.9023 366.265 91.6242 366.34C83.8931 366.449 81.1966 367.285 75.1889 366.387L73.7714 371.078C73.6275 371.556 73.6247 372.034 73.7285 372.477C75.146 373.036 78.3173 373.65 85.485 373.65C93.8916 373.65 100.031 373.256 102.921 373.024V373.025Z" fill="url(#paint27_linear_506_3601)"/>
<path d="M76.9275 361.332L75.1875 367.241C75.1875 367.241 79.0413 368.993 82.4313 367.586L83.0971 362.468L76.9275 361.334V361.332Z" fill="url(#paint28_linear_506_3601)"/>
<path d="M129.476 369.931C123.889 374.413 121.033 375.92 119.578 376.372C120.526 377.111 121.923 377.175 122.956 376.347L142.72 360.491C143.386 359.957 143.296 358.987 142.676 358.541C140.568 360.528 136.029 364.673 129.474 369.931H129.476Z" fill="#91B3FA"/>
<path d="M142.679 358.542C142.554 358.452 142.415 358.376 142.248 358.337C139.206 357.635 133.767 357.062 129.7 360.42C123.741 365.339 122.163 367.675 116.918 370.735L118.741 375.262C118.927 375.723 119.223 376.095 119.581 376.374C121.036 375.922 123.892 374.416 129.479 369.933C136.033 364.676 140.572 360.531 142.68 358.543L142.679 358.542Z" fill="url(#paint29_linear_506_3601)"/>
<path d="M39.7116 294.019C39.7116 294.019 82.6208 297.517 91.4232 301.654C100.226 305.791 84.2403 363.779 84.2403 363.779C84.2403 363.779 81.8442 364.93 76.512 363.276C76.512 363.276 81.9799 320.483 77.9115 311.203L31.4531 303.615L39.7144 294.018L39.7116 294.019Z" fill="url(#paint30_linear_506_3601)"/>
<path d="M112.652 362.589C113.051 362.951 116.916 370.734 116.916 370.734C116.916 370.734 121.218 369.805 122.096 367.085L118.224 360.061L112.652 362.589Z" fill="url(#paint31_linear_506_3601)"/>
<path d="M13.8665 293.661C13.8665 293.661 12.4684 297.021 12.5251 301.485C12.604 307.659 17.5749 312.67 23.7514 312.978L74.4761 315.288C75.5475 315.336 76.4542 316.077 76.7227 317.113C77.9146 321.717 83.7409 335.854 112.222 364.063C112.979 364.814 114.16 364.941 115.062 364.373L119.117 361.816C119.542 361.548 119.679 360.991 119.424 360.557L89.8898 310.198C88.338 307.643 85.845 305.796 82.945 305.056L39.7119 294.021L13.8678 293.663L13.8665 293.661Z" fill="url(#paint32_linear_506_3601)"/>
<path d="M63.8572 214.998C63.8572 214.998 58.424 224.591 52.8828 229.238L64.3348 235.618C64.3348 235.618 66.915 225.462 72.8106 222.489L63.8572 214.999V214.998Z" fill="url(#paint33_linear_506_3601)"/>
<path d="M12.9467 294.019C12.9467 294.019 26.6411 297.352 39.7113 294.019C39.7113 294.019 58.0015 269.47 65.0764 262.788C65.0764 262.788 76.3636 280.571 101.485 283.092L102.886 279.966C102.886 279.966 82.8862 270.761 76.7291 256.616C70.5719 242.471 68.0996 236.439 62.4975 232.747C59.0092 230.449 56.9204 228.879 55.8406 228.022C55.2496 227.552 54.4342 227.499 53.7892 227.892C47.8452 231.509 19.8735 250.638 12.9453 294.019H12.9467Z" fill="url(#paint34_linear_506_3601)"/>
<path d="M64.3342 262.443C64.0698 262.443 63.8096 262.324 63.6365 262.1C59.2761 256.422 56.8468 250.164 56.7457 249.901C56.5727 249.449 56.7983 248.942 57.251 248.768C57.705 248.594 58.2116 248.82 58.3861 249.272C58.4096 249.335 60.8307 255.563 65.0305 261.033C65.3253 261.417 65.2534 261.967 64.8685 262.263C64.7093 262.385 64.5211 262.444 64.3342 262.444V262.443Z" fill="url(#paint35_linear_506_3601)"/>
<path d="M99.9766 278.333L102.805 277.581L111.39 275.597C112.424 275.357 113.509 275.54 114.407 276.105L121.79 280.742L101.404 280.708L99.9766 278.335V278.333Z" fill="url(#paint36_linear_506_3601)"/>
<path d="M72.4811 200.614C72.4811 200.614 77.762 209.38 78.6784 214.224C79.5948 219.068 81.0662 222.097 75.5431 223.823C70.0213 225.549 64.8884 223.364 61.6687 218.842C61.6687 218.842 56.6383 211.883 57.1408 208.695C57.6432 205.508 72.4811 200.614 72.4811 200.614Z" fill="url(#paint37_linear_506_3601)"/>
<path d="M63.14 215.092L63.8543 214.998C63.8543 214.998 60.1154 209.356 62.5614 207.957C65.0087 206.557 74.9795 203.124 76.7112 199.203C78.3807 195.423 75.8835 191.153 72.8727 190.262C72.6817 190.205 72.481 190.318 72.4117 190.504L72.2346 190.979C72.1141 191.305 71.6559 191.318 71.5175 191C71.3846 190.697 70.9514 190.685 70.8157 190.985C70.2828 192.159 68.6826 194.165 63.8875 195.717C57.0839 197.919 52.8453 201.344 53.3671 206.17C53.4004 206.476 53.0958 206.687 52.8148 206.563C52.2584 206.317 51.4153 206.278 50.4367 207.348C48.734 209.207 50.0671 213.274 54.7182 216.152C54.9397 216.289 54.9784 216.6 54.7805 216.768C54.0842 217.363 53.1055 218.69 56.2519 219.871C59.4703 221.081 61.227 220.672 61.8762 220.412C62.0506 220.341 62.1502 220.162 62.1143 219.976L61.2879 215.747C61.2449 215.529 61.3958 215.319 61.6173 215.29L63.14 215.089V215.092Z" fill="url(#paint38_linear_506_3601)"/>
<path d="M63.4331 215.961C63.4331 215.961 61.1034 210.225 58.656 212.242C56.2087 214.258 60.9179 218.715 63.0912 218.655L63.4331 215.961Z" fill="url(#paint39_linear_506_3601)"/>
<path d="M92.0982 284.734C92.1315 284.735 92.1647 284.737 92.1979 284.737L135.751 284.694C136.828 284.694 137.7 283.822 137.698 282.749C137.698 281.675 136.821 280.789 135.747 280.809L92.1937 280.852C91.1168 280.852 90.2461 281.724 90.2461 282.796C90.2461 283.836 91.0683 284.684 92.0982 284.735V284.734Z" fill="url(#paint40_linear_506_3601)"/>
<path d="M152.617 242.147C152.602 242.176 152.587 242.207 152.573 242.237L134.248 281.686C133.795 282.661 134.218 283.818 135.194 284.27C136.169 284.722 137.343 284.301 137.779 283.321L156.104 243.872C156.557 242.897 156.135 241.741 155.159 241.289C154.215 240.852 153.097 241.237 152.617 242.147Z" fill="url(#paint41_linear_506_3601)"/>
<path d="M266.664 324.379H262.066V374.014H266.664V324.379Z" fill="#7D97F4"/>
<path d="M284.498 374.971H244.238C244.238 373.321 245.578 371.983 247.231 371.983H281.507C283.159 371.983 284.499 373.321 284.499 374.971H284.498Z" fill="#7D97F4"/>
<path d="M285.528 313.259H244.795C242.065 313.259 239.852 315.468 239.852 318.194V322.657C239.852 325.383 242.065 327.593 244.795 327.593H285.528C288.258 327.593 290.471 325.383 290.471 322.657V318.194C290.471 315.468 288.258 313.259 285.528 313.259Z" fill="#7D97F4"/>
<path d="M230.429 291.285C230.429 291.285 223.599 292.342 215.919 297.469C214.711 298.276 214.047 299.682 214.229 301.122C215.148 308.395 218.93 331.935 231.398 354.927C232.055 356.139 232.244 357.551 231.954 358.898L229.788 368.963L225.771 372.724H236.118L243.007 354.109L240.062 353.179C237.778 352.457 236.211 350.361 236.169 347.968L235.823 328C236.118 319.103 230.36 312.965 230.36 312.965L246.883 312.162L230.429 291.284V291.285Z" fill="url(#paint42_linear_506_3601)"/>
<path d="M221.732 374.54C220.79 375.771 231.875 377.395 237.474 374.703C237.474 374.703 245.237 361.217 245.237 354.274C245.237 354.274 244.621 352.858 240.063 353.179C240.063 353.179 237.456 369.147 234.704 370.935C231.952 372.724 227.004 371.116 227.004 371.116C227.004 371.116 223.122 372.722 221.732 374.54Z" fill="url(#paint43_linear_506_3601)"/>
<path d="M244.793 313.258C244.705 313.106 227.003 311.133 227.003 311.133C227.003 311.133 227.583 316.507 225.772 323.905C223.962 331.304 197.97 363.357 197.97 363.357L200.695 371.983C192.269 374.913 183.98 375.382 175.824 373.477L192.714 363.357C192.714 363.357 208.52 309.572 218.202 299.977L235.947 293.848L244.793 313.258Z" fill="url(#paint44_linear_506_3601)"/>
<path d="M284.492 281.963C284.492 281.963 294.692 297.11 295.529 304.019C296.366 310.928 292.736 313.735 282.034 314.198C271.332 314.661 242.763 314.654 242.763 314.654L218.379 293.848C218.379 293.848 236.149 287.516 240.769 285.726C245.39 283.936 284.494 281.963 284.494 281.963H284.492Z" fill="url(#paint45_linear_506_3601)"/>
<path d="M199.664 369.079C199.664 369.079 202.599 371.917 200.616 375.073C200.616 375.073 177.373 379.187 171.062 377.321C171.062 377.321 172.373 374.334 179.479 370.935L178.954 371.338C178.291 371.846 178.68 372.905 179.515 372.858C184.198 372.591 193.887 371.734 199.664 369.079Z" fill="url(#paint46_linear_506_3601)"/>
<path d="M240.313 185.902C261.163 182.363 270.979 199.342 270.26 202.91C270.165 203.382 270.612 203.783 271.078 203.657C273.472 203.015 278.759 202.203 282.037 206.304C284.932 209.925 282.768 213.342 281.005 215.218C280.578 215.671 280.937 216.406 281.554 216.329C285.955 215.775 295.517 215.642 297.081 224.586C298.54 232.927 292.727 235.278 289.278 235.941C288.694 236.053 288.559 236.819 289.06 237.137C290.78 238.226 292.774 240.479 291.968 244.923C290.706 251.887 277.029 251.318 275.432 251.227C275.331 251.221 275.235 251.192 275.147 251.141L253.241 238.667C253.07 238.57 252.951 238.402 252.918 238.208L248.496 212.706C248.46 212.5 248.525 212.289 248.67 212.138L234.389 192.016C229.205 191.254 240.065 185.945 240.31 185.904L240.313 185.902Z" fill="url(#paint47_linear_506_3601)"/>
<path d="M256.912 279.959C256.912 279.959 245.035 268.667 239.188 261.186C236.027 257.144 235.035 251.821 236.497 246.905C239.166 237.926 243.909 228.626 244.343 227.179C245.006 224.96 258.324 225.053 258.324 225.053C258.324 225.053 284.53 242.035 294.826 270.802L283.262 274.397C283.262 274.397 276.42 262.935 269.659 255.648C269.659 255.648 281.358 271.078 281.77 277.396L256.913 279.961L256.912 279.959Z" fill="url(#paint48_linear_506_3601)"/>
<path d="M242.73 214.779C242.869 215.241 246.345 226.746 246.617 226.985C246.889 227.224 254.241 227.618 257.7 225.258L249.117 208.495L242.73 214.779Z" fill="url(#paint49_linear_506_3601)"/>
<path d="M228.796 199.995C228.796 199.995 227.115 206.586 231.764 215.451C236.411 224.316 241.672 224.307 244.549 221.469C247.425 218.632 250.972 213.816 250.129 205.245C249.286 196.675 231.221 191.609 228.796 199.995Z" fill="url(#paint50_linear_506_3601)"/>
<path d="M243.701 205.711C243.701 205.711 235.991 193.941 228.759 203.204L228.629 206.574C228.629 206.574 220.16 205.57 221.643 197.816C223.125 190.063 230.444 185.217 239.869 188.575C249.295 191.934 254.696 195.378 255.304 202.123C255.912 208.868 250.538 207.389 250.538 207.389C250.538 207.389 248.785 202.64 246.292 202.147C243.801 201.653 244.449 205.356 244.449 205.356L243.701 205.713V205.711Z" fill="url(#paint51_linear_506_3601)"/>
<path d="M245.674 205.554C245.674 205.554 241.675 199.526 245.773 198.628C249.87 197.729 249.235 204.501 248.792 207.005L245.673 205.554H245.674Z" fill="url(#paint52_linear_506_3601)"/>
<path d="M232.712 280.796L241.439 272.398L253.511 277.49C253.511 277.49 265.527 279.349 272.404 277.49L279.281 275.631L294.823 270.801L297.263 277.688C297.883 279.436 297.26 281.378 295.746 282.452C294.402 283.406 292.825 284.455 291.82 284.893C289.773 285.787 241.368 284.275 241.368 284.275L232.711 280.796H232.712Z" fill="url(#paint53_linear_506_3601)"/>
<path d="M265.739 284.756C265.7 284.757 265.661 284.759 265.622 284.759L215.002 284.703C213.75 284.703 212.737 283.689 212.738 282.439C212.738 281.19 213.758 280.157 215.007 280.18L265.628 280.235C266.879 280.235 267.893 281.249 267.891 282.499C267.89 283.71 266.936 284.696 265.739 284.756Z" fill="url(#paint54_linear_506_3601)"/>
<path d="M169.495 238.866H211.653C214.763 238.866 217.594 240.659 218.92 243.467L238.409 284.73H186.019C184.015 284.73 182.214 283.506 181.477 281.646L166.364 243.463C165.491 241.257 167.118 238.866 169.495 238.866Z" fill="url(#paint55_linear_506_3601)"/>
<path d="M199.195 260.022C200.109 262.856 199.433 265.609 197.688 266.17C195.942 266.731 193.786 264.889 192.872 262.056C191.958 259.222 192.634 256.469 194.38 255.908C196.125 255.347 198.282 257.189 199.195 260.022Z" fill="#7D97F4"/>
<path d="M323.451 368.716C323.451 368.716 323.983 371.661 324.192 375.158C324.282 376.648 323.176 377.943 321.688 378.087C316.507 378.588 304.713 379.514 297.182 378.429C296.128 378.277 295.708 376.984 296.489 376.258C299.594 373.369 307.094 367.751 319.436 366.522L323.451 368.714V368.716Z" fill="url(#paint56_linear_506_3601)"/>
<path d="M326.026 362.076L323.407 368.488C323.049 369.367 322.156 369.913 321.21 369.813C320.57 369.747 319.81 369.624 319.07 369.4C317.592 368.952 316.759 367.387 317.2 365.909L319.177 359.305L326.026 362.076Z" fill="url(#paint57_linear_506_3601)"/>
<path d="M370.814 373.821C370.814 373.821 365.567 378.204 363.524 383.825C362.962 385.372 364.15 387 365.797 387H376.591C378.171 387 379.382 385.581 379.108 384.027C378.42 380.145 376.438 373.838 370.814 373.821Z" fill="url(#paint58_linear_506_3601)"/>
<path d="M377.313 368.119C377.313 368.119 376.254 372.801 375.439 375.896C375.291 376.457 374.692 376.765 374.144 376.57C372.51 375.987 371.181 375.729 370.214 375.859C369.766 375.918 369.378 375.548 369.371 375.097L369.27 367.32L377.313 368.119Z" fill="url(#paint59_linear_506_3601)"/>
<path d="M349.415 262.747L317.508 359.939C317.508 359.939 323.628 363.94 326.543 363.775L364.441 285.664C364.441 285.664 371.073 333.793 367.859 368.345L378.714 369.172C378.714 369.172 396.365 280.872 382.996 250.628L349.414 262.745L349.415 262.747Z" fill="url(#paint60_linear_506_3601)"/>
<path d="M364.237 284.825C364.25 284.825 364.263 284.825 364.276 284.822C364.445 284.802 364.565 284.647 364.544 284.478L363.307 274.665C363.286 274.496 363.133 274.379 362.962 274.397C362.793 274.418 362.673 274.572 362.694 274.741L363.931 284.554C363.951 284.71 364.084 284.824 364.237 284.824V284.825Z" fill="url(#paint61_linear_506_3601)"/>
<path d="M343.431 177.223C343.431 177.223 369.282 179.514 365.625 197.906C365.625 197.906 379.915 224.757 386.595 256.388C386.812 257.417 386.122 258.421 385.084 258.598L342.033 265.958C340.845 266.161 339.701 265.421 339.399 264.256L329.113 224.562L325.104 243.017L312.367 239.704L323.088 185.474C323.088 185.474 324.585 177.561 343.43 177.221L343.431 177.223Z" fill="url(#paint62_linear_506_3601)"/>
<path d="M328.894 222.786C328.916 222.786 328.94 222.784 328.962 222.779C329.135 222.742 329.244 222.571 329.207 222.398L325.619 205.945C325.581 205.772 325.413 205.664 325.237 205.7C325.064 205.738 324.954 205.909 324.992 206.082L328.58 222.535C328.613 222.684 328.746 222.786 328.893 222.786H328.894Z" fill="#91B3FA"/>
<path d="M331.494 271.745C332.85 271 334.438 270.794 335.938 271.167L338.934 271.912C339.571 272.071 340.202 271.633 340.275 270.982L343.375 243.434C347.251 245.273 352.842 245.053 354.685 244.917L347.551 277.392H322.586L331.492 271.743L331.494 271.745Z" fill="url(#paint63_linear_506_3601)"/>
<path d="M265.16 211.992L265.915 209.487C266.349 208.046 267.415 206.881 268.815 206.319L282.462 200.839C282.462 200.839 282.668 199.092 279.579 197.904C276.489 196.716 277.211 193.261 277.211 193.261C277.211 193.261 281.432 195.184 287.611 198.233C291.145 199.977 293.128 203.055 294.18 205.373L325.104 243.015L321.473 245.506C316.699 248.782 310.132 247.173 307.419 242.062L290.666 209.986C282.256 212.509 273.744 212.991 265.16 211.99V211.992Z" fill="url(#paint64_linear_506_3601)"/>
<path d="M335.058 159.662L343.009 181.882C343.009 181.882 335.969 187.377 330.83 185.52L326.824 172.783C326.824 172.783 329.885 157.216 335.058 159.662Z" fill="url(#paint65_linear_506_3601)"/>
<path d="M311.324 151.682C311.324 152.025 318.983 173.331 318.983 173.331L331.075 168.706L326.821 147.435C326.821 147.435 311.326 145.95 311.326 151.682H311.324Z" fill="url(#paint66_linear_506_3601)"/>
<path d="M324.702 152.618L327.819 163.64C327.859 163.781 327.88 163.924 327.88 164.072C327.88 164.97 327.659 168.065 324.503 167.643C321.639 167.262 319.02 166.955 317.354 167.738C316.607 168.089 316.248 168.949 316.528 169.726C317.224 171.661 318.874 175.994 320.883 179.541C321.29 180.261 322.184 180.54 322.938 180.197C325.21 179.166 329.937 176.856 333.306 174.109C333.763 173.737 333.982 173.151 333.874 172.573C333.344 169.754 331.766 161.177 331.697 158.72C331.632 156.413 334.224 154.652 335.365 153.99C335.739 153.773 336.006 153.415 336.107 152.995C336.465 151.511 336.77 148.151 332.476 147.41C331.578 147.255 330.992 146.397 331.175 145.504C331.537 143.728 331.421 141.116 328.045 140.152C324.612 139.174 322.453 141.237 321.353 142.818C320.909 143.458 320.079 143.666 319.366 143.348C318.96 143.167 318.471 143.158 317.945 143.602C317.237 144.199 316.157 144.017 315.636 143.251C314.636 141.78 312.817 140.311 309.738 141.306C304.276 143.071 304.536 149.36 306.539 152.778C308.542 156.196 314.355 153.947 317.108 151.682C319.201 149.96 322.386 150.99 323.794 151.583C324.24 151.77 324.572 152.152 324.703 152.616L324.702 152.618Z" fill="url(#paint67_linear_506_3601)"/>
<path d="M332.791 162.743C332.791 162.743 329.557 156.637 331.696 154.72C333.833 152.803 337.456 153.117 337.359 157.892C337.237 163.831 332.791 162.745 332.791 162.745V162.743Z" fill="url(#paint68_linear_506_3601)"/>
<path d="M352.176 245.33C353.941 245.33 355.199 245.196 355.336 245.181L355.566 245.155L364.979 201.334C365.016 201.161 364.906 200.991 364.732 200.954C364.558 200.915 364.389 201.027 364.352 201.2L355.036 244.566C353.635 244.689 346.154 245.185 342.205 242.392L350.36 204.321L348.657 201.118C348.574 200.962 348.38 200.903 348.224 200.986C348.067 201.069 348.008 201.262 348.091 201.418L349.684 204.415L341.492 242.661L341.656 242.784C344.508 244.925 349.106 245.33 352.176 245.33Z" fill="#91B3FA"/>
<path d="M69.9801 378.934C69.7641 378.934 69.544 378.887 69.3323 378.787C68.5003 378.398 68.1155 377.346 68.474 376.439L102.871 289.295C103.229 288.388 104.193 287.97 105.027 288.359C105.859 288.749 106.243 289.801 105.885 290.708L71.4875 377.85C71.2204 378.526 70.6155 378.933 69.9801 378.933V378.934Z" fill="url(#paint69_linear_506_3601)"/>
<path d="M108.73 378.934C108.095 378.934 107.49 378.529 107.223 377.852L72.8256 290.709C72.4671 289.802 72.8519 288.751 73.6838 288.361C74.5158 287.971 75.4806 288.39 75.8391 289.297L110.236 376.441C110.595 377.347 110.21 378.399 109.378 378.789C109.168 378.888 108.948 378.935 108.73 378.935V378.934Z" fill="url(#paint70_linear_506_3601)"/>
<path d="M303.425 378.934C303.209 378.934 302.989 378.887 302.778 378.787C301.946 378.398 301.561 377.346 301.919 376.439L336.317 289.295C336.675 288.388 337.639 287.97 338.472 288.359C339.304 288.749 339.689 289.801 339.33 290.708L304.933 377.85C304.666 378.526 304.061 378.933 303.425 378.933V378.934Z" fill="url(#paint71_linear_506_3601)"/>
<path d="M342.176 378.934C341.54 378.934 340.935 378.529 340.668 377.852L306.271 290.709C305.912 289.802 306.297 288.751 307.129 288.361C307.961 287.971 308.926 288.39 309.284 289.297L343.682 376.441C344.04 377.347 343.656 378.399 342.824 378.789C342.612 378.888 342.393 378.935 342.176 378.935V378.934Z" fill="url(#paint72_linear_506_3601)"/>
<path d="M298.43 283.142H348.249V278.009H298.43C299.496 278.009 299.496 283.142 298.43 283.142Z" fill="#91B3FA"/>
<path d="M347.783 283.142C348.04 283.142 348.251 282.932 348.251 282.675V278.476C348.251 278.219 348.04 278.008 347.783 278.008H297.379C297.122 278.008 296.912 277.798 296.912 277.541V277.315C296.912 277.057 297.122 276.847 297.379 276.847H351.102C352.29 276.847 353.254 277.809 353.254 278.995V282.276C353.254 283.395 352.345 284.301 351.224 284.301H297.378C297.121 284.301 296.91 284.091 296.91 283.834V283.607C296.91 283.35 297.121 283.14 297.378 283.14H347.782L347.783 283.142Z" fill="url(#paint73_linear_506_3601)"/>
<path d="M355.473 286.603C355.64 286.029 355.412 285.437 354.851 284.987C354.291 284.536 353.456 284.276 352.574 284.276H54.0622C52.9035 284.276 51.8238 284.668 51.1995 285.314C50.5752 285.961 50.4908 286.774 50.978 287.47L54.213 292.108C54.9536 293.169 56.5594 293.849 58.3257 293.849H350.525C352.169 293.849 353.581 293.078 353.892 292.009L355.471 286.604L355.473 286.603Z" fill="url(#paint74_linear_506_3601)"/>
</g>
<defs>
<linearGradient id="paint0_linear_506_3601" x1="434.734" y1="499.825" x2="91.4483" y2="72.8343" gradientUnits="userSpaceOnUse">
<stop stop-color="#DAE3FE"/>
<stop offset="1" stop-color="#E9EFFD"/>
</linearGradient>
<linearGradient id="paint1_linear_506_3601" x1="233.134" y1="139.055" x2="228.409" y2="170.293" gradientUnits="userSpaceOnUse">
<stop stop-color="#09005D"/>
<stop offset="1" stop-color="#1A0F91"/>
</linearGradient>
<linearGradient id="paint2_linear_506_3601" x1="234.183" y1="126.104" x2="226.023" y2="216.243" gradientUnits="userSpaceOnUse">
<stop stop-color="#53D8FF"/>
<stop offset="1" stop-color="#3840F7"/>
</linearGradient>
<linearGradient id="paint3_linear_506_3601" x1="234.422" y1="126.125" x2="226.262" y2="216.264" gradientUnits="userSpaceOnUse">
<stop stop-color="#53D8FF"/>
<stop offset="1" stop-color="#3840F7"/>
</linearGradient>
<linearGradient id="paint4_linear_506_3601" x1="233.969" y1="126.085" x2="225.808" y2="216.223" gradientUnits="userSpaceOnUse">
<stop stop-color="#53D8FF"/>
<stop offset="1" stop-color="#3840F7"/>
</linearGradient>
<linearGradient id="paint5_linear_506_3601" x1="234.213" y1="126.107" x2="226.053" y2="216.245" gradientUnits="userSpaceOnUse">
<stop stop-color="#53D8FF"/>
<stop offset="1" stop-color="#3840F7"/>
</linearGradient>
<linearGradient id="paint6_linear_506_3601" x1="236.699" y1="62.0056" x2="224.108" y2="147.475" gradientUnits="userSpaceOnUse">
<stop stop-color="#FF928E"/>
<stop offset="1" stop-color="#FE7062"/>
</linearGradient>
<linearGradient id="paint7_linear_506_3601" x1="353.093" y1="-40.7388" x2="296.38" y2="38.5013" gradientUnits="userSpaceOnUse">
<stop stop-color="#E1473D"/>
<stop offset="1" stop-color="#E9605A"/>
</linearGradient>
<linearGradient id="paint8_linear_506_3601" x1="345.203" y1="-46.3863" x2="288.49" y2="32.8539" gradientUnits="userSpaceOnUse">
<stop stop-color="#E1473D"/>
<stop offset="1" stop-color="#E9605A"/>
</linearGradient>
<linearGradient id="paint9_linear_506_3601" x1="165.633" y1="354.954" x2="81.3964" y2="445.002" gradientUnits="userSpaceOnUse">
<stop stop-color="#09005D"/>
<stop offset="1" stop-color="#1A0F91"/>
</linearGradient>
<linearGradient id="paint10_linear_506_3601" x1="138.46" y1="361.434" x2="145.878" y2="361.504" gradientUnits="userSpaceOnUse">
<stop stop-color="#FEBBBA"/>
<stop offset="1" stop-color="#FF928E"/>
</linearGradient>
<linearGradient id="paint11_linear_506_3601" x1="173.184" y1="252.43" x2="101.345" y2="348.047" gradientUnits="userSpaceOnUse">
<stop stop-color="#09005D"/>
<stop offset="1" stop-color="#1A0F91"/>
</linearGradient>
<linearGradient id="paint12_linear_506_3601" x1="147.06" y1="337.575" x2="62.8191" y2="427.627" gradientUnits="userSpaceOnUse">
<stop stop-color="#09005D"/>
<stop offset="1" stop-color="#1A0F91"/>
</linearGradient>
<linearGradient id="paint13_linear_506_3601" x1="111.73" y1="360.802" x2="118.134" y2="360.863" gradientUnits="userSpaceOnUse">
<stop stop-color="#FEBBBA"/>
<stop offset="1" stop-color="#FF928E"/>
</linearGradient>
<linearGradient id="paint14_linear_506_3601" x1="160.607" y1="242.979" x2="88.7676" y2="338.596" gradientUnits="userSpaceOnUse">
<stop stop-color="#09005D"/>
<stop offset="1" stop-color="#1A0F91"/>
</linearGradient>
<linearGradient id="paint15_linear_506_3601" x1="-150.353" y1="-287.352" x2="-85.0177" y2="-173.932" gradientUnits="userSpaceOnUse">
<stop stop-color="#FF928E"/>
<stop offset="1" stop-color="#FE7062"/>
</linearGradient>
<linearGradient id="paint16_linear_506_3601" x1="170.819" y1="168.472" x2="208.722" y2="168.829" gradientUnits="userSpaceOnUse">
<stop stop-color="#FEBBBA"/>
<stop offset="1" stop-color="#FF928E"/>
</linearGradient>
<linearGradient id="paint17_linear_506_3601" x1="200.4" y1="162.505" x2="174.488" y2="220.073" gradientUnits="userSpaceOnUse">
<stop stop-color="#FEBBBA"/>
<stop offset="1" stop-color="#FF928E"/>
</linearGradient>
<linearGradient id="paint18_linear_506_3601" x1="208.785" y1="143.242" x2="219.529" y2="127.036" gradientUnits="userSpaceOnUse">
<stop stop-color="#FEBBBA"/>
<stop offset="1" stop-color="#FF928E"/>
</linearGradient>
<linearGradient id="paint19_linear_506_3601" x1="-172.652" y1="-274.507" x2="-107.319" y2="-161.088" gradientUnits="userSpaceOnUse">
<stop stop-color="#FF928E"/>
<stop offset="1" stop-color="#FE7062"/>
</linearGradient>
<linearGradient id="paint20_linear_506_3601" x1="87.3774" y1="221.291" x2="135.342" y2="221.744" gradientUnits="userSpaceOnUse">
<stop stop-color="#FEBBBA"/>
<stop offset="1" stop-color="#FF928E"/>
</linearGradient>
<linearGradient id="paint21_linear_506_3601" x1="124.693" y1="170.441" x2="143.658" y2="170.62" gradientUnits="userSpaceOnUse">
<stop stop-color="#FEBBBA"/>
<stop offset="1" stop-color="#FF928E"/>
</linearGradient>
<linearGradient id="paint22_linear_506_3601" x1="148.31" y1="158.69" x2="127.596" y2="145.766" gradientUnits="userSpaceOnUse">
<stop stop-color="#FEBBBA"/>
<stop offset="1" stop-color="#FF928E"/>
</linearGradient>
<linearGradient id="paint23_linear_506_3601" x1="116.67" y1="132.304" x2="143.374" y2="153.842" gradientUnits="userSpaceOnUse">
<stop stop-color="#09005D"/>
<stop offset="1" stop-color="#1A0F91"/>
</linearGradient>
<linearGradient id="paint24_linear_506_3601" x1="142.791" y1="163.373" x2="124.154" y2="151.746" gradientUnits="userSpaceOnUse">
<stop stop-color="#FEBBBA"/>
<stop offset="1" stop-color="#FF928E"/>
</linearGradient>
<linearGradient id="paint25_linear_506_3601" x1="148.223" y1="190.929" x2="174.615" y2="301.062" gradientUnits="userSpaceOnUse">
<stop stop-color="#09005D"/>
<stop offset="1" stop-color="#1A0F91"/>
</linearGradient>
<linearGradient id="paint26_linear_506_3601" x1="130.085" y1="220.061" x2="145.082" y2="220.061" gradientUnits="userSpaceOnUse">
<stop stop-color="#FEBBBA"/>
<stop offset="1" stop-color="#FF928E"/>
</linearGradient>
<linearGradient id="paint27_linear_506_3601" x1="85.0393" y1="292.965" x2="88.1485" y2="369.247" gradientUnits="userSpaceOnUse">
<stop stop-color="#4F52FF"/>
<stop offset="1" stop-color="#4042E2"/>
</linearGradient>
<linearGradient id="paint28_linear_506_3601" x1="75.1875" y1="364.732" x2="83.0971" y2="364.732" gradientUnits="userSpaceOnUse">
<stop stop-color="#FEBBBA"/>
<stop offset="1" stop-color="#FF928E"/>
</linearGradient>
<linearGradient id="paint29_linear_506_3601" x1="126.799" y1="291.263" x2="129.907" y2="367.545" gradientUnits="userSpaceOnUse">
<stop stop-color="#4F52FF"/>
<stop offset="1" stop-color="#4042E2"/>
</linearGradient>
<linearGradient id="paint30_linear_506_3601" x1="31.4504" y1="329.095" x2="94.0686" y2="329.095" gradientUnits="userSpaceOnUse">
<stop stop-color="#09005D"/>
<stop offset="1" stop-color="#1A0F91"/>
</linearGradient>
<linearGradient id="paint31_linear_506_3601" x1="112.652" y1="365.397" x2="122.096" y2="365.397" gradientUnits="userSpaceOnUse">
<stop stop-color="#FEBBBA"/>
<stop offset="1" stop-color="#FF928E"/>
</linearGradient>
<linearGradient id="paint32_linear_506_3601" x1="88.3284" y1="303.046" x2="19.7029" y2="380.971" gradientUnits="userSpaceOnUse">
<stop stop-color="#09005D"/>
<stop offset="1" stop-color="#1A0F91"/>
</linearGradient>
<linearGradient id="paint33_linear_506_3601" x1="60.2" y1="232.526" x2="64.843" y2="220.8" gradientUnits="userSpaceOnUse">
<stop stop-color="#FEBBBA"/>
<stop offset="1" stop-color="#FF928E"/>
</linearGradient>
<linearGradient id="paint34_linear_506_3601" x1="185.958" y1="84.0993" x2="43.4214" y2="301.63" gradientUnits="userSpaceOnUse">
<stop stop-color="#4F52FF"/>
<stop offset="1" stop-color="#4042E2"/>
</linearGradient>
<linearGradient id="paint35_linear_506_3601" x1="63.2199" y1="251.799" x2="153.521" y2="101.068" gradientUnits="userSpaceOnUse">
<stop stop-color="#09005D"/>
<stop offset="1" stop-color="#1A0F91"/>
</linearGradient>
<linearGradient id="paint36_linear_506_3601" x1="99.9766" y1="278.118" x2="121.79" y2="278.118" gradientUnits="userSpaceOnUse">
<stop stop-color="#FEBBBA"/>
<stop offset="1" stop-color="#FF928E"/>
</linearGradient>
<linearGradient id="paint37_linear_506_3601" x1="74.4057" y1="208.723" x2="53.5948" y2="229.508" gradientUnits="userSpaceOnUse">
<stop stop-color="#FEBBBA"/>
<stop offset="1" stop-color="#FF928E"/>
</linearGradient>
<linearGradient id="paint38_linear_506_3601" x1="56.2817" y1="196.886" x2="80.7875" y2="221.144" gradientUnits="userSpaceOnUse">
<stop stop-color="#09005D"/>
<stop offset="1" stop-color="#1A0F91"/>
</linearGradient>
<linearGradient id="paint39_linear_506_3601" x1="71.0367" y1="205.349" x2="50.2273" y2="226.135" gradientUnits="userSpaceOnUse">
<stop stop-color="#FEBBBA"/>
<stop offset="1" stop-color="#FF928E"/>
</linearGradient>
<linearGradient id="paint40_linear_506_3601" x1="-4575.01" y1="-4713.48" x2="-4498.01" y2="-4631.18" gradientUnits="userSpaceOnUse">
<stop stop-color="#09005D"/>
<stop offset="1" stop-color="#1A0F91"/>
</linearGradient>
<linearGradient id="paint41_linear_506_3601" x1="6657.76" y1="-1875.08" x2="6550.65" y2="-1839.81" gradientUnits="userSpaceOnUse">
<stop stop-color="#09005D"/>
<stop offset="1" stop-color="#1A0F91"/>
</linearGradient>
<linearGradient id="paint42_linear_506_3601" x1="179.892" y1="521.69" x2="238.027" y2="288.793" gradientUnits="userSpaceOnUse">
<stop stop-color="#FEBBBA"/>
<stop offset="1" stop-color="#FF928E"/>
</linearGradient>
<linearGradient id="paint43_linear_506_3601" x1="311.818" y1="236.418" x2="256.518" y2="329.66" gradientUnits="userSpaceOnUse">
<stop stop-color="#09005D"/>
<stop offset="1" stop-color="#1A0F91"/>
</linearGradient>
<linearGradient id="paint44_linear_506_3601" x1="208.224" y1="374.414" x2="219.85" y2="200.741" gradientUnits="userSpaceOnUse">
<stop stop-color="#FEBBBA"/>
<stop offset="1" stop-color="#FF928E"/>
</linearGradient>
<linearGradient id="paint45_linear_506_3601" x1="218.378" y1="298.309" x2="295.644" y2="298.309" gradientUnits="userSpaceOnUse">
<stop stop-color="#09005D"/>
<stop offset="1" stop-color="#1A0F91"/>
</linearGradient>
<linearGradient id="paint46_linear_506_3601" x1="280.157" y1="217.642" x2="224.865" y2="310.873" gradientUnits="userSpaceOnUse">
<stop stop-color="#09005D"/>
<stop offset="1" stop-color="#1A0F91"/>
</linearGradient>
<linearGradient id="paint47_linear_506_3601" x1="272.806" y1="169.453" x2="261.462" y2="229.141" gradientUnits="userSpaceOnUse">
<stop stop-color="#09005D"/>
<stop offset="1" stop-color="#1A0F91"/>
</linearGradient>
<linearGradient id="paint48_linear_506_3601" x1="218.796" y1="362.674" x2="262.183" y2="265.253" gradientUnits="userSpaceOnUse">
<stop stop-color="#4F52FF"/>
<stop offset="1" stop-color="#4042E2"/>
</linearGradient>
<linearGradient id="paint49_linear_506_3601" x1="253.976" y1="244.121" x2="249.335" y2="214.291" gradientUnits="userSpaceOnUse">
<stop stop-color="#FEBBBA"/>
<stop offset="1" stop-color="#FF928E"/>
</linearGradient>
<linearGradient id="paint50_linear_506_3601" x1="228.702" y1="212.492" x2="263.596" y2="200.701" gradientUnits="userSpaceOnUse">
<stop stop-color="#FEBBBA"/>
<stop offset="1" stop-color="#FF928E"/>
</linearGradient>
<linearGradient id="paint51_linear_506_3601" x1="221.256" y1="181.384" x2="261.942" y2="226.555" gradientUnits="userSpaceOnUse">
<stop stop-color="#09005D"/>
<stop offset="1" stop-color="#1A0F91"/>
</linearGradient>
<linearGradient id="paint52_linear_506_3601" x1="227.662" y1="209.417" x2="262.557" y2="197.625" gradientUnits="userSpaceOnUse">
<stop stop-color="#FEBBBA"/>
<stop offset="1" stop-color="#FF928E"/>
</linearGradient>
<linearGradient id="paint53_linear_506_3601" x1="273.094" y1="277.989" x2="337.884" y2="277.989" gradientUnits="userSpaceOnUse">
<stop stop-color="#FEBBBA"/>
<stop offset="1" stop-color="#FF928E"/>
</linearGradient>
<linearGradient id="paint54_linear_506_3601" x1="274.313" y1="271.327" x2="234.141" y2="284.523" gradientUnits="userSpaceOnUse">
<stop stop-color="#09005D"/>
<stop offset="1" stop-color="#1A0F91"/>
</linearGradient>
<linearGradient id="paint55_linear_506_3601" x1="219.126" y1="245.019" x2="190.234" y2="275.603" gradientUnits="userSpaceOnUse">
<stop stop-color="#09005D"/>
<stop offset="1" stop-color="#1A0F91"/>
</linearGradient>
<linearGradient id="paint56_linear_506_3601" x1="309.71" y1="422.054" x2="309.284" y2="467.28" gradientUnits="userSpaceOnUse">
<stop stop-color="#09005D"/>
<stop offset="1" stop-color="#1A0F91"/>
</linearGradient>
<linearGradient id="paint57_linear_506_3601" x1="320.626" y1="371.548" x2="322.97" y2="353.2" gradientUnits="userSpaceOnUse">
<stop stop-color="#FEBBBA"/>
<stop offset="1" stop-color="#FF928E"/>
</linearGradient>
<linearGradient id="paint58_linear_506_3601" x1="370.905" y1="422.63" x2="370.479" y2="467.857" gradientUnits="userSpaceOnUse">
<stop stop-color="#09005D"/>
<stop offset="1" stop-color="#1A0F91"/>
</linearGradient>
<linearGradient id="paint59_linear_506_3601" x1="371.997" y1="377.835" x2="374.279" y2="359.956" gradientUnits="userSpaceOnUse">
<stop stop-color="#FEBBBA"/>
<stop offset="1" stop-color="#FF928E"/>
</linearGradient>
<linearGradient id="paint60_linear_506_3601" x1="335.953" y1="233.497" x2="357.095" y2="336.569" gradientUnits="userSpaceOnUse">
<stop stop-color="#09005D"/>
<stop offset="1" stop-color="#1A0F91"/>
</linearGradient>
<linearGradient id="paint61_linear_506_3601" x1="373.38" y1="299.103" x2="370.823" y2="293.979" gradientUnits="userSpaceOnUse">
<stop stop-color="#4F52FF"/>
<stop offset="1" stop-color="#4042E2"/>
</linearGradient>
<linearGradient id="paint62_linear_506_3601" x1="331.188" y1="191.557" x2="375.079" y2="322.156" gradientUnits="userSpaceOnUse">
<stop stop-color="#4F52FF"/>
<stop offset="1" stop-color="#4042E2"/>
</linearGradient>
<linearGradient id="paint63_linear_506_3601" x1="354.685" y1="260.414" x2="322.586" y2="260.414" gradientUnits="userSpaceOnUse">
<stop stop-color="#FEBBBA"/>
<stop offset="1" stop-color="#FF928E"/>
</linearGradient>
<linearGradient id="paint64_linear_506_3601" x1="325.104" y1="220.238" x2="265.16" y2="220.238" gradientUnits="userSpaceOnUse">
<stop stop-color="#FEBBBA"/>
<stop offset="1" stop-color="#FF928E"/>
</linearGradient>
<linearGradient id="paint65_linear_506_3601" x1="346.687" y1="186.668" x2="325.857" y2="165.266" gradientUnits="userSpaceOnUse">
<stop stop-color="#FEBBBA"/>
<stop offset="1" stop-color="#FF928E"/>
</linearGradient>
<linearGradient id="paint66_linear_506_3601" x1="316.429" y1="151.833" x2="342.388" y2="186.227" gradientUnits="userSpaceOnUse">
<stop stop-color="#FEBBBA"/>
<stop offset="1" stop-color="#FF928E"/>
</linearGradient>
<linearGradient id="paint67_linear_506_3601" x1="356.079" y1="54.1249" x2="328.712" y2="133.546" gradientUnits="userSpaceOnUse">
<stop stop-color="#E1473D"/>
<stop offset="1" stop-color="#E9605A"/>
</linearGradient>
<linearGradient id="paint68_linear_506_3601" x1="354.525" y1="179.039" x2="333.696" y2="157.636" gradientUnits="userSpaceOnUse">
<stop stop-color="#FEBBBA"/>
<stop offset="1" stop-color="#FF928E"/>
</linearGradient>
<linearGradient id="paint69_linear_506_3601" x1="19.7953" y1="573.506" x2="96.8348" y2="298.359" gradientUnits="userSpaceOnUse">
<stop stop-color="#4F52FF"/>
<stop offset="1" stop-color="#4042E2"/>
</linearGradient>
<linearGradient id="paint70_linear_506_3601" x1="23.8285" y1="574.636" x2="100.868" y2="299.488" gradientUnits="userSpaceOnUse">
<stop stop-color="#4F52FF"/>
<stop offset="1" stop-color="#4042E2"/>
</linearGradient>
<linearGradient id="paint71_linear_506_3601" x1="236.22" y1="634.105" x2="313.261" y2="358.957" gradientUnits="userSpaceOnUse">
<stop stop-color="#4F52FF"/>
<stop offset="1" stop-color="#4042E2"/>
</linearGradient>
<linearGradient id="paint72_linear_506_3601" x1="240.254" y1="635.234" x2="317.295" y2="360.085" gradientUnits="userSpaceOnUse">
<stop stop-color="#4F52FF"/>
<stop offset="1" stop-color="#4042E2"/>
</linearGradient>
<linearGradient id="paint73_linear_506_3601" x1="345.211" y1="195.481" x2="332.834" y2="247.546" gradientUnits="userSpaceOnUse">
<stop stop-color="#09005D"/>
<stop offset="1" stop-color="#1A0F91"/>
</linearGradient>
<linearGradient id="paint74_linear_506_3601" x1="114.968" y1="600.154" x2="192.008" y2="325.006" gradientUnits="userSpaceOnUse">
<stop stop-color="#4F52FF"/>
<stop offset="1" stop-color="#4042E2"/>
</linearGradient>
<clipPath id="clip0_506_3601">
<rect width="388" height="387" fill="white"/>
</clipPath>
</defs>
</svg>
