<svg width="316" height="366" viewBox="0 0 316 366" fill="none" xmlns="http://www.w3.org/2000/svg">
<ellipse cx="158" cy="170.5" rx="158" ry="158.5" fill="#BC955A"/>
<path d="M202.776 336.303L219.315 341.354L233.499 320.663L232.299 307.501L231.646 300.251L212.217 291.814L197.496 305.407C197.904 307.827 198.312 310.213 198.708 312.552V312.575C200.188 321.233 201.564 329.263 202.776 336.315V336.303Z" fill="#D67D7A"/>
<path d="M232.312 307.489L231.66 300.239L212.23 291.802L197.51 305.394C197.918 307.815 198.326 310.2 198.722 312.54V312.563L232.312 307.489Z" fill="#C15956"/>
<path d="M231.645 300.239L229.803 280.072L217.181 141.335L171.107 148.294C171.107 148.294 183.625 223.47 194.115 285.46C195.28 292.303 196.411 298.994 197.495 305.395L231.645 300.239Z" fill="#31190F"/>
<path d="M233.497 320.651L202.773 336.303C204.662 347.277 206.177 355.912 207.109 360.962L235.618 359.705L261.551 352.735C259.919 351.14 257.425 349.441 253.625 348.161C249.721 346.846 245.968 345.31 242.891 343.949C238.24 341.901 235.024 337.525 234.581 332.637L233.485 320.64L233.497 320.651Z" fill="#31190F"/>
<path d="M261.563 352.734L207.121 360.95C207.669 363.894 208.007 365.628 208.123 365.908L264.57 357.389C264.57 357.389 264.092 355.19 261.574 352.734H261.563Z" fill="white"/>
<path d="M176.454 308.164L177.351 300.903L160.113 289.661L142.817 300.903C142.712 303.358 142.595 305.779 142.49 308.141V308.164C142.094 316.95 141.744 325.084 141.441 332.241L156.57 339.701L174.845 321.361L176.465 308.164H176.454Z" fill="#D67D7A"/>
<path d="M174.837 321.698C174.837 321.698 174.813 321.698 174.79 321.698C174.603 321.675 174.464 321.501 174.487 321.314L176.107 308.118L177.004 301.368C177.028 301.182 177.203 301.054 177.389 301.077C177.576 301.101 177.704 301.275 177.68 301.461L176.783 308.199L175.163 321.384C175.14 321.559 174.988 321.687 174.825 321.687L174.837 321.698Z" fill="#C15956"/>
<path d="M160.105 289.661L142.809 300.903C142.704 303.358 142.587 305.779 142.482 308.141V308.164H176.458L177.355 300.903L160.117 289.661H160.105Z" fill="#C15956"/>
<path d="M196.879 141.626H150.282C150.282 141.626 146.61 217.826 143.72 280.678C143.405 287.625 143.09 294.398 142.799 300.891H177.333L179.816 280.678L196.868 141.626H196.879Z" fill="#461E0F"/>
<path d="M156.538 294.363H156.515C156.328 294.351 156.188 294.176 156.2 293.99L167.459 153.053C167.471 152.867 167.634 152.716 167.832 152.739C168.018 152.751 168.158 152.914 168.147 153.112L156.888 294.048C156.876 294.223 156.724 294.363 156.55 294.363H156.538Z" fill="#2C1514"/>
<path d="M174.838 321.349L141.434 332.23C140.956 343.367 140.618 352.118 140.455 357.261L168.638 360.275L195.515 357.261C194.256 355.446 192.169 353.386 188.731 351.559C185.188 349.674 181.843 347.602 179.116 345.799C175.001 343.076 172.775 338.269 173.37 333.37L174.838 321.349Z" fill="#461E0F"/>
<path d="M194.266 356.063C194.173 356.063 194.079 356.028 194.01 355.946C192.599 354.41 190.769 353.037 188.555 351.862C185.49 350.232 182.249 348.289 178.904 346.078C174.65 343.273 172.389 338.386 173.007 333.324L173.38 330.275C173.403 330.089 173.578 329.949 173.764 329.972C173.951 329.996 174.091 330.17 174.067 330.356L173.694 333.405C173.1 338.2 175.245 342.843 179.289 345.508C182.611 347.696 185.839 349.639 188.881 351.256C191.166 352.467 193.054 353.898 194.522 355.481C194.651 355.62 194.639 355.842 194.499 355.97C194.429 356.028 194.348 356.063 194.266 356.063Z" fill="#2C1514"/>
<path d="M143.725 280.678C143.411 287.625 143.096 294.398 142.805 300.891H177.339L179.822 280.678H143.725Z" fill="#31190F"/>
<path d="M195.512 357.273H140.453C140.359 360.264 140.336 362.033 140.383 362.323H197.47C197.47 362.323 197.47 360.077 195.524 357.273H195.512Z" fill="white"/>
<path d="M126.303 18.296C126.303 18.296 156.082 17.4814 168.111 37.9044C168.111 37.9044 141.781 111.416 145.255 176.944C145.255 176.944 120.103 189.803 96.1277 182.937C78.8896 178.003 100.58 20.3557 126.315 18.296H126.303Z" fill="#100F0E"/>
<path d="M160.609 38.0908C145.014 69.5691 102.542 67.1603 102.542 67.1603L101.528 67.4628C89.9663 114.837 85.1643 179.807 96.1319 182.949C120.107 189.815 145.259 176.956 145.259 176.956C142.019 115.722 164.793 47.5285 167.788 38.8472L160.609 38.0908Z" fill="#100F0E"/>
<path d="M100.612 125.497C100.612 125.497 115.053 126.94 126.755 123.844C126.755 123.844 127.011 154.089 124.482 158.057C121.964 162.026 103.433 161.083 99.5281 159C95.6236 156.917 100.612 125.485 100.612 125.485V125.497Z" fill="#461E0F"/>
<path d="M107.378 83.9987C107.378 83.9987 119.779 85.9305 130.024 83.8125C130.024 83.8125 128.812 109.926 126.446 113.231C124.08 116.536 108.136 114.849 104.861 112.87C101.585 110.892 107.378 83.9987 107.378 83.9987Z" fill="#461E0F"/>
<path d="M175.486 32.0972C175.486 32.0972 179.833 35.5068 193.913 39.9755C193.913 39.9755 206.116 53.6258 204.228 78.2731C204.228 78.2731 201.454 109.612 195.032 125.066C195.032 125.066 173.4 127.579 161.546 120.178C161.546 120.178 162.922 98.126 160.567 83.3236C159.309 75.3871 145.485 37.8692 175.486 32.0972Z" fill="#FE7820"/>
<path d="M198.564 65.5894C198.564 65.5894 199.601 55.884 204.287 68.8943C208.203 79.7866 223.506 180.913 220.033 182.786C206.559 190.083 147.898 190.502 142.222 181.46C136.546 172.429 151.733 104.515 151.512 97.9288C151.278 91.3422 151.383 62.2961 155.836 51.7994C160.3 41.2911 198.564 65.5894 198.564 65.5894Z" fill="#FE7820"/>
<path d="M145.172 118.561C145.172 118.561 199.66 70.1158 172.632 38.0557C172.632 38.0557 167.13 34.1921 160.359 36.6243L161.781 33.3775C161.781 33.3775 168.785 31.5272 175.476 35.6119C175.476 35.6119 208.25 66.6829 148.925 118.573H145.16L145.172 118.561Z" fill="#31190F"/>
<path d="M156.068 58.5837C156.068 58.5837 152.991 41.5005 165.975 38.277C178.959 35.0652 179.355 66.2177 168.924 68.196C158.492 70.1743 156.068 58.5837 156.068 58.5837Z" fill="#FD5C00"/>
<path d="M178.81 36.6011C178.985 37.8114 184.871 44.8402 186.561 45.0147C187.925 45.1544 189.148 42.7455 189.79 40.2785C189.883 39.9293 189.964 39.5802 190.023 39.2311C190.559 36.4382 190.85 34.0875 190.85 34.0875L182.913 25.1968C182.913 25.1968 182.155 27.0005 181.293 29.1883C180.104 32.1907 178.705 35.9145 178.81 36.6128V36.6011Z" fill="#D67D7A"/>
<path d="M181.291 29.1654C182.235 31.8885 184.531 36.5433 189.788 40.2672C189.881 39.9181 189.963 39.569 190.021 39.2199C190.557 36.427 190.848 34.0763 190.848 34.0763L182.911 25.1855C182.911 25.1855 182.154 26.9893 181.291 29.1771V29.1654Z" fill="#B6696A"/>
<path d="M183.227 27.7452C183.227 27.7452 181.409 38.1954 175.873 41.4188C170.337 44.6539 166.117 40.5344 161.595 42.0821C157.073 43.6299 155.08 46.3297 155.08 46.3297C155.08 46.3297 153.133 41.4188 155.348 36.8105C157.562 32.2022 162.458 31.4924 165.943 26.0928C170.337 19.2967 167.19 11.849 173.484 5.46022C180.675 -1.83624 190.547 -0.881996 196.992 2.87678C202.225 5.93734 203.542 10.7551 203.146 12.6403C202.936 13.6178 201.981 14.6652 201.981 14.6652L183.227 27.722V27.7452Z" fill="#100F0E"/>
<path d="M178.304 21.3909C179.586 24.2187 182.092 23.5205 182.092 23.5205C182.092 23.5205 181.462 28.1986 184.05 31.4919C186.649 34.7735 192.197 36.3794 194.994 35.6463C195.961 35.3903 196.742 34.564 197.36 33.5516C197.978 32.5276 200.95 23.567 201.078 22.7408C201.206 21.9145 202.477 18.8889 201.975 14.7112C201.975 14.7112 198.152 13.1867 196.719 11.0571C196.719 11.0571 195.204 13.0471 192.092 13.3147C188.514 13.6289 186.963 14.4435 185.705 17.6554C184.796 19.9595 183.49 20.8905 183.49 20.8905C183.49 20.8905 184.05 17.9463 182.022 16.7128C179.551 15.1999 176.707 17.923 178.304 21.4258V21.3909Z" fill="#D67D7A"/>
<path d="M181.384 17.6904C181.944 18.0163 182.328 18.5632 182.468 19.2382C182.643 20.0527 182.468 20.9604 181.979 21.6587C181.734 21.4957 181.652 21.1815 181.769 20.9139C181.979 20.4251 182.049 19.8549 181.932 19.3545C181.886 19.1334 181.781 18.8541 181.583 18.5981C181.396 18.6679 181.081 18.8192 180.906 19.1916C180.778 19.436 180.534 19.5989 180.254 19.5756C180.335 18.8541 180.755 18.4236 181.163 18.2141C180.499 17.7951 179.904 17.993 179.543 18.2141C179.31 18.3537 179.018 18.3188 178.82 18.1326L178.797 18.1094C179.205 17.6788 180.254 17.0504 181.384 17.7137V17.6904Z" fill="#BA403E"/>
<path d="M156.556 86.7106C156.556 86.7106 168.13 102.537 184.984 109.519C184.984 109.519 183.364 115.768 177.466 118.561C177.466 118.561 169.878 116.746 164.843 115.128C142.593 107.937 134.4 95.4268 130.868 91.1792C126.917 86.4429 149.633 85.6167 156.556 86.7106Z" fill="#FD5C00"/>
<path d="M172.13 60.9111L171.081 66.3805C171.081 66.3805 158.202 76.8073 157.059 80.3799C155.917 83.9525 157.246 87.0247 155.929 89.8525C154.6 92.6803 143.842 80.8221 133.271 94.2746C133.271 94.2746 130.206 90.7369 130.042 89.5616C128.842 81.0316 144.25 57.7924 160.463 42.5361C160.463 42.5361 177.083 48.1336 172.141 60.9227L172.13 60.9111Z" fill="#FD5C00"/>
<path d="M202.083 125.602C201.931 124.997 201.337 124.636 200.801 124.38C199.985 123.984 199.146 123.635 198.341 123.205C196.593 122.262 194.996 120.9 193.679 119.422C193.073 118.747 192.537 118.003 192.152 117.177C192.176 117.177 192.211 117.177 192.246 117.177C193.574 117.293 194.95 117.607 196.267 117.595C197.222 117.595 199.285 117.037 198.784 115.652C198.423 114.651 196.838 114.488 195.975 114.162C194.752 113.697 193.574 113.138 192.374 112.638C190.754 111.951 189.052 111.463 187.327 111.079C186.861 110.683 186.383 110.299 185.917 109.903C182.991 112.976 179.914 115.885 176.744 118.701C177.012 118.806 177.28 118.91 177.56 119.004C177.991 119.155 178.422 119.294 178.854 119.411C179.075 119.469 179.297 119.527 179.518 119.574C179.693 119.609 179.914 119.62 180.089 119.69C180.101 119.69 180.124 119.702 180.136 119.713C180.229 119.76 180.299 119.853 180.369 119.934C180.672 120.26 180.882 120.656 181.15 121.017C181.43 121.401 181.709 121.785 182.001 122.157C182.583 122.902 183.213 123.623 183.866 124.31C185.171 125.672 186.639 126.905 188.248 127.894C188.493 128.046 188.737 128.185 188.982 128.325C189.227 128.464 189.518 128.558 189.74 128.732C190.241 128.988 191.453 129.174 191.57 128.36C191.57 128.313 191.57 128.267 191.581 128.22C192.607 128.755 193.668 129.221 194.775 129.582C195.311 129.756 196.535 129.756 196.535 128.93C196.535 128.686 196.442 128.476 196.313 128.278C196.78 128.464 197.257 128.639 197.747 128.79C198.353 128.977 199.705 128.977 199.693 128.046C199.693 127.557 199.379 127.196 199.006 126.893C199.484 127.021 199.961 127.115 200.463 127.126C201.15 127.149 202.083 126.8 202.129 125.974C202.129 125.858 202.129 125.741 202.106 125.637C202.106 125.625 202.106 125.602 202.106 125.59L202.083 125.602Z" fill="#D67D7A"/>
</svg>
