<svg width="303" height="360" viewBox="0 0 303 360" fill="none" xmlns="http://www.w3.org/2000/svg">
<circle cx="151.5" cy="208.5" r="151.5" fill="#818181"/>
<path d="M263.16 161.603C262.348 160.744 261.368 160.055 260.786 159.004C260.181 157.915 259.575 156.803 258.885 155.751C257.178 153.164 254.114 151.979 251.33 150.952C250.664 150.71 249.998 150.456 249.319 150.214L225.308 108.553L226.87 89.4153L228.771 66.0338C228.686 65.9976 228.59 65.9613 228.505 65.925C223.952 65.647 219.629 64.1357 215.815 61.4397C214.362 60.4121 214.41 58.913 215.185 57.8128L207.533 56.3379L196.175 86.2962L194.698 106.849C194.54 109.097 194.637 111.322 195 113.498C196.102 120.292 199.638 126.543 205.063 131.016L238.131 158.278C238.204 159.221 238.18 160.164 238.373 161.107C238.591 162.219 239.112 162.969 239.633 163.948C240.093 164.807 240.71 165.641 241.328 166.39C241.34 166.402 241.352 166.427 241.364 166.439C241.57 166.681 241.776 166.922 241.994 167.14L244.149 171.19C244.149 171.19 244.185 171.25 244.198 171.275C244.198 171.275 244.198 171.287 244.21 171.299C244.755 172.193 245.917 172.52 246.861 172.012C247.467 171.686 247.842 171.093 247.903 170.465C247.903 170.368 247.915 170.259 247.903 170.162C247.903 170.078 247.891 169.993 247.879 169.908C247.854 169.788 247.83 169.667 247.782 169.546L248.278 170.477L248.496 170.888C249.017 171.855 250.228 172.23 251.208 171.71C251.911 171.335 252.298 170.598 252.262 169.848C252.262 169.8 252.262 169.751 252.25 169.703C252.25 169.618 252.226 169.546 252.201 169.461L252.25 169.546C252.25 169.546 252.298 169.63 252.322 169.679C252.879 170.549 254.03 170.864 254.95 170.368C255.652 169.993 256.04 169.256 256.003 168.506C255.991 168.228 255.919 167.962 255.785 167.696C256.355 168.53 257.481 168.832 258.389 168.349C259.273 167.889 259.66 166.838 259.333 165.931C259.297 165.484 259.091 164.722 258.825 163.864C258.752 163.622 258.667 163.38 258.583 163.126C259.624 163.573 260.702 163.888 261.864 163.936C262.239 163.948 262.639 163.936 262.99 163.791C263.341 163.646 263.656 163.356 263.729 162.981C263.826 162.473 263.499 161.99 263.147 161.615L263.16 161.603Z" fill="#F7F1E1"/>
<path d="M242.405 163.078C242.925 162.872 243.531 162.884 244.027 163.09C244.136 163.138 244.245 163.187 244.342 163.259C244.281 162.655 244.475 162.038 244.863 161.591C245.274 161.119 245.904 160.841 246.509 160.865C246.848 160.865 247.187 160.974 247.478 161.144C247.442 161.071 247.405 160.998 247.357 160.914C247.224 160.624 247.151 160.309 247.151 159.983L246.388 159.802L245.383 159.511C245.056 159.403 244.717 159.294 244.39 159.185C243.083 158.713 241.811 158.133 240.637 157.408C241.932 157.903 243.228 158.363 244.536 158.75C244.863 158.834 245.202 158.931 245.529 159.016L246.521 159.258L247.236 159.415C247.26 159.306 247.296 159.197 247.345 159.1C247.817 158.049 249.222 157.517 250.263 158.061C250.566 158.218 250.832 158.448 251.026 158.726C251.038 158.75 251.062 158.786 251.074 158.81C251.074 158.641 251.111 158.484 251.147 158.315C251.22 158.073 251.316 157.855 251.462 157.662C251.595 157.48 251.704 157.311 251.886 157.166C252.055 157.033 252.237 156.924 252.43 156.84C253.048 156.586 253.787 156.61 254.368 156.936C254.586 157.057 254.755 157.214 254.937 157.384C255.082 157.529 255.179 157.698 255.264 157.879L255.53 158.423L256.063 159.499C256.172 159.729 256.281 159.947 256.39 160.176C256.39 160.188 256.402 160.213 256.414 160.225C256.463 160.321 256.499 160.406 256.547 160.503C256.741 160.769 256.947 161.023 257.141 161.289H257.153C257.601 161.881 258.049 162.449 258.521 163.017C258.521 163.03 258.545 163.042 258.557 163.054C258.654 163.332 258.739 163.61 258.824 163.876C258.4 163.404 257.988 162.933 257.613 162.425C257.407 162.147 257.213 161.845 257.032 161.542C257.056 161.591 257.08 161.639 257.092 161.688C256.802 161.216 256.511 160.745 256.233 160.273C256.22 160.249 256.196 160.213 256.184 160.188C256.075 159.995 255.966 159.802 255.845 159.62L255.24 158.581L254.937 158.049C254.465 157.275 253.508 156.876 252.648 157.239C252.636 157.239 252.624 157.251 252.612 157.251C252.358 157.372 252.128 157.541 251.958 157.758C251.91 157.819 251.873 157.879 251.825 157.94C251.728 158.085 251.668 158.254 251.619 158.423C251.571 158.593 251.559 158.774 251.571 158.943C251.571 159.112 251.607 159.294 251.668 159.463C251.692 159.548 251.74 159.62 251.777 159.705L251.922 159.971L251.97 160.068L252.237 160.575L252.479 161.035C252.842 161.748 253.218 162.461 253.581 163.175C254.307 164.613 255.01 166.052 255.676 167.515C254.828 166.149 254.017 164.758 253.23 163.356C252.83 162.655 252.443 161.954 252.055 161.252L251.68 160.563L251.486 160.201L251.389 160.019L251.341 159.935C251.292 159.838 251.232 159.741 251.207 159.632C251.135 159.427 251.086 159.209 251.074 159.004C251.074 159.004 251.074 159.004 251.062 158.992L250.99 158.895L250.917 158.81C250.711 158.568 250.457 158.387 250.166 158.278C249.597 158.036 248.931 158.109 248.447 158.435C248.059 158.677 247.781 159.076 247.672 159.511C247.635 159.632 247.623 159.765 247.611 159.898C247.611 159.971 247.611 160.031 247.611 160.104C247.623 160.309 247.672 160.527 247.769 160.708C247.926 160.998 248.071 161.289 248.229 161.567C248.895 162.824 249.561 164.081 250.19 165.339C250.832 166.608 251.45 167.89 252.019 169.183C251.268 167.974 250.542 166.765 249.839 165.532C249.137 164.299 248.447 163.054 247.793 161.796L247.769 161.748L247.599 161.434C247.502 161.373 247.393 161.325 247.284 161.289C247.03 161.204 246.752 161.156 246.497 161.18C245.964 161.216 245.468 161.482 245.153 161.881C244.838 162.28 244.705 162.812 244.79 163.308C244.814 163.428 244.838 163.549 244.887 163.67C244.911 163.731 244.935 163.791 244.972 163.84L245.068 164.021C245.202 164.275 245.347 164.517 245.468 164.77C246.001 165.774 246.521 166.789 247.03 167.805C247.539 168.833 248.023 169.86 248.471 170.912C247.841 169.957 247.26 168.978 246.691 167.986C246.122 167.007 245.577 166.004 245.032 165C244.899 164.746 244.766 164.492 244.633 164.251L244.536 164.057C244.499 163.985 244.463 163.912 244.439 163.84C244.402 163.743 244.366 163.634 244.342 163.525C244.209 163.453 244.063 163.392 243.906 163.344C243.434 163.211 242.937 163.259 242.514 163.453C242.296 163.549 242.114 163.694 241.957 163.864C241.799 164.033 241.666 164.226 241.581 164.432C241.4 164.855 241.375 165.339 241.521 165.762C241.557 165.871 241.593 165.967 241.654 166.076L241.835 166.427L242.199 167.104C242.429 167.563 242.671 168.023 242.889 168.482C243.337 169.413 243.785 170.344 244.172 171.299C243.591 170.44 243.058 169.558 242.55 168.663C242.283 168.216 242.041 167.769 241.787 167.321L241.424 166.644L241.242 166.306C241.169 166.185 241.109 166.052 241.061 165.919C240.879 165.375 240.915 164.758 241.157 164.238C241.4 163.719 241.835 163.295 242.368 163.09L242.405 163.078Z" fill="#F4A681"/>
<path d="M251.971 154.579C251.971 154.579 267.058 154.422 273.67 158.653C273.67 158.653 273.573 161.434 270.606 163.428C270.606 163.428 268.063 165.496 268.596 166.765C269.129 168.035 270.485 170.102 270.485 170.102C270.485 170.102 269.214 172.085 265.097 173.149C265.097 173.149 264.261 178.347 260.52 179.52C260.52 179.52 257.492 178.081 254.49 172.242C251.475 166.39 249.501 158.593 246.256 157.807L244.318 154.397L251.971 154.579Z" fill="#562F0E"/>
<path d="M250.832 163.96C251.982 166.572 253.133 169.606 254.489 172.254C257.504 178.105 260.519 179.532 260.519 179.532C264.26 178.359 265.096 173.16 265.096 173.16C269.213 172.084 270.484 170.114 270.484 170.114C270.484 170.114 269.128 168.046 268.595 166.777C268.063 165.508 270.605 163.44 270.605 163.44C273.572 161.446 273.669 158.665 273.669 158.665C272.749 158.072 271.647 157.565 270.46 157.142C271.053 158.411 271.635 159.535 270.484 160.37C268.571 161.772 268.365 162.522 267.239 162.207C266.113 161.893 265.798 165.23 266.21 165.943C266.622 166.656 269.068 170.307 266.561 169.836C264.055 169.364 255.99 158.508 253.859 157.516C252.406 156.839 248.011 156.428 245.371 156.235L245.892 157.154C248.144 157.456 251.51 158.181 252.624 159.777C254.356 162.256 262.65 171.311 262.42 172.58C262.202 173.862 262.807 176.038 261.076 175.76C259.344 175.482 251.522 165.435 250.844 163.96H250.832Z" fill="#6B3F13"/>
<path d="M244.318 154.409C244.318 154.409 241.69 150.553 239.099 150.444C236.52 150.335 229 149.876 226.857 148.884C224.714 147.893 208.355 137.967 204.202 138.427C200.049 138.886 182.358 141.05 178.713 144.06C175.069 147.071 174.451 158.749 174.451 158.749L207.435 216.768C207.435 216.768 217.994 223.695 235.309 207.58C235.309 207.58 239.498 205.524 240.685 193.205C241.872 180.886 242.974 176.171 245.407 171.008C245.407 171.008 250.953 164.818 244.293 154.421L244.318 154.409Z" fill="#562F0E"/>
<path d="M217.605 210.772C219.991 210.893 231.009 207.374 231.009 207.374C231.009 207.374 220.402 212.754 217.569 213.311C217.569 213.311 209.347 212.827 205.073 212.597L207.434 216.756C207.434 216.756 217.993 223.683 235.308 207.568C235.308 207.568 239.498 205.513 240.684 193.193C241.871 180.874 242.973 176.159 245.407 170.997C245.407 170.997 250.952 164.807 244.293 154.41C244.293 154.41 241.665 150.553 239.074 150.444C238.892 150.444 238.674 150.432 238.432 150.42C239.691 151.327 241.156 152.451 241.459 152.983L242.767 155.28L236.059 156.042L230.344 157.444C230.344 157.444 236.495 159.028 238.081 159.028C239.655 159.028 244.268 157.891 244.716 158.689C245.164 159.487 244.256 162.304 244.256 162.304L239.885 166.451L234.921 174.72L240.357 167.648L245.491 164.105L244.934 169.038L237.136 182.687C237.136 182.687 227.377 186.955 223.841 186.653C220.306 186.35 203.039 166.33 202.276 165.725C201.501 165.109 201.44 170.187 201.913 172.858C202.385 175.53 203.148 183.521 203.148 183.521C203.148 183.521 215.571 192.806 218.865 193.048C222.146 193.29 236.337 187.547 236.337 187.547L231.312 191.658C231.312 191.658 219.397 195.466 216.382 195.708C213.367 195.95 205.824 193.411 205.824 193.411C205.824 193.411 212.604 197.219 216.685 198.476C216.685 198.476 229.859 196.506 233.25 195.091C236.64 193.677 237.705 192.565 237.705 192.565C237.705 192.565 236.301 197.848 232.983 200.157C229.665 202.454 220.16 205.331 220.16 205.331C220.16 205.331 207.7 201.898 205.061 199.831C202.409 197.763 192.601 179.399 192.153 178.601C191.705 177.803 186.268 160.116 187.249 157.033C188.23 153.95 190.555 145.088 190.555 145.088C190.555 145.088 183.798 152.064 183.035 156.271C182.272 160.479 187.201 179.508 187.201 179.508C187.201 179.508 198.304 200.701 198.849 201.656L202.276 207.677C206.09 208.535 215.692 210.675 217.581 210.76L217.605 210.772Z" fill="#6B3F13"/>
<path opacity="0.6" d="M181.898 142.513C180.493 142.997 179.379 143.505 178.725 144.049C175.08 147.059 174.463 158.738 174.463 158.738L176.945 163.102C176.764 162.788 178.543 148.352 178.543 148.352L181.898 142.513Z" fill="#6B3F13"/>
<path opacity="0.6" d="M192.504 142.961C192.225 143.952 192.843 150.952 192.843 150.952L194.405 144.822L200.701 141.256C201.912 140.567 207.446 142.259 207.446 142.259C207.446 142.259 203.813 143.263 203.595 146.334C203.365 149.404 203.571 158.726 203.571 158.726L206.865 148.256C206.865 148.256 212.798 144.266 214.541 144.75C216.285 145.233 221.516 149.61 221.516 149.61C221.516 149.61 219.93 156.803 219.833 158.121C219.736 159.439 221.08 164.758 221.08 164.758L221.48 159.91C221.48 159.91 226.71 152.112 228.89 151.508C230.016 151.194 232.062 150.589 233.77 150.081C230.997 149.828 228.079 149.441 226.868 148.872C224.725 147.881 208.366 137.955 204.213 138.415C202.723 138.584 199.503 138.959 195.809 139.527C194.223 140.942 192.637 142.465 192.504 142.961Z" fill="#6B3F13"/>
<path d="M115.107 296.766L96 306.861L126.744 352.475L131.139 351.375L128.717 309.702L115.107 296.766Z" fill="#311A0F"/>
<path d="M212.533 336.094L209.578 355.667L260.047 357.867L261.621 354.035L229.509 333.107L212.533 336.094Z" fill="#311A0F"/>
<path d="M143.672 22.1C143.672 22.1 166.4 21.4834 175.578 37.0549C175.578 37.0549 155.478 93.1511 158.13 143.166C158.13 143.166 138.937 152.983 120.629 147.736C107.479 143.964 124.032 23.6596 143.66 22.0879L143.672 22.1Z" fill="#FD9253"/>
<path d="M169.838 37.2002C164.668 47.6457 154.678 54.162 143.671 57.1723C139.615 58.2846 135.437 58.9616 131.236 59.2518C129.892 59.3485 128.548 59.3727 127.204 59.3969C123.498 59.4694 122.929 62.0929 121.694 65.4175C121.198 66.7595 120.774 68.1256 120.229 69.4555C118.825 72.9252 116.875 76.8302 116.233 80.5417C115.592 84.2895 115.882 88.7385 116.984 92.3171C117.589 94.2756 119.006 96.4638 118.558 98.4828C117.856 101.578 115.035 104.479 113.824 107.478C112.007 111.999 111.075 116.533 110.663 121.381C110.203 126.833 109.792 132.951 111.559 138.21C114.054 145.645 118.849 150.481 125.496 154.482C134.844 160.104 149.701 161.905 156.882 151.871C158.65 149.405 161.132 145.076 160.478 141.861C159.824 138.645 158.492 135.477 157.996 132.249C157.366 128.211 158.105 123.569 158.383 119.507C158.964 110.971 159.994 102.46 161.374 94.0096C163.638 80.0702 166.799 66.2759 170.673 52.6992C172.102 47.694 173.616 42.6889 175.323 37.7684L169.838 37.2002Z" fill="#D16324"/>
<path d="M124.418 60.9803C124.418 60.9803 157.85 62.3465 171.302 37.7923L175.02 38.6507L175.577 37.0548L169.256 34.5039C169.256 34.5039 164.534 55.7697 125.048 58.4294L124.43 60.9803H124.418Z" fill="#311A0F"/>
<path d="M212.606 128.392C196.901 126.845 179.417 123.411 165.032 123.254C160.806 123.206 157.04 124.56 152.826 124.959C160.091 148.546 166.242 189.663 152.342 225.364C157.464 231.421 173.423 247.851 184.272 247.149C200.607 211.025 219.23 188.152 224.182 136.758C219.896 134.534 215.948 131.826 212.606 128.392Z" fill="#FE7829"/>
<path d="M108.072 299.22C120.423 268.947 129.093 246.98 152.329 225.376C163.312 230.018 173.277 242.519 184.259 247.162C165.661 268.923 130.74 310.391 128.935 314.936C118.74 310.657 114.647 306.631 108.072 299.22Z" fill="#FE7829"/>
<path d="M196.477 129.021C206.443 166.076 216.299 201.221 226.252 238.276L200.158 248.733C185.229 230.961 135.583 146.152 138.841 122.432L196.465 129.009L196.477 129.021Z" fill="#FD9253"/>
<path d="M213.139 343.251C194.492 312.083 189.285 264.655 191.925 236.45C203.791 237.103 214.398 237.635 226.253 238.288C230.539 272.913 235.588 338.789 235.588 338.789L213.127 343.251H213.139Z" fill="#FD9253"/>
<path d="M132.629 53.8232C132.629 53.8232 132.748 53.8472 132.808 53.8591L132.629 53.8232Z" fill="#D85C49"/>
<path d="M130.727 172.29C130.497 174.938 130.545 177.61 130.981 180.221C131.042 180.62 131.114 181.007 131.199 181.394C131.284 181.768 131.441 182.179 131.466 182.566C131.659 183.34 132.579 184.779 133.56 184.15C133.621 184.114 133.669 184.065 133.73 184.029C134.105 185.601 134.602 187.148 135.243 188.647C135.558 189.373 136.672 190.654 137.556 189.893C137.823 189.663 137.956 189.373 138.028 189.058C138.271 189.723 138.525 190.388 138.803 191.029C139.154 191.839 140.414 193.254 141.382 192.395C141.891 191.948 141.988 191.283 141.976 190.606C142.266 191.223 142.63 191.815 143.078 192.359C143.695 193.109 144.918 193.761 145.838 193.048C145.972 192.939 146.081 192.83 146.177 192.71C146.19 192.697 146.202 192.673 146.214 192.661C146.71 191.948 146.541 190.993 146.323 190.183C145.996 188.95 145.572 187.741 145.293 186.508C144.676 183.799 144.64 180.862 144.991 178.093C145.148 176.836 145.439 175.578 145.947 174.406C145.972 174.442 145.996 174.466 146.02 174.503C147.134 176.014 148.054 177.743 149.289 179.121C150.173 180.112 152.668 181.793 153.673 179.979C154.399 178.673 153.104 176.848 152.656 175.651C152.014 173.946 151.517 172.181 150.948 170.452C150.173 168.107 149.12 165.858 147.933 163.694C147.848 159.306 147.727 154.905 147.558 150.529C147.364 145.536 147.122 140.543 146.819 135.562C146.625 132.418 146.734 128.997 146.262 125.781C146.081 117.173 146.117 108.565 146.202 99.9696H146.238C147.122 98.4342 148.006 96.8867 148.902 95.3392C149.108 94.9765 149.314 94.6138 149.531 94.2511C154.302 85.9334 159.291 77.7608 164.498 69.7091C165.321 68.4276 170.964 60.3396 175.286 53.9441C173.991 53.3517 172.695 52.7714 171.387 52.2153C166.641 50.1842 161.894 48.1652 157.172 46.0737C150.876 50.1963 144.906 54.8146 139.566 60.134C133.851 65.8162 128.862 72.3325 125.145 79.4654C122.832 83.9145 121.016 88.6052 119.829 93.4774C114.562 115.227 122.081 137.109 129.31 157.456C129.698 158.544 130.085 159.644 130.521 160.72C130.763 161.313 131.017 161.893 131.284 162.461C131.429 162.751 131.562 163.029 131.72 163.32C131.841 163.537 132.035 163.791 132.119 164.033C132.119 164.057 132.131 164.081 132.144 164.105C132.18 164.25 132.144 164.42 132.131 164.553C132.059 165.169 131.853 165.762 131.708 166.366C131.55 167.019 131.417 167.672 131.284 168.325C131.03 169.63 130.848 170.96 130.727 172.278V172.29Z" fill="#F7F1E1"/>
<path d="M147.098 172.399C146.844 172.75 146.565 173.1 146.347 173.487C146.117 173.862 145.924 174.261 145.742 174.672C145.391 175.482 145.136 176.34 144.967 177.211C144.64 178.952 144.519 180.717 144.579 182.494C144.616 183.376 144.688 184.259 144.834 185.141C144.979 186.012 145.173 186.882 145.439 187.729C145.693 188.575 145.984 189.397 146.238 190.231C146.372 190.642 146.468 191.065 146.493 191.501C146.517 191.924 146.444 192.371 146.202 192.746C146.347 192.577 146.456 192.383 146.517 192.166C146.589 191.948 146.614 191.73 146.626 191.501C146.638 191.053 146.553 190.606 146.456 190.183C146.25 189.325 146.008 188.478 145.79 187.632C145.342 185.951 145.1 184.223 145.04 182.482C145.003 181.611 145.015 180.741 145.064 179.87C145.112 179 145.185 178.129 145.318 177.271C145.451 176.413 145.657 175.566 145.948 174.756C146.093 174.345 146.263 173.946 146.456 173.56C146.553 173.366 146.65 173.173 146.771 172.979L147.098 172.411V172.399Z" fill="#F4A681"/>
<path d="M141.987 190.63C141.66 189.3 141.394 187.958 141.176 186.616C141.067 185.939 140.97 185.274 140.897 184.597C140.813 183.92 140.74 183.243 140.679 182.566C140.619 181.889 140.57 181.212 140.534 180.535C140.498 179.858 140.498 179.181 140.51 178.504C140.546 177.15 140.667 175.796 140.97 174.454C140.486 175.736 140.256 177.114 140.147 178.492C140.086 179.181 140.086 179.87 140.098 180.559C140.11 181.249 140.159 181.938 140.219 182.627C140.352 183.993 140.534 185.359 140.825 186.701C141.103 188.043 141.478 189.373 141.999 190.642L141.987 190.63Z" fill="#F4A681"/>
<path d="M138.04 189.083C137.822 187.886 137.592 186.689 137.398 185.492C137.205 184.295 137.059 183.098 136.987 181.889C136.938 181.285 136.914 180.68 136.89 180.076C136.866 179.471 136.866 178.867 136.854 178.262C136.854 177.658 136.854 177.053 136.854 176.437C136.854 175.832 136.878 175.216 136.878 174.611C136.781 175.216 136.696 175.82 136.624 176.425C136.563 177.029 136.515 177.646 136.478 178.25C136.418 179.471 136.43 180.692 136.502 181.914C136.551 182.53 136.611 183.135 136.696 183.739C136.781 184.344 136.89 184.948 137.023 185.553C137.289 186.749 137.616 187.922 138.028 189.071L138.04 189.083Z" fill="#F4A681"/>
<path d="M133.742 184.041C133.645 183.195 133.56 182.361 133.524 181.515C133.512 181.091 133.487 180.668 133.487 180.257C133.487 179.834 133.487 179.411 133.487 179C133.487 178.577 133.487 178.154 133.512 177.731L133.548 176.461C133.572 175.615 133.596 174.769 133.609 173.91C133.415 174.744 133.282 175.579 133.185 176.437C133.088 177.283 133.039 178.129 133.027 178.988C133.027 179.846 133.064 180.705 133.173 181.551C133.282 182.397 133.463 183.243 133.754 184.041H133.742Z" fill="#F4A681"/>
<path d="M234.692 77.3259L233.42 73.6748C230.405 64.3536 226.494 55.3105 221.239 47.1258C219.992 45.1915 218.648 43.2208 217.158 41.3953C217.134 41.3711 217.122 41.3469 217.098 41.3228C216.88 41.0568 216.65 40.815 216.42 40.5732C215.366 40.7062 214.325 40.5249 213.272 40.1743C212 39.7511 210.717 39.3159 209.554 38.651C208.61 38.2399 207.835 37.6233 207.217 36.8133C206.975 36.3781 206.721 35.955 206.479 35.5197C206.37 35.29 206.297 35.0603 206.237 34.8185H205.425L204.965 34.7943L202.713 34.746H202.253L201.865 34.7339L198.378 34.6614H197.906L194.164 34.5767H193.692L190.968 34.5163H190.495L190.023 34.4921L188.546 34.4679L186.524 34.4316H186.015L181.196 34.3228H180.736L176.643 34.2261H176.183L173.919 34.1657H173.87H173.713H173.071L171.424 34.1294H170.964L169.85 34.1052H169.293L168.773 34.0811C168.361 34.1173 167.961 34.1778 167.55 34.2261C167.392 34.2503 167.223 34.2624 167.065 34.2987C166.424 34.3833 165.794 34.4921 165.152 34.6251C164.813 34.6855 164.474 34.7581 164.147 34.8306C162.888 35.1087 161.641 35.4472 160.43 35.8582C160.285 35.9066 160.139 35.955 159.994 36.0033C159.376 36.2209 158.771 36.4506 158.166 36.7045C158.093 36.7287 158.02 36.765 157.948 36.7891C157.064 37.1639 156.204 37.5871 155.356 38.0465C154.291 38.6268 153.249 39.2675 152.244 39.9929C151.76 40.3435 151.276 40.7062 150.804 41.081C145.996 44.9134 141.904 50.0636 138.029 54.7423C136.055 57.124 134.154 59.554 132.314 62.0324C130.788 64.0997 130.255 64.8251 127.301 69.395C127.773 69.6489 128.282 69.8424 128.778 70.0479C129.359 70.2897 129.94 70.5194 130.522 70.7612C136.346 73.1549 142.17 75.5487 147.994 77.9424C150.997 79.1756 154.012 80.4087 157.015 81.654C154.46 85.8249 151.966 90.0442 149.532 94.2877C148.43 96.1979 147.328 98.108 146.239 100.018H146.202C146.154 104.697 146.118 109.4 146.13 114.103C146.13 118.008 146.178 121.913 146.263 125.818C146.735 129.033 146.638 132.467 146.82 135.598C147.014 138.85 147.183 142.115 147.328 145.367C147.328 145.367 167.998 146.406 190.677 144.895C213.369 143.384 226.748 141.075 226.748 141.075L226.082 139.491L224.448 135.574C224.23 131.476 224.181 127.389 224.012 123.291C223.782 117.754 223.891 112.205 223.6 106.668C223.31 101.022 222.837 95.3758 222.171 89.7662C222.087 89.065 222.002 88.3638 221.917 87.6626C221.675 85.7403 221.409 83.818 221.118 81.8958L232.512 78.0633L234.692 77.3259Z" fill="#46200F"/>
<path d="M210.293 39.0983C210.123 38.9169 209.953 38.7356 209.784 38.5542C209.784 38.5542 209.76 38.5421 209.748 38.5301C209.687 38.4938 209.627 38.4575 209.554 38.4333C207.919 37.72 206.854 36.3781 206.381 34.8306L205.413 34.8064H204.953L202.7 34.746H202.24L201.853 34.7339L198.366 34.6614H197.893L194.152 34.5767H193.68L190.955 34.5163H190.483L190.011 34.4921L188.533 34.4679L186.511 34.4316H186.003L181.184 34.3228H180.723L176.631 34.2261H176.171L173.906 34.1657H173.858H173.7H173.059L171.412 34.1294H170.952L169.838 34.1052H169.281L168.76 34.0811C168.348 34.1173 167.949 34.1778 167.537 34.2261C167.38 34.2503 167.21 34.2624 167.053 34.2987C166.411 34.3833 165.781 34.4921 165.14 34.6251C164.801 34.6855 164.462 34.7581 164.135 34.8306C162.875 35.1087 161.628 35.4472 160.417 35.8582C160.272 35.9066 160.127 35.955 159.981 36.0033C159.364 36.2209 158.758 36.4506 158.153 36.7045C158.08 36.7287 158.008 36.765 157.935 36.7891C157.051 37.1639 156.191 37.5871 155.344 38.0465C154.278 38.6268 153.237 39.2675 152.232 39.9929C151.748 40.3435 151.263 40.7062 150.791 41.081C152.862 41.8305 154.968 42.5197 157.039 43.1846C166.278 46.1466 175.505 49.1085 184.816 51.8166C186.681 52.3607 188.57 52.8926 190.507 53.086C196.15 53.6422 201.708 51.2242 206.418 48.0567C209.094 46.2554 211.576 44.2122 214.107 42.2174C212.569 41.347 211.54 40.4402 210.293 39.1225V39.0983Z" fill="#311A0F"/>
<path d="M147.328 145.355C147.328 145.355 167.997 146.394 190.677 144.883C213.368 143.372 226.748 141.063 226.748 141.063L226.082 139.479C201.187 143.348 174.706 136.964 154.738 121.574C151.699 119.241 148.842 116.726 146.117 114.066C146.117 117.971 146.166 121.876 146.25 125.781C146.723 128.997 146.626 132.431 146.807 135.562C147.001 138.814 147.171 142.078 147.316 145.33L147.328 145.355Z" fill="#311A0F"/>
<path d="M212.821 67.5449C212.821 67.5449 212.737 67.5569 212.701 67.5688L212.821 67.5449Z" fill="#C45544"/>
<path d="M189.853 30.2485L189.671 32.9807L189.562 34.7458L189.538 35.1206L189.296 38.8805C187.262 39.0135 185.216 38.8563 183.23 38.4211C182.636 38.2881 182.007 38.143 181.365 37.9738C180.057 37.6111 178.737 37.1275 177.672 36.3659L178.302 34.0325L179.476 29.6561L179.597 29.1967L180.36 26.3677L182.007 27.0326L187.092 29.0999L188.957 29.8616L189.853 30.2243V30.2485Z" fill="#D6D1C5"/>
<path d="M181.365 37.9735C180.057 37.6108 178.737 37.1272 177.672 36.3655L178.302 34.0322C179.234 35.4225 180.251 36.7403 181.365 37.9735Z" fill="#F7F1E1"/>
<path d="M198.256 28.8098C198.183 28.967 198.111 29.1241 198.026 29.2813C197.796 29.7286 197.554 30.1518 197.275 30.5507C195.556 33.1258 192.94 34.8788 189.84 35.0964C189.744 35.0964 189.647 35.1085 189.538 35.1085C188.593 35.1448 187.6 35.036 186.571 34.77C184.307 34.1776 182.297 32.7873 180.783 30.9618C180.335 30.4177 179.936 29.8132 179.584 29.1846C178.507 27.2019 177.913 24.8686 177.659 22.5111C177.429 20.3349 177.465 18.1225 177.659 16.1398C177.998 12.5613 179.088 8.92226 181.51 6.33507C184.452 3.19175 188.799 2.33339 192.771 3.59071C192.783 3.59071 192.795 3.59071 192.807 3.6028C194.974 4.29191 197.541 5.87566 198.619 8.03971C199.346 9.50256 199.697 11.2435 199.794 12.9602C199.854 13.9274 199.842 14.8825 199.769 15.7892C199.673 17.1674 199.661 18.5577 199.636 19.9481C199.636 20.5405 199.612 21.1329 199.6 21.7252C199.6 21.7252 198.716 27.7822 198.232 28.8219L198.256 28.8098Z" fill="#F7F1E1"/>
<path d="M204.189 7.33844C203.862 10.3609 201.223 12.537 198.292 12.1985C198.171 12.1864 198.062 12.1622 197.953 12.1501C196.246 12.0292 194.563 11.3159 193.364 10.0707C194.054 11.4127 194.03 13.1173 193.304 14.4351C193.304 14.4714 193.255 14.5197 193.231 14.556C192.843 15.2088 192.299 15.7529 191.669 16.1397C191.354 16.3332 191.015 16.4903 190.664 16.5991C190.289 16.7079 189.925 16.7321 189.55 16.7926C189.538 16.7926 189.514 16.7926 189.501 16.7926C189.477 16.7926 189.465 16.7684 189.453 16.7563C189.368 16.6596 189.247 16.5871 189.138 16.5266C188.92 16.4057 188.678 16.2848 188.436 16.2244C188.17 16.1639 187.891 16.1881 187.613 16.2244C187.443 16.2485 187.249 16.2969 187.116 16.4057C186.995 16.5024 186.862 16.5871 186.729 16.6959C186.474 16.9135 186.256 17.1795 186.111 17.4938C185.905 17.9411 185.845 18.4489 185.857 18.9325C185.857 19.6457 185.905 20.3711 186.147 21.0361C186.172 21.1086 185.845 21.5438 185.796 21.6285C185.675 21.8219 185.566 22.0153 185.445 22.2088C185.215 22.5835 184.973 22.9462 184.731 23.3089C184.246 24.0343 183.726 24.7476 183.217 25.4488C182.176 26.8996 181.074 28.3624 179.694 29.4988C179.681 29.5109 179.524 29.6439 179.512 29.6439C176.678 26.8875 174.051 23.2364 172.792 19.3193C172.38 18.0257 172.114 16.708 172.041 15.3781C172.005 14.7373 172.005 14.0966 172.041 13.4679C172.041 13.3228 172.065 13.1657 172.077 13.0206C172.368 9.90145 173.591 6.80649 175.637 4.48527C177.696 2.16405 180.638 0.906724 183.593 0.374777C184.949 0.132984 186.353 0 187.746 0C188.303 0 188.848 0.0241738 189.405 0.0604429C191.838 0.241788 194.236 0.822095 196.415 1.83763C197.336 1.32986 198.413 1.08807 199.539 1.22105C202.47 1.55956 204.577 4.29183 204.238 7.31426L204.189 7.33844Z" fill="#FE7829"/>
<path d="M190.443 19.1138C190.467 17.0441 188.91 15.3475 186.964 15.3245C185.018 15.3014 183.421 16.9606 183.396 19.0303C183.372 21.1 184.929 22.7965 186.875 22.8196C188.821 22.8426 190.418 21.1835 190.443 19.1138Z" fill="#F7F1E1"/>
<path d="M159.667 35.9426C168.058 37.2241 166.363 52.7835 165.079 58.1635C161.459 73.3844 156.942 75.6331 149.592 80.9042C146.274 83.2858 146.25 87.6502 145.512 91.9179C144.567 97.2736 151.844 91.7365 155.077 89.6208C162.343 84.8575 168.034 78.1114 171.497 70.1443C174.5 63.2411 176.037 55.6004 175.674 48.0686C175.577 45.9166 175.274 43.7646 174.73 41.6852C174.039 39.0859 173.277 35.7008 170.927 34.0566C168.808 32.5696 165.939 33.2949 163.674 34.0687C162.439 34.4918 161.277 35.0842 160.03 35.4832L159.667 35.9305V35.9426Z" fill="#FD9253"/>
<path d="M215.79 40.1257C218.709 43.9461 220.973 50.4262 221.397 55.1653C221.978 61.6575 221.639 67.932 220.803 74.2549C220.343 77.7247 220.125 80.9526 219.641 83.7091C219.157 86.4655 218.745 90.2617 218.261 93.0907C217.522 88.0009 217.958 83.0441 217.522 77.9181C216.88 70.4829 216.057 62.5521 213.998 55.3225C212.751 50.946 210.995 46.2189 209.022 42.1931C207.896 39.896 205.389 36.0878 201.854 34.3952C201.854 34.3952 210.184 33.0654 215.79 40.1378V40.1257Z" fill="#FD9253"/>
</svg>
