<svg width="369" height="477" viewBox="0 0 369 477" fill="none" xmlns="http://www.w3.org/2000/svg">
<g opacity="0.2">
<path fill-rule="evenodd" clip-rule="evenodd" d="M205.145 308.369C280.041 308.369 340.757 247.654 340.757 172.758C340.757 97.8613 280.041 37.1458 205.145 37.1458C130.249 37.1458 69.5332 97.8613 69.5332 172.758C69.5332 247.654 130.249 308.369 205.145 308.369Z" fill="#FF9B21"/>
<path fill-rule="evenodd" clip-rule="evenodd" d="M287.692 477C301.043 477 311.866 466.177 311.866 452.826C311.866 439.475 301.043 428.651 287.692 428.651C274.341 428.651 263.518 439.475 263.518 452.826C263.518 466.177 274.341 477 287.692 477Z" fill="#2B44FF"/>
<path fill-rule="evenodd" clip-rule="evenodd" d="M182.739 0L211.63 28.8912L182.739 57.7825L153.848 28.8912L182.739 0Z" fill="#2B44FF"/>
<path fill-rule="evenodd" clip-rule="evenodd" d="M102.551 406.835L116.702 420.986L102.551 435.137L88.4004 420.986L102.551 406.835Z" fill="#FF9B21"/>
<path fill-rule="evenodd" clip-rule="evenodd" d="M307.15 37.1458L314.225 44.2212L307.15 51.2966L300.074 44.2212L307.15 37.1458Z" fill="#2026A2"/>
</g>
<g filter="url(#filter0_d_309_1213)">
<rect x="43" y="70.0439" width="147.994" height="304.242" rx="36.45" transform="rotate(-2 43 70.0439)" fill="#F2F2F2"/>
</g>
<path fill-rule="evenodd" clip-rule="evenodd" d="M80.9371 75.2088L73.9922 75.4513C60.5799 75.9196 50.0867 87.1722 50.5551 100.585L59.0102 342.706C59.4785 356.118 70.7311 366.611 84.1434 366.143L170.085 363.142C183.498 362.674 193.991 351.421 193.522 338.009L185.067 95.8873C184.599 82.4749 173.346 71.9818 159.934 72.4501L153.394 72.6785C153.597 78.4781 149.06 83.3438 143.26 83.5464L91.805 85.3432C86.0054 85.5457 81.1397 81.0084 80.9371 75.2088Z" fill="#1F28CF"/>
<mask id="mask0_309_1213" style="mask-type:luminance" maskUnits="userSpaceOnUse" x="54" y="63" width="199" height="304">
<rect x="54.1973" y="69.6531" width="188.088" height="297.167" transform="rotate(-2 54.1973 69.6531)" fill="white"/>
</mask>
<g mask="url(#mask0_309_1213)">
<path fill-rule="evenodd" clip-rule="evenodd" d="M192.662 138.484C194.629 145.848 197.925 151.672 200.631 153.207C207.415 157.055 227.083 137.688 230.436 125.802C233.789 113.917 215.471 89.6358 199.408 104.089C193.834 109.105 191.459 116.092 191.017 123.239L158.08 145.351L175.492 162.165L192.662 138.484Z" fill="#B28B67"/>
<path fill-rule="evenodd" clip-rule="evenodd" d="M239.6 120.462C235.863 124.331 229.772 124.559 225.751 121.07C222.913 119.632 219.625 117.412 216.306 114.611C215.511 116.04 214.429 117.49 213.02 118.949C211.776 120.237 210.314 121.466 208.712 122.6C208.811 121.145 208.413 119.748 207.496 118.862C204.929 116.384 201.107 116.767 198.945 119.006C196.201 121.847 195.859 125.488 198.097 127.968C191.942 130.022 185.945 130.255 182.962 127.374C177.296 121.902 180.573 110.445 188.428 102.311C188.704 102.025 188.984 101.747 189.267 101.476C186.08 100.938 182.638 100.944 179.172 100.951C171.807 100.965 164.329 100.98 158.936 95.7717C148.146 85.3515 164.85 59.478 179.926 74.0365C190.178 83.9374 193.78 90.3004 195.994 96.7051C199.182 95.1195 202.449 94.3527 205.416 94.4792C206.218 94.4183 207.206 94.5739 208.337 94.925C209.048 95.1199 209.729 95.3777 210.373 95.6995C213.924 97.2688 218.375 100.257 222.759 104.204C223.578 104.941 224.363 105.684 225.112 106.427C228.978 102.448 235.342 102.349 239.341 106.211C243.348 110.08 243.464 116.46 239.6 120.462Z" fill="#191847"/>
<path fill-rule="evenodd" clip-rule="evenodd" d="M38.7591 301.575C38.7591 301.575 72.1355 319.052 97.8834 324.525C123.631 329.997 148.967 319.394 148.967 319.394C148.967 319.394 116.406 301.816 93.9335 297.04C71.4613 292.263 38.7591 301.575 38.7591 301.575Z" fill="#1F28CF"/>
<path fill-rule="evenodd" clip-rule="evenodd" d="M116.335 338.423C116.18 338.031 116.067 337.617 116 337.18C114.617 328.139 83.1548 227.082 81.6172 209.502L138.646 221.624C139.815 234.99 140.343 317.423 139.433 333.654C141.832 360.071 140.556 443.705 141.39 449.695C142.266 455.996 129.041 459.555 127.391 451.687C124.765 439.167 119.444 404.939 118.187 384.463C117.009 365.267 116.379 348.088 116.335 338.423Z" fill="#997659"/>
<path fill-rule="evenodd" clip-rule="evenodd" d="M67.3343 339.53C42.9312 340.465 -44.0266 333.049 -50.1926 333.474C-56.5355 333.912 -59.1567 320.462 -51.1975 319.362C-38.5331 317.61 -4.03887 314.675 16.4612 314.842C32.9502 314.977 47.9305 315.411 57.9399 315.929C62.9049 288.537 73.0389 222.423 78.4951 208.838L128.955 219.564C123.723 232.591 82.8203 327.063 77.0174 336.157C75.0926 339.434 71.2551 340.248 67.3343 339.53V339.53Z" fill="#B28B67"/>
<path fill-rule="evenodd" clip-rule="evenodd" d="M78.6592 208.873C78.6592 208.873 114.043 206.413 141.777 222.289C141.98 255.277 156.095 271.354 148.773 320.308C111.698 329.854 76.3485 292.485 38.3749 301.408C33.3471 276.568 58.7964 224.73 78.6592 208.873Z" fill="#2B44FF"/>
<path fill-rule="evenodd" clip-rule="evenodd" d="M195.003 292.627L186.201 253.724L169.313 262.307L184.702 293.158C184.567 307.043 185.478 313.672 187.436 313.046C189.087 312.518 189.467 311.01 189.816 309.621C190.089 308.54 190.343 307.53 191.166 307.112C193.045 306.157 197.478 310.282 201.518 314.376C205.558 318.469 205.969 315.45 205.751 313.594C203.628 307.113 200.046 300.124 195.003 292.627ZM31.7462 234.825C37.486 231.413 77.7118 187.95 77.7118 187.95L95.3423 199.499C95.3423 199.499 44.6978 241.644 41.2959 244.026C36.8767 247.12 35.7978 255.085 35.0662 260.486C34.953 261.321 34.8481 262.095 34.7405 262.78C31.2454 262.232 30.8944 259.924 30.5243 257.49C30.1062 254.741 29.6639 251.833 24.6397 251.12C22.6986 250.844 20.7555 250.747 18.8572 250.652C12.3001 250.324 6.27637 250.022 2.70672 242.491C2.1408 241.297 2.52844 238.436 6.13726 238.348C15.1282 238.128 28.9401 236.493 31.7462 234.825Z" fill="#B28B67"/>
<path fill-rule="evenodd" clip-rule="evenodd" d="M176.044 146.502L184.172 149.999C176.363 189.59 179.811 232.412 194.516 278.462L152.124 291.831C144.49 234.901 149.644 184.627 176.044 146.502Z" fill="#191847"/>
<path fill-rule="evenodd" clip-rule="evenodd" d="M84.5512 217.587L149.68 259.882C149.68 259.882 162.737 190.227 187.683 151.812L169.935 136.131C138.391 150.903 114.202 178.604 84.5512 217.587Z" fill="#DDE3E9"/>
<path fill-rule="evenodd" clip-rule="evenodd" d="M36.8455 226.237C96.0826 150.613 169.504 135.85 169.504 135.85L169.511 135.875C169.516 135.872 169.522 135.869 169.528 135.866L170.81 136.698C173.06 138.272 177.637 141.537 177.637 141.537L173.586 158.168C158.248 183.435 117.528 263.749 117.528 263.749L74.8975 236.064C72.7342 239.554 70.6274 243.15 68.59 246.852L36.8455 226.237Z" fill="#2F3676"/>
<path fill-rule="evenodd" clip-rule="evenodd" d="M74.6877 236.402C84.084 221.188 94.5582 207.975 105.053 196.678C96.3982 212.55 87.0139 232.317 86.5644 244.115L74.6877 236.402Z" fill="black" fill-opacity="0.1"/>
<path fill-rule="evenodd" clip-rule="evenodd" d="M101.126 216.342L128.525 220.24L122.177 230.013L101.126 216.342Z" fill="white" fill-opacity="0.2"/>
</g>
<path fill-rule="evenodd" clip-rule="evenodd" d="M277.071 160.076C271.574 160.468 266.818 159.587 265.134 158.099C260.909 154.368 269.527 136.348 276.864 131.251C284.201 126.154 305.104 132.954 298.998 147.348C296.879 152.344 292.661 155.616 287.879 157.604L280.502 185.346L264.917 177.405L277.071 160.076Z" fill="#B28B67"/>
<path fill-rule="evenodd" clip-rule="evenodd" d="M274.915 118.009C275.815 117.039 277.178 116.51 278.495 116.818C278.814 116.893 279.122 117.014 279.408 117.175C279.51 117.232 279.524 117.277 279.611 117.229C279.675 117.193 279.743 117.061 279.79 117.005C279.938 116.83 280.096 116.664 280.265 116.51C280.841 115.983 281.546 115.617 282.289 115.384C283.68 114.949 285.252 114.961 286.612 115.511C287.356 115.812 288.005 116.288 288.56 116.864C288.848 117.161 289.11 117.483 289.355 117.816C289.429 117.916 289.627 118.324 289.734 118.359C289.853 118.397 290.213 118.237 290.338 118.214C291.874 117.929 293.409 118.291 294.78 119.002C296.327 119.805 297.783 120.645 298.596 122.252C298.768 122.592 298.918 122.945 299.049 123.303C299.118 123.491 299.18 123.682 299.234 123.875C299.267 123.992 299.296 124.109 299.322 124.227C299.366 124.428 299.324 124.465 299.537 124.449C300.353 124.388 301.166 124.579 301.848 125.039C302.253 125.312 302.608 125.656 302.92 126.03C303.026 126.158 303.223 126.55 303.366 126.626C303.509 126.701 303.929 126.644 304.105 126.665C305.055 126.777 305.953 127.144 306.724 127.708C307.519 128.291 308.195 129.071 308.686 129.923C308.922 130.333 309.1 130.744 309.174 131.212C309.205 131.414 309.222 131.62 309.274 131.818C309.304 131.935 309.403 132.088 309.389 132.209C309.397 132.137 310.559 132.257 310.662 132.28C311.215 132.401 311.699 132.68 312.097 133.081C312.845 133.835 313.28 134.892 313.569 135.896C313.717 136.411 313.806 136.943 313.839 137.477C313.854 137.734 313.857 137.99 313.849 138.247C313.845 138.371 313.812 138.512 313.828 138.634C313.849 138.792 313.902 138.821 314.021 138.946C314.625 139.578 315.073 140.356 315.283 141.205C315.496 142.065 315.457 142.97 315.203 143.815C315.189 143.864 315.097 144.056 315.111 144.094C315.131 144.146 315.286 144.207 315.339 144.242C315.521 144.363 315.696 144.495 315.863 144.637C316.171 144.898 316.449 145.193 316.69 145.517C317.63 146.778 317.934 148.401 317.706 149.936C317.466 151.546 316.655 153.118 315.416 154.187C315.215 154.36 315.002 154.518 314.775 154.655C314.636 154.739 314.611 154.726 314.595 154.881C314.577 155.052 314.607 155.243 314.602 155.417C314.583 155.983 314.485 156.545 314.328 157.089C314.069 157.981 313.71 158.874 313.14 159.615C312.875 159.959 312.562 160.268 312.2 160.51C312.016 160.634 311.819 160.74 311.615 160.827C311.509 160.872 311.4 160.911 311.29 160.946C311.227 160.966 311.154 160.974 311.095 161.001C310.95 161.069 310.979 160.967 310.94 161.155C310.886 161.417 310.913 161.716 310.886 161.984C310.858 162.261 310.821 162.536 310.775 162.81C310.682 163.364 310.561 163.916 310.389 164.451C310.057 165.479 309.514 166.478 308.621 167.121C308.238 167.396 307.796 167.583 307.332 167.667C307.105 167.708 306.873 167.725 306.642 167.719C306.523 167.715 306.391 167.673 306.301 167.743C306.203 167.818 306.172 168.051 306.132 168.17C305.777 169.207 305.33 170.257 304.56 171.058C303.851 171.795 302.876 172.269 301.859 172.393C299.888 172.635 297.938 171.571 296.8 169.994C296.503 169.583 296.258 169.135 296.077 168.661C294.637 169.376 292.898 168.444 291.816 167.48C290.469 166.28 289.772 164.563 289.777 162.776C288.184 163.471 286.319 162.032 286.299 160.386C286.294 159.983 286.373 159.583 286.505 159.204C286.574 159.004 286.686 158.824 286.761 158.63C286.857 158.382 286.816 158.073 286.842 157.799C286.892 157.265 287.016 156.751 287.255 156.271C287.38 156.02 287.535 155.792 287.685 155.557C287.82 155.344 287.864 155.105 287.941 154.867C288.307 155.136 288.847 155.276 289.282 155.352C289.709 155.426 290.206 155.303 290.606 155.163C291.533 154.837 292.326 154.194 293 153.496C294.479 151.963 295.361 149.669 294.043 147.743C293.429 146.845 290.88 145.549 289.75 145.262C288.562 144.96 286.157 146.695 285.985 146.886C285.879 147.004 285.811 147.182 285.639 147.21C285.261 147.269 284.983 146.69 284.867 146.414C284.666 145.939 284.616 145.418 284.603 144.908C284.573 143.797 284.667 142.669 284.883 141.58C285.05 140.74 285.303 139.915 285.396 139.061C285.489 138.211 285.387 137.358 284.931 136.618C284.434 135.812 283.727 135.16 283.077 134.482C282.433 133.809 281.833 133.083 281.521 132.194C281.452 131.998 281.392 131.796 281.361 131.592C281.336 131.43 281.368 131.16 281.277 131.019C281.136 130.8 280.687 130.954 280.457 130.976C279.322 131.084 278.22 131.479 277.22 132.015C276.226 132.548 275.351 133.102 274.499 133.828C273.867 134.367 273.243 135.152 272.459 135.458C272.109 135.594 270.375 134.902 269.95 134.41C269.525 133.918 269.212 133.045 269.213 132.598C269.214 132.14 269.374 131.719 269.655 131.361C269.821 131.15 270.027 130.979 270.196 130.776C270.338 130.605 270.471 130.442 270.655 130.313C271.004 130.068 271.432 129.983 271.85 130.069C271.648 129.522 271.546 128.939 271.567 128.356C271.588 127.75 271.699 127.057 271.918 126.491C272.096 126.032 272.395 125.615 272.825 125.362C273.276 125.096 273.851 125.065 274.36 125.016C274.007 124.258 273.789 123.443 273.692 122.615C273.501 121.003 273.777 119.235 274.915 118.009Z" fill="#191847"/>
<path fill-rule="evenodd" clip-rule="evenodd" d="M266.58 239.132L230.808 329.671L206.816 406.215H197.342L234.021 239.132L266.58 239.132Z" fill="#997659"/>
<path fill-rule="evenodd" clip-rule="evenodd" d="M273.783 239.132C274.164 270.948 279.719 313.783 280.606 315.767C281.494 317.75 341.885 366.208 341.885 366.208L335.359 373.191C335.359 373.191 264.104 331.644 260.806 326.103C257.509 320.562 246.774 269.57 238.155 239.132H273.783Z" fill="#B28B67"/>
<path fill-rule="evenodd" clip-rule="evenodd" d="M340.664 365.467C341.013 364.349 342.196 363.676 343.29 364.093C344.696 364.627 346.452 365.381 347.286 366.081C348.796 367.348 351.271 370.282 351.271 370.282C349.801 372.034 324.848 401.772 324.848 401.772C324.848 401.772 319.76 399.595 321.656 396.678C323.551 393.762 324.758 391.794 324.758 391.794L330.438 371.951C330.593 371.41 331.164 371.103 331.701 371.273L334.507 372.163C334.507 372.163 337.704 370.673 338.988 369.143C339.667 368.333 340.258 366.765 340.664 365.467Z" fill="#E4E4E4"/>
<path fill-rule="evenodd" clip-rule="evenodd" d="M208.132 402.1C209.212 401.649 210.488 402.123 210.873 403.229C211.367 404.65 211.918 406.479 211.918 407.567C211.918 409.539 211.261 413.321 211.261 413.321C208.974 413.321 170.154 413.321 170.154 413.321C170.154 413.321 168.552 408.024 172.004 407.601C175.456 407.179 177.74 406.839 177.74 406.839L196.591 398.435C197.106 398.205 197.708 398.446 197.923 398.967L199.045 401.688C199.045 401.688 202.24 403.179 204.239 403.179C205.295 403.179 206.877 402.623 208.132 402.1Z" fill="#E4E4E4"/>
<path fill-rule="evenodd" clip-rule="evenodd" d="M242.527 398.331L197.483 393.443L230.866 239.132H271.211L242.527 398.331Z" fill="#69A1AC"/>
<path fill-rule="evenodd" clip-rule="evenodd" d="M332.568 354.942L303.022 389.916C303.022 389.916 256.34 338.931 248.591 323.381C240.842 307.831 234.659 239.132 234.659 239.132H280.08C280.08 239.132 283.457 299.57 284.633 302.383C285.809 305.195 332.568 354.942 332.568 354.942Z" fill="#89C5CC"/>
<path fill-rule="evenodd" clip-rule="evenodd" d="M192.475 192.589L215.294 210.231L204.498 218.673L188.976 199.175C179.829 195.024 175.761 192.403 176.771 191.312C177.622 190.392 178.727 190.603 179.744 190.798C180.537 190.95 181.277 191.092 181.803 190.68C183.004 189.741 181.656 185.578 180.207 181.682C178.758 177.786 180.864 178.438 182.014 179.148C185.615 182.517 189.102 186.997 192.475 192.589ZM302.908 238.422L318.117 239.16C321.486 267.514 323.806 283.17 325.076 286.128C326.008 288.297 333.387 295.124 338.548 299.075C340.62 300.661 339.632 302.499 338.794 302.958C333.509 305.847 329.861 303.463 325.889 300.867C324.739 300.116 323.562 299.347 322.311 298.683C319.071 296.964 317.578 298.478 316.166 299.909C314.916 301.175 313.731 302.377 311.455 301.212C311.683 300.765 311.951 300.268 312.24 299.731C314.105 296.26 316.857 291.141 315.588 287.452C314.937 285.558 310.71 269.215 302.908 238.422Z" fill="#B28B67"/>
<path fill-rule="evenodd" clip-rule="evenodd" d="M277.757 171.509L271.904 168.935C255.363 178.535 242.189 208.22 232.288 210.116C222.927 211.908 211.968 205.183 199.093 196.581L192.35 205.177C201.732 222.281 226.176 240.849 238.943 236.911C259.354 230.615 272.994 193.352 277.757 171.509Z" fill="#DB2721"/>
<path fill-rule="evenodd" clip-rule="evenodd" d="M285.253 255.003C285.253 255.003 248.475 245.833 231.146 241.513C228.674 240.896 230.03 237.442 230.836 235.73C240.145 215.967 261.835 197.57 269.214 167.974L285.431 169.418C293.164 193.398 291.255 220.073 285.253 255.003Z" fill="#DDE3E9"/>
<path fill-rule="evenodd" clip-rule="evenodd" d="M286.26 169.624L286.438 169.669C316.066 199.969 328.885 238.683 324.894 285.812L312.999 285.206C307.668 274.58 301.968 257.944 295.899 235.298C296.295 248.127 295.701 261.035 293.573 272.851L244.868 260.708C241.38 234.529 280.259 168.128 280.259 168.128L283.621 168.966L286.26 169.624Z" fill="#FF4133"/>
<defs>
<filter id="filter0_d_309_1213" x="0.25" y="54.1284" width="224.021" height="374.723" filterUnits="userSpaceOnUse" color-interpolation-filters="sRGB">
<feFlood flood-opacity="0" result="BackgroundImageFix"/>
<feColorMatrix in="SourceAlpha" type="matrix" values="0 0 0 0 0 0 0 0 0 0 0 0 0 0 0 0 0 0 127 0" result="hardAlpha"/>
<feOffset dx="-10" dy="22"/>
<feGaussianBlur stdDeviation="17"/>
<feColorMatrix type="matrix" values="0 0 0 0 0 0 0 0 0 0 0 0 0 0 0 0 0 0 0.1 0"/>
<feBlend mode="normal" in2="BackgroundImageFix" result="effect1_dropShadow_309_1213"/>
<feBlend mode="normal" in="SourceGraphic" in2="effect1_dropShadow_309_1213" result="shape"/>
</filter>
</defs>
</svg>
