<svg width="64" height="64" viewBox="0 0 64 64" fill="none" xmlns="http://www.w3.org/2000/svg">
<rect width="64" height="64" rx="32" fill="#F5F5F5"/>
<g clip-path="url(#clip0_407_1200)">
<path d="M59.4442 47.5421C59.6342 48.0015 59.9988 48.3666 60.4579 48.5573L62.0678 49.2241C62.5272 49.4144 62.8922 49.7794 63.0825 50.2388C63.2728 50.6983 63.2728 51.2145 63.0825 51.6739L62.4162 53.2826C62.2258 53.7422 62.2255 54.259 62.4168 54.7184L63.082 56.3266C63.1763 56.5542 63.2249 56.7981 63.2249 57.0444C63.225 57.2907 63.1765 57.5347 63.0822 57.7622C62.9879 57.9898 62.8497 58.1966 62.6755 58.3707C62.5013 58.5449 62.2945 58.683 62.0669 58.7772L60.4582 59.4436C59.9988 59.6335 59.6336 59.9981 59.443 60.4572L58.7762 62.0671C58.5859 62.5265 58.2209 62.8915 57.7614 63.0818C57.302 63.2721 56.7858 63.2721 56.3264 63.0818L54.7177 62.4155C54.2582 62.2256 53.7422 62.226 53.283 62.4165L51.6732 63.0824C51.214 63.2723 50.6983 63.2721 50.2392 63.082C49.7801 62.8918 49.4153 62.5272 49.2249 62.0683L48.5579 60.458C48.3679 59.9986 48.0033 59.6334 47.5442 59.4428L45.9344 58.776C45.4751 58.5857 45.1102 58.221 44.9198 57.7618C44.7295 57.3026 44.7292 56.7867 44.9191 56.3273L45.5855 54.7186C45.7753 54.2592 45.7749 53.7431 45.5844 53.284L44.919 51.673C44.8247 51.4454 44.7761 51.2015 44.7761 50.9552C44.776 50.7089 44.8245 50.4649 44.9188 50.2373C45.013 50.0098 45.1512 49.803 45.3254 49.6288C45.4997 49.4547 45.7065 49.3166 45.9341 49.2224L47.5428 48.556C48.0018 48.3662 48.3667 48.0021 48.5575 47.5435L49.2243 45.9337C49.4146 45.4742 49.7796 45.1092 50.2391 44.9189C50.6985 44.7286 51.2147 44.7286 51.6741 44.9189L53.2828 45.5853C53.7423 45.7751 54.2583 45.7747 54.7174 45.5842L56.328 44.9199C56.7874 44.7298 57.3034 44.7298 57.7628 44.9201C58.2221 45.1103 58.5871 45.4752 58.7774 45.9345L59.4444 47.5449L59.4442 47.5421Z" fill="#484848"/>
<path fill-rule="evenodd" clip-rule="evenodd" d="M57.9166 51.3788C58.0502 51.1689 58.0949 50.9146 58.041 50.6717C57.9871 50.4289 57.8389 50.2174 57.6291 50.0838C57.4192 49.9502 57.1649 49.9054 56.922 49.9593C56.6792 50.0132 56.4677 50.1614 56.3341 50.3713L52.6628 56.14L50.9828 54.04C50.8275 53.8457 50.6014 53.7211 50.3542 53.6936C50.107 53.666 49.859 53.7378 49.6647 53.8931C49.4704 54.0485 49.3458 54.2746 49.3183 54.5218C49.2907 54.769 49.3625 55.017 49.5178 55.2113L52.0178 58.3363C52.111 58.4529 52.2307 58.5456 52.3669 58.6066C52.5031 58.6676 52.6519 58.6953 52.8009 58.6872C52.95 58.6791 53.0949 58.6356 53.2238 58.5602C53.3526 58.4848 53.4615 58.3798 53.5416 58.2538L57.9166 51.3788Z" fill="white"/>
</g>
<line x1="13.3536" y1="8.64645" x2="55.3536" y2="50.6464" stroke="#484848"/>
<line x1="9.17086" y1="52.8339" x2="53.1709" y2="8.83395" stroke="#484848"/>
<defs>
<clipPath id="clip0_407_1200">
<rect width="20" height="20" fill="white" transform="translate(44 44)"/>
</clipPath>
</defs>
</svg>
