<svg width="14" height="14" viewBox="0 0 14 14" fill="none" xmlns="http://www.w3.org/2000/svg">
<path fill-rule="evenodd" clip-rule="evenodd" d="M6.84065 0C5.05805 1.59547 2.71435 2.5769 0.142035 2.6118C0.0486231 3.16826 0 3.73992 0 4.32293C0 8.7906 2.85532 12.5914 6.84065 14C10.826 12.5914 13.6813 8.7906 13.6813 4.32293C13.6813 3.73992 13.6327 3.16827 13.5393 2.6118C10.967 2.5769 8.62325 1.59547 6.84065 0ZM7.69573 10.3085C7.69573 10.7807 7.3129 11.1635 6.84065 11.1635C6.3684 11.1635 5.98557 10.7807 5.98557 10.3085C5.98557 9.83622 6.3684 9.45339 6.84065 9.45339C7.3129 9.45339 7.69573 9.83622 7.69573 10.3085ZM7.84065 4.3229C7.84065 3.77061 7.39293 3.3229 6.84065 3.3229C6.28837 3.3229 5.84065 3.77061 5.84065 4.3229V6.88814C5.84065 7.44043 6.28837 7.88814 6.84065 7.88814C7.39293 7.88814 7.84065 7.44043 7.84065 6.88814V4.3229Z" fill="#BC955A"/>
</svg>
