<svg width="38" height="38" viewBox="0 0 38 38" fill="none" xmlns="http://www.w3.org/2000/svg">
<circle cx="19" cy="19" r="19" fill="#D9D9D9"/>
<path d="M24 17C25.6569 17 27 15.6569 27 14C27 12.3431 25.6569 11 24 11C22.3431 11 21 12.3431 21 14C21 14.1255 21.0077 14.2492 21.0227 14.3706L16.0826 16.8406C15.543 16.3201 14.8089 16 14 16C12.3431 16 11 17.3431 11 19C11 20.6569 12.3431 22 14 22C14.8089 22 15.5431 21.6798 16.0826 21.1593L21.0227 23.6293C21.0077 23.7508 21 23.8745 21 24C21 25.6569 22.3431 27 24 27C25.6569 27 27 25.6569 27 24C27 22.3431 25.6569 21 24 21C23.1911 21 22.457 21.3201 21.9174 21.8406L16.9773 19.3706C16.9923 19.2492 17 19.1255 17 19C17 18.8745 16.9923 18.7508 16.9773 18.6293L21.9174 16.1593C22.4569 16.6798 23.1911 17 24 17Z" fill="#111827"/>
</svg>
